<?xml version="1.0" encoding="UTF-8" standalone="no"?><svg xmlns="http://www.w3.org/2000/svg" xmlns:xlink="http://www.w3.org/1999/xlink" contentScriptType="application/ecmascript" contentStyleType="text/css" height="564px" preserveAspectRatio="none" style="width:1248px;height:564px;" version="1.1" viewBox="0 0 1248 564" width="1248px" zoomAndPan="magnify"><defs><filter height="300%" id="f1ux6cvsp2xge3" width="300%" x="-1" y="-1"><feGaussianBlur result="blurOut" stdDeviation="2.0"/><feColorMatrix in="blurOut" result="blurOut2" type="matrix" values="0 0 0 0 0 0 0 0 0 0 0 0 0 0 0 0 0 0 .4 0"/><feOffset dx="4.0" dy="4.0" in="blurOut2" result="blurOut3"/><feBlend in="SourceGraphic" in2="blurOut3" mode="normal"/></filter></defs><g><!--cluster parsing--><polygon fill="#FFFFFF" filter="url(#f1ux6cvsp2xge3)" points="22,24,84,24,91,46.2969,1226,46.2969,1226,552,22,552,22,24" style="stroke: #000000; stroke-width: 1.5;"/><line style="stroke: #000000; stroke-width: 1.5;" x1="22" x2="91" y1="46.2969" y2="46.2969"/><text fill="#000000" font-family="sans-serif" font-size="14" font-weight="bold" lengthAdjust="spacingAndGlyphs" textLength="56" x="26" y="38.9951">parsing</text><!--class ANTLRErrorListener--><rect fill="#FEFECE" filter="url(#f1ux6cvsp2xge3)" height="53.9375" id="ANTLRErrorListener" style="stroke: #A80036; stroke-width: 1.5;" width="151" x="938.5" y="75"/><ellipse cx="953.5" cy="93.9688" fill="#ADD1B2" rx="11" ry="11" style="stroke: #A80036; stroke-width: 1.0;"/><path d="M955.9688,100.1094 Q955.3906,100.4063 954.75,100.5469 Q954.1094,100.7031 953.4063,100.7031 Q950.9063,100.7031 949.5781,99.0625 Q948.2656,97.4063 948.2656,94.2813 Q948.2656,91.1563 949.5781,89.5 Q950.9063,87.8438 953.4063,87.8438 Q954.1094,87.8438 954.75,88 Q955.4063,88.1563 955.9688,88.4531 L955.9688,91.1719 Q955.3438,90.5938 954.75,90.3281 Q954.1563,90.0469 953.5313,90.0469 Q952.1875,90.0469 951.5,91.125 Q950.8125,92.1875 950.8125,94.2813 Q950.8125,96.375 951.5,97.4531 Q952.1875,98.5156 953.5313,98.5156 Q954.1563,98.5156 954.75,98.25 Q955.3438,97.9688 955.9688,97.3906 L955.9688,100.1094 Z "/><text fill="#000000" font-family="sans-serif" font-size="12" font-style="italic" lengthAdjust="spacingAndGlyphs" textLength="123" x="965.5" y="91.1387">«org.antlr.v4.runtime»</text><text fill="#000000" font-family="sans-serif" font-size="12" lengthAdjust="spacingAndGlyphs" textLength="107" x="973.5" y="105.1074">ANTLRErrorListener</text><line style="stroke: #A80036; stroke-width: 1.5;" x1="939.5" x2="1088.5" y1="112.9375" y2="112.9375"/><line style="stroke: #A80036; stroke-width: 1.5;" x1="939.5" x2="1088.5" y1="120.9375" y2="120.9375"/><!--class DP1CircuitBaseVisitor--><rect fill="#FEFECE" filter="url(#f1ux6cvsp2xge3)" height="53.9375" id="DP1CircuitBaseVisitor" style="stroke: #A80036; stroke-width: 1.5;" width="153" x="487.5" y="75"/><ellipse cx="502.5" cy="93.9688" fill="#A9DCDF" rx="11" ry="11" style="stroke: #A80036; stroke-width: 1.0;"/><path d="M502.6094,89.0625 L501.4531,94.1406 L503.7813,94.1406 L502.6094,89.0625 Z M501.125,86.8281 L504.1094,86.8281 L507.4688,99.2188 L505.0156,99.2188 L504.25,96.1563 L500.9688,96.1563 L500.2188,99.2188 L497.7813,99.2188 L501.125,86.8281 Z "/><text fill="#000000" font-family="sans-serif" font-size="12" font-style="italic" lengthAdjust="spacingAndGlyphs" textLength="71" x="541.5" y="91.1387">«generated»</text><text fill="#000000" font-family="sans-serif" font-size="12" font-style="italic" lengthAdjust="spacingAndGlyphs" textLength="121" x="516.5" y="105.1074">DP1CircuitBaseVisitor</text><line style="stroke: #A80036; stroke-width: 1.5;" x1="488.5" x2="639.5" y1="112.9375" y2="112.9375"/><line style="stroke: #A80036; stroke-width: 1.5;" x1="488.5" x2="639.5" y1="120.9375" y2="120.9375"/><!--class ANTLRCircuitParser--><rect fill="#FEFECE" filter="url(#f1ux6cvsp2xge3)" height="73.6094" id="ANTLRCircuitParser" style="stroke: #A80036; stroke-width: 1.5;" width="405" x="38.5" y="443"/><ellipse cx="183.25" cy="459" fill="#ADD1B2" rx="11" ry="11" style="stroke: #A80036; stroke-width: 1.0;"/><path d="M185.7188,465.1406 Q185.1406,465.4375 184.5,465.5781 Q183.8594,465.7344 183.1563,465.7344 Q180.6563,465.7344 179.3281,464.0938 Q178.0156,462.4375 178.0156,459.3125 Q178.0156,456.1875 179.3281,454.5313 Q180.6563,452.875 183.1563,452.875 Q183.8594,452.875 184.5,453.0313 Q185.1563,453.1875 185.7188,453.4844 L185.7188,456.2031 Q185.0938,455.625 184.5,455.3594 Q183.9063,455.0781 183.2813,455.0781 Q181.9375,455.0781 181.25,456.1563 Q180.5625,457.2188 180.5625,459.3125 Q180.5625,461.4063 181.25,462.4844 Q181.9375,463.5469 183.2813,463.5469 Q183.9063,463.5469 184.5,463.2813 Q185.0938,463 185.7188,462.4219 L185.7188,465.1406 Z "/><text fill="#000000" font-family="sans-serif" font-size="12" lengthAdjust="spacingAndGlyphs" textLength="107" x="203.75" y="463.1543">ANTLRCircuitParser</text><line style="stroke: #A80036; stroke-width: 1.5;" x1="39.5" x2="442.5" y1="475" y2="475"/><line style="stroke: #A80036; stroke-width: 1.5;" x1="39.5" x2="442.5" y1="483" y2="483"/><ellipse cx="49.5" cy="494.9023" fill="#84BE84" rx="3" ry="3" style="stroke: #038048; stroke-width: 1.0;"/><text fill="#000000" font-family="sans-serif" font-size="11" lengthAdjust="spacingAndGlyphs" textLength="214" x="58.5" y="497.2104">parse(cleantedTxtCircuit): CircuitDefinition</text><rect fill="#F24D5C" height="6" style="stroke: #C82930; stroke-width: 1.0;" width="6" x="46.5" y="504.707"/><text fill="#000000" font-family="sans-serif" font-size="11" lengthAdjust="spacingAndGlyphs" textLength="379" x="58.5" y="510.0151">convertParseTreeToCircuitDefinition(parseTree: ParseTree): CircuitDefinition</text><!--class ICircuitParser--><rect fill="#FEFECE" filter="url(#f1ux6cvsp2xge3)" height="60.8047" id="ICircuitParser" style="stroke: #A80036; stroke-width: 1.5;" width="271" x="38.5" y="254"/><ellipse cx="133.25" cy="270" fill="#B4A7E5" rx="11" ry="11" style="stroke: #A80036; stroke-width: 1.0;"/><path d="M129.6719,265.7656 L129.6719,263.6094 L137.0625,263.6094 L137.0625,265.7656 L134.5938,265.7656 L134.5938,273.8438 L137.0625,273.8438 L137.0625,276 L129.6719,276 L129.6719,273.8438 L132.1406,273.8438 L132.1406,265.7656 L129.6719,265.7656 Z "/><text fill="#000000" font-family="sans-serif" font-size="12" font-style="italic" lengthAdjust="spacingAndGlyphs" textLength="73" x="153.75" y="274.1543">ICircuitParser</text><line style="stroke: #A80036; stroke-width: 1.5;" x1="39.5" x2="308.5" y1="286" y2="286"/><line style="stroke: #A80036; stroke-width: 1.5;" x1="39.5" x2="308.5" y1="294" y2="294"/><ellipse cx="49.5" cy="305.9023" fill="#84BE84" rx="3" ry="3" style="stroke: #038048; stroke-width: 1.0;"/><text fill="#000000" font-family="sans-serif" font-size="11" lengthAdjust="spacingAndGlyphs" textLength="245" x="58.5" y="308.2104">parse(cleanedTxtCircuit: String): CircuitDefinition</text><!--class XMLCircuitParser--><rect fill="#FEFECE" filter="url(#f1ux6cvsp2xge3)" height="112.0234" id="XMLCircuitParser" style="stroke: #A80036; stroke-width: 1.5;" width="236" x="479" y="424"/><ellipse cx="545.75" cy="440" fill="#ADD1B2" rx="11" ry="11" style="stroke: #A80036; stroke-width: 1.0;"/><path d="M548.2188,446.1406 Q547.6406,446.4375 547,446.5781 Q546.3594,446.7344 545.6563,446.7344 Q543.1563,446.7344 541.8281,445.0938 Q540.5156,443.4375 540.5156,440.3125 Q540.5156,437.1875 541.8281,435.5313 Q543.1563,433.875 545.6563,433.875 Q546.3594,433.875 547,434.0313 Q547.6563,434.1875 548.2188,434.4844 L548.2188,437.2031 Q547.5938,436.625 547,436.3594 Q546.4063,436.0781 545.7813,436.0781 Q544.4375,436.0781 543.75,437.1563 Q543.0625,438.2188 543.0625,440.3125 Q543.0625,442.4063 543.75,443.4844 Q544.4375,444.5469 545.7813,444.5469 Q546.4063,444.5469 547,444.2813 Q547.5938,444 548.2188,443.4219 L548.2188,446.1406 Z "/><text fill="#000000" font-family="sans-serif" font-size="12" lengthAdjust="spacingAndGlyphs" textLength="94" x="566.25" y="444.1543">XMLCircuitParser</text><line style="stroke: #A80036; stroke-width: 1.5;" x1="480" x2="714" y1="456" y2="456"/><rect fill="none" height="6" style="stroke: #C82930; stroke-width: 1.0;" width="6" x="487" y="464.9023"/><text fill="#000000" font-family="sans-serif" font-size="11" lengthAdjust="spacingAndGlyphs" textLength="138" x="499" y="470.2104">nodes: Map&lt;String, String&gt;</text><rect fill="none" height="6" style="stroke: #C82930; stroke-width: 1.0;" width="6" x="487" y="477.707"/><text fill="#000000" font-family="sans-serif" font-size="11" lengthAdjust="spacingAndGlyphs" textLength="174" x="499" y="483.0151">edges: Map&lt;String, List&lt;String&gt;&gt;</text><line style="stroke: #A80036; stroke-width: 1.5;" x1="480" x2="714" y1="489.6094" y2="489.6094"/><ellipse cx="490" cy="501.5117" fill="#84BE84" rx="3" ry="3" style="stroke: #038048; stroke-width: 1.0;"/><text fill="#000000" font-family="sans-serif" font-size="11" lengthAdjust="spacingAndGlyphs" textLength="210" x="499" y="503.8198">parse(cleanedTxtCircuit): CircuitDefinition</text><rect fill="#F24D5C" height="6" style="stroke: #C82930; stroke-width: 1.0;" width="6" x="487" y="511.3164"/><text fill="#000000" font-family="sans-serif" font-size="11" lengthAdjust="spacingAndGlyphs" textLength="174" x="499" y="516.6245">parseNodes(document: Document)</text><rect fill="#F24D5C" height="6" style="stroke: #C82930; stroke-width: 1.0;" width="6" x="487" y="524.1211"/><text fill="#000000" font-family="sans-serif" font-size="11" lengthAdjust="spacingAndGlyphs" textLength="172" x="499" y="529.4292">parseEdges(document: Document)</text><!--class ANTLRParserErrorListener--><rect fill="#FEFECE" filter="url(#f1ux6cvsp2xge3)" height="86.4141" id="ANTLRParserErrorListener" style="stroke: #A80036; stroke-width: 1.5;" width="391" x="818.5" y="241.5"/><ellipse cx="938.75" cy="257.5" fill="#ADD1B2" rx="11" ry="11" style="stroke: #A80036; stroke-width: 1.0;"/><path d="M941.2188,263.6406 Q940.6406,263.9375 940,264.0781 Q939.3594,264.2344 938.6563,264.2344 Q936.1563,264.2344 934.8281,262.5938 Q933.5156,260.9375 933.5156,257.8125 Q933.5156,254.6875 934.8281,253.0313 Q936.1563,251.375 938.6563,251.375 Q939.3594,251.375 940,251.5313 Q940.6563,251.6875 941.2188,251.9844 L941.2188,254.7031 Q940.5938,254.125 940,253.8594 Q939.4063,253.5781 938.7813,253.5781 Q937.4375,253.5781 936.75,254.6563 Q936.0625,255.7188 936.0625,257.8125 Q936.0625,259.9063 936.75,260.9844 Q937.4375,262.0469 938.7813,262.0469 Q939.4063,262.0469 940,261.7813 Q940.5938,261.5 941.2188,260.9219 L941.2188,263.6406 Z "/><text fill="#000000" font-family="sans-serif" font-size="12" lengthAdjust="spacingAndGlyphs" textLength="142" x="959.25" y="261.6543">ANTLRParserErrorListener</text><line style="stroke: #A80036; stroke-width: 1.5;" x1="819.5" x2="1208.5" y1="273.5" y2="273.5"/><rect fill="none" height="6" style="stroke: #C82930; stroke-width: 1.0;" width="6" x="826.5" y="282.4023"/><text fill="#000000" font-family="sans-serif" font-size="11" lengthAdjust="spacingAndGlyphs" textLength="110" x="838.5" y="287.7104">syntaxErrorsCount: int</text><line style="stroke: #A80036; stroke-width: 1.5;" x1="819.5" x2="1208.5" y1="294.3047" y2="294.3047"/><ellipse cx="829.5" cy="306.207" fill="#84BE84" rx="3" ry="3" style="stroke: #038048; stroke-width: 1.0;"/><text fill="#000000" font-family="sans-serif" font-size="11" lengthAdjust="spacingAndGlyphs" textLength="133" x="838.5" y="308.5151">hasSyntaxErrors(): boolean</text><ellipse cx="829.5" cy="319.0117" fill="#84BE84" rx="3" ry="3" style="stroke: #038048; stroke-width: 1.0;"/><text fill="#000000" font-family="sans-serif" font-size="11" lengthAdjust="spacingAndGlyphs" textLength="365" x="838.5" y="321.3198">syntaxError(recognizer, offendingSymbol, line, charPositionInLine, msg, e)</text><!--class ANTLRVisitor--><rect fill="#FEFECE" filter="url(#f1ux6cvsp2xge3)" height="124.8281" id="ANTLRVisitor" style="stroke: #A80036; stroke-width: 1.5;" width="439" x="344.5" y="222"/><ellipse cx="523.75" cy="238" fill="#ADD1B2" rx="11" ry="11" style="stroke: #A80036; stroke-width: 1.0;"/><path d="M526.2188,244.1406 Q525.6406,244.4375 525,244.5781 Q524.3594,244.7344 523.6563,244.7344 Q521.1563,244.7344 519.8281,243.0938 Q518.5156,241.4375 518.5156,238.3125 Q518.5156,235.1875 519.8281,233.5313 Q521.1563,231.875 523.6563,231.875 Q524.3594,231.875 525,232.0313 Q525.6563,232.1875 526.2188,232.4844 L526.2188,235.2031 Q525.5938,234.625 525,234.3594 Q524.4063,234.0781 523.7813,234.0781 Q522.4375,234.0781 521.75,235.1563 Q521.0625,236.2188 521.0625,238.3125 Q521.0625,240.4063 521.75,241.4844 Q522.4375,242.5469 523.7813,242.5469 Q524.4063,242.5469 525,242.2813 Q525.5938,242 526.2188,241.4219 L526.2188,244.1406 Z "/><text fill="#000000" font-family="sans-serif" font-size="12" lengthAdjust="spacingAndGlyphs" textLength="72" x="544.25" y="242.1543">ANTLRVisitor</text><line style="stroke: #A80036; stroke-width: 1.5;" x1="345.5" x2="782.5" y1="254" y2="254"/><rect fill="none" height="6" style="stroke: #C82930; stroke-width: 1.0;" width="6" x="352.5" y="262.9023"/><text fill="#000000" font-family="sans-serif" font-size="11" lengthAdjust="spacingAndGlyphs" textLength="138" x="364.5" y="268.2104">nodes: Map&lt;String, String&gt;</text><rect fill="none" height="6" style="stroke: #C82930; stroke-width: 1.0;" width="6" x="352.5" y="275.707"/><text fill="#000000" font-family="sans-serif" font-size="11" lengthAdjust="spacingAndGlyphs" textLength="174" x="364.5" y="281.0151">edges: Map&lt;String, List&lt;String&gt;&gt;</text><line style="stroke: #A80036; stroke-width: 1.5;" x1="345.5" x2="782.5" y1="287.6094" y2="287.6094"/><ellipse cx="355.5" cy="299.5117" fill="#84BE84" rx="3" ry="3" style="stroke: #038048; stroke-width: 1.0;"/><text fill="#000000" font-family="sans-serif" font-size="11" lengthAdjust="spacingAndGlyphs" textLength="74" x="364.5" y="301.8198">ANTLRVisitor()</text><ellipse cx="355.5" cy="312.3164" fill="#84BE84" rx="3" ry="3" style="stroke: #038048; stroke-width: 1.0;"/><text fill="#000000" font-family="sans-serif" font-size="11" lengthAdjust="spacingAndGlyphs" textLength="104" x="364.5" y="314.6245">visit(tree: ParseTree)</text><ellipse cx="355.5" cy="325.1211" fill="#84BE84" rx="3" ry="3" style="stroke: #038048; stroke-width: 1.0;"/><text fill="#000000" font-family="sans-serif" font-size="11" lengthAdjust="spacingAndGlyphs" textLength="413" x="364.5" y="327.4292">visitNodeDefinition(ctx: DP1CircuitParser.NodeDefinitionContext): CircuitDefinition</text><ellipse cx="355.5" cy="337.9258" fill="#84BE84" rx="3" ry="3" style="stroke: #038048; stroke-width: 1.0;"/><text fill="#000000" font-family="sans-serif" font-size="11" lengthAdjust="spacingAndGlyphs" textLength="409" x="364.5" y="340.2339">visitEdgeDefinition(ctx: DP1CircuitParser.EdgeDefinitionContext): CircuitDefinition</text><!--class CircuitDefinition--><rect fill="#FEFECE" filter="url(#f1ux6cvsp2xge3)" height="48" id="CircuitDefinition" style="stroke: #A80036; stroke-width: 1.5;" width="121" x="750.5" y="456"/><ellipse cx="765.5" cy="472" fill="#ADD1B2" rx="11" ry="11" style="stroke: #A80036; stroke-width: 1.0;"/><path d="M767.9688,478.1406 Q767.3906,478.4375 766.75,478.5781 Q766.1094,478.7344 765.4063,478.7344 Q762.9063,478.7344 761.5781,477.0938 Q760.2656,475.4375 760.2656,472.3125 Q760.2656,469.1875 761.5781,467.5313 Q762.9063,465.875 765.4063,465.875 Q766.1094,465.875 766.75,466.0313 Q767.4063,466.1875 767.9688,466.4844 L767.9688,469.2031 Q767.3438,468.625 766.75,468.3594 Q766.1563,468.0781 765.5313,468.0781 Q764.1875,468.0781 763.5,469.1563 Q762.8125,470.2188 762.8125,472.3125 Q762.8125,474.4063 763.5,475.4844 Q764.1875,476.5469 765.5313,476.5469 Q766.1563,476.5469 766.75,476.2813 Q767.3438,476 767.9688,475.4219 L767.9688,478.1406 Z "/><text fill="#000000" font-family="sans-serif" font-size="12" lengthAdjust="spacingAndGlyphs" textLength="89" x="779.5" y="476.1543">CircuitDefinition</text><line style="stroke: #A80036; stroke-width: 1.5;" x1="751.5" x2="870.5" y1="488" y2="488"/><line style="stroke: #A80036; stroke-width: 1.5;" x1="751.5" x2="870.5" y1="496" y2="496"/><!--class CircuitParserFactory--><rect fill="#FEFECE" filter="url(#f1ux6cvsp2xge3)" height="86.4141" id="CircuitParserFactory" style="stroke: #A80036; stroke-width: 1.5;" width="250" x="49" y="59"/><ellipse cx="114.25" cy="75" fill="#ADD1B2" rx="11" ry="11" style="stroke: #A80036; stroke-width: 1.0;"/><path d="M116.7188,81.1406 Q116.1406,81.4375 115.5,81.5781 Q114.8594,81.7344 114.1563,81.7344 Q111.6563,81.7344 110.3281,80.0938 Q109.0156,78.4375 109.0156,75.3125 Q109.0156,72.1875 110.3281,70.5313 Q111.6563,68.875 114.1563,68.875 Q114.8594,68.875 115.5,69.0313 Q116.1563,69.1875 116.7188,69.4844 L116.7188,72.2031 Q116.0938,71.625 115.5,71.3594 Q114.9063,71.0781 114.2813,71.0781 Q112.9375,71.0781 112.25,72.1563 Q111.5625,73.2188 111.5625,75.3125 Q111.5625,77.4063 112.25,78.4844 Q112.9375,79.5469 114.2813,79.5469 Q114.9063,79.5469 115.5,79.2813 Q116.0938,79 116.7188,78.4219 L116.7188,81.1406 Z "/><text fill="#000000" font-family="sans-serif" font-size="12" lengthAdjust="spacingAndGlyphs" textLength="111" x="134.75" y="79.1543">CircuitParserFactory</text><line style="stroke: #A80036; stroke-width: 1.5;" x1="50" x2="298" y1="91" y2="91"/><ellipse cx="60" cy="102.9023" fill="none" rx="3" ry="3" style="stroke: #038048; stroke-width: 1.0;"/><text fill="#000000" font-family="sans-serif" font-size="11" lengthAdjust="spacingAndGlyphs" textLength="167" x="69" y="105.2104">circuitParserNames: Set&lt;String&gt;</text><line style="stroke: #A80036; stroke-width: 1.5;" x1="50" x2="298" y1="111.8047" y2="111.8047"/><ellipse cx="60" cy="123.707" fill="#84BE84" rx="3" ry="3" style="stroke: #038048; stroke-width: 1.0;"/><text fill="#000000" font-family="sans-serif" font-size="11" lengthAdjust="spacingAndGlyphs" textLength="110" x="69" y="126.0151">CircuitParserFactory()</text><ellipse cx="60" cy="136.5117" fill="#84BE84" rx="3" ry="3" style="stroke: #038048; stroke-width: 1.0;"/><text fill="#000000" font-family="sans-serif" font-size="11" lengthAdjust="spacingAndGlyphs" textLength="224" x="69" y="138.8198">getCircuitParser(name: String): ICircuitParser</text><!--link ICircuitParser to ANTLRCircuitParser--><path d="M190.89,334.29 C202.59,368.06 217.89,412.27 228.5,442.89 " fill="none" id="ICircuitParser-ANTLRCircuitParser" style="stroke: #A80036; stroke-width: 1.0; stroke-dasharray: 7.0,7.0;"/><polygon fill="none" points="184.25,336.5,184.32,315.31,197.48,331.92,184.25,336.5" style="stroke: #A80036; stroke-width: 1.0;"/><!--link ICircuitParser to XMLCircuitParser--><path d="M257.07,323.5 C320.28,352.42 408.12,392.6 478.67,424.87 " fill="none" id="ICircuitParser-XMLCircuitParser" style="stroke: #A80036; stroke-width: 1.0; stroke-dasharray: 7.0,7.0;"/><polygon fill="none" points="253.98,329.78,238.71,315.1,259.8,317.05,253.98,329.78" style="stroke: #A80036; stroke-width: 1.0;"/><!--link ANTLRErrorListener to ANTLRParserErrorListener--><path d="M1014,149.65 C1014,178.03 1014,214 1014,241.49 " fill="none" id="ANTLRErrorListener-ANTLRParserErrorListener" style="stroke: #A80036; stroke-width: 1.0; stroke-dasharray: 7.0,7.0;"/><polygon fill="none" points="1007,149.25,1014,129.25,1021,149.25,1007,149.25" style="stroke: #A80036; stroke-width: 1.0;"/><!--link DP1CircuitBaseVisitor to ANTLRVisitor--><path d="M564,149.44 C564,171.45 564,198.04 564,221.72 " fill="none" id="DP1CircuitBaseVisitor-ANTLRVisitor" style="stroke: #A80036; stroke-width: 1.0;"/><polygon fill="none" points="557,149.25,564,129.25,571,149.25,557,149.25" style="stroke: #A80036; stroke-width: 1.0;"/><!--link ANTLRVisitor to CircuitDefinition--><path d="M642.83,347.26 C688.28,382.86 743.06,425.77 777.47,452.73 " fill="none" id="ANTLRVisitor-CircuitDefinition" style="stroke: #A80036; stroke-width: 1.0;"/><polygon fill="#A80036" points="781.56,455.94,776.953,447.2351,777.6279,452.8515,772.0115,453.5264,781.56,455.94" style="stroke: #A80036; stroke-width: 1.0;"/><rect fill="none" height="6" style="stroke: #C82930; stroke-width: 1.0;" width="6" x="705" y="383.0755"/><text fill="#000000" font-family="sans-serif" font-size="13" lengthAdjust="spacingAndGlyphs" textLength="97" x="715" y="390.0814">circuitDefinition</text><text fill="#000000" font-family="sans-serif" font-size="13" lengthAdjust="spacingAndGlyphs" textLength="8" x="764.991" y="444.9535">1</text><!--link CircuitParserFactory to ICircuitParser--><path d="M174,145.32 C174,176.71 174,219 174,248.49 " fill="none" id="CircuitParserFactory-ICircuitParser" style="stroke: #A80036; stroke-width: 1.0;"/><polygon fill="#A80036" points="174,253.85,178,244.85,174,248.85,170,244.85,174,253.85" style="stroke: #A80036; stroke-width: 1.0;"/><rect fill="none" height="6" style="stroke: #C82930; stroke-width: 1.0;" width="6" x="177" y="181.0755"/><text fill="#000000" font-family="sans-serif" font-size="13" lengthAdjust="spacingAndGlyphs" textLength="82" x="187" y="188.0814">circuitParsers</text><text fill="#000000" font-family="sans-serif" font-size="13" lengthAdjust="spacingAndGlyphs" textLength="22" x="149.7313" y="243.0987">0..*</text><!--
@startuml

package parsing {
    class ANTLRErrorListener <<org.antlr.v4.runtime>>
    abstract class DP1CircuitBaseVisitor <<generated>>

    class ANTLRCircuitParser implements ICircuitParser {
        +parse(cleantedTxtCircuit): CircuitDefinition
        -convertParseTreeToCircuitDefinition(parseTree: ParseTree): CircuitDefinition
    }

    class XMLCircuitParser implements ICircuitParser {
        -nodes: Map<String, String>
        -edges: Map<String, List<String>>

        +parse(cleanedTxtCircuit): CircuitDefinition
        -parseNodes(document: Document)
        -parseEdges(document: Document)
    }

    class ANTLRParserErrorListener implements ANTLRErrorListener {
        -syntaxErrorsCount: int

        +hasSyntaxErrors(): boolean
        +syntaxError(recognizer, offendingSymbol, line, charPositionInLine, msg, e)
    }

    class ANTLRVisitor extends DP1CircuitBaseVisitor {
        -nodes: Map<String, String>
        -edges: Map<String, List<String>>

        +ANTLRVisitor()
        +visit(tree: ParseTree)
        +visitNodeDefinition(ctx: DP1CircuitParser.NodeDefinitionContext): CircuitDefinition
        +visitEdgeDefinition(ctx: DP1CircuitParser.EdgeDefinitionContext): CircuitDefinition
    }
    ANTLRVisitor - -> "1" CircuitDefinition : -circuitDefinition

    class CircuitParserFactory {
        +circuitParserNames: Set<String>

        +CircuitParserFactory()
        +getCircuitParser(name: String): ICircuitParser
    }
    CircuitParserFactory - -> "0..*" ICircuitParser : -circuitParsers

    interface ICircuitParser {
        +parse(cleanedTxtCircuit: String): CircuitDefinition
    }
}

@enduml

PlantUML version 1.2018.12(Sun Oct 21 12:15:15 CEST 2018)
(GPL source distribution)
Java Runtime: OpenJDK Runtime Environment
JVM: OpenJDK 64-Bit Server VM
Java Version: 11.0.6+8-b520.43
Operating System: Linux
OS Version: 5.4.43-1-MANJARO
Default Encoding: UTF-8
Language: en
Country: US
--></g></svg>