<?xml version="1.0" encoding="UTF-8" standalone="no"?>
<svg xmlns="http://www.w3.org/2000/svg"
     contentScriptType="application/ecmascript" contentStyleType="text/css" height="827px" preserveAspectRatio="none"
     style="width:1267px;height:827px;" version="1.1" viewBox="0 0 1267 827" width="1267px" zoomAndPan="magnify">
    <defs>
        <filter height="300%" id="f1cwr2p5ujzyds" width="300%" x="-1" y="-1">
            <feGaussianBlur result="blurOut" stdDeviation="2.0"/>
            <feColorMatrix in="blurOut" result="blurOut2" type="matrix"
                           values="0 0 0 0 0 0 0 0 0 0 0 0 0 0 0 0 0 0 .4 0"/>
            <feOffset dx="4.0" dy="4.0" in="blurOut2" result="blurOut3"/>
            <feBlend in="SourceGraphic" in2="blurOut3" mode="normal"/>
        </filter>
    </defs>
    <g><!--cluster building-->
        <polygon fill="#FFFFFF" filter="url(#f1cwr2p5ujzyds)"
                 points="22,24,88,24,95,46.2969,1245,46.2969,1245,815,22,815,22,24"
                 style="stroke: #000000; stroke-width: 1.5;"/>
        <line style="stroke: #000000; stroke-width: 1.5;" x1="22" x2="95" y1="46.2969" y2="46.2969"/>
        <text fill="#000000" font-family="sans-serif" font-size="14" font-weight="bold" lengthAdjust="spacingAndGlyphs"
              textLength="60" x="26" y="38.9951">building
        </text><!--class CircuitBuilder-->
        <rect fill="#FEFECE" filter="url(#f1cwr2p5ujzyds)" height="99.2188" id="CircuitBuilder"
              style="stroke: #A80036; stroke-width: 1.5;" width="226" x="379" y="210"/>
        <ellipse cx="450.75" cy="226" fill="#ADD1B2" rx="11" ry="11" style="stroke: #A80036; stroke-width: 1.0;"/>
        <path d="M453.2188,232.1406 Q452.6406,232.4375 452,232.5781 Q451.3594,232.7344 450.6563,232.7344 Q448.1563,232.7344 446.8281,231.0938 Q445.5156,229.4375 445.5156,226.3125 Q445.5156,223.1875 446.8281,221.5313 Q448.1563,219.875 450.6563,219.875 Q451.3594,219.875 452,220.0313 Q452.6563,220.1875 453.2188,220.4844 L453.2188,223.2031 Q452.5938,222.625 452,222.3594 Q451.4063,222.0781 450.7813,222.0781 Q449.4375,222.0781 448.75,223.1563 Q448.0625,224.2188 448.0625,226.3125 Q448.0625,228.4063 448.75,229.4844 Q449.4375,230.5469 450.7813,230.5469 Q451.4063,230.5469 452,230.2813 Q452.5938,230 453.2188,229.4219 L453.2188,232.1406 Z "/>
        <text fill="#000000" font-family="sans-serif" font-size="12" lengthAdjust="spacingAndGlyphs" textLength="74"
              x="471.25" y="230.1543">CircuitBuilder
        </text>
        <line style="stroke: #A80036; stroke-width: 1.5;" x1="380" x2="604" y1="242" y2="242"/>
        <line style="stroke: #A80036; stroke-width: 1.5;" x1="380" x2="604" y1="250" y2="250"/>
        <ellipse cx="390" cy="261.9023" fill="#84BE84" rx="3" ry="3" style="stroke: #038048; stroke-width: 1.0;"/>
        <text fill="#000000" font-family="sans-serif" font-size="11" lengthAdjust="spacingAndGlyphs" textLength="96"
              x="399" y="264.2104">getCircuit(): Circuit
        </text>
        <ellipse cx="390" cy="274.707" fill="#84BE84" rx="3" ry="3" style="stroke: #038048; stroke-width: 1.0;"/>
        <text fill="#000000" font-family="sans-serif" font-size="11" lengthAdjust="spacingAndGlyphs" textLength="200"
              x="399" y="277.0151">reset(circuitDefinition: CircuitDefinition)
        </text>
        <ellipse cx="390" cy="287.5117" fill="#84BE84" rx="3" ry="3" style="stroke: #038048; stroke-width: 1.0;"/>
        <text fill="#000000" font-family="sans-serif" font-size="11" lengthAdjust="spacingAndGlyphs" textLength="63"
              x="399" y="289.8198">buildNodes()
        </text>
        <ellipse cx="390" cy="300.3164" fill="#84BE84" rx="3" ry="3" style="stroke: #038048; stroke-width: 1.0;"/>
        <text fill="#000000" font-family="sans-serif" font-size="11" lengthAdjust="spacingAndGlyphs" textLength="61"
              x="399" y="302.6245">buildEdges()
        </text><!--class CircuitDefinition-->
        <rect fill="#FEFECE" filter="url(#f1cwr2p5ujzyds)" height="112.0234" id="CircuitDefinition"
              style="stroke: #A80036; stroke-width: 1.5;" width="433" x="693.5" y="411.5"/>
        <ellipse cx="861.25" cy="427.5" fill="#ADD1B2" rx="11" ry="11" style="stroke: #A80036; stroke-width: 1.0;"/>
        <path d="M863.7188,433.6406 Q863.1406,433.9375 862.5,434.0781 Q861.8594,434.2344 861.1563,434.2344 Q858.6563,434.2344 857.3281,432.5938 Q856.0156,430.9375 856.0156,427.8125 Q856.0156,424.6875 857.3281,423.0313 Q858.6563,421.375 861.1563,421.375 Q861.8594,421.375 862.5,421.5313 Q863.1563,421.6875 863.7188,421.9844 L863.7188,424.7031 Q863.0938,424.125 862.5,423.8594 Q861.9063,423.5781 861.2813,423.5781 Q859.9375,423.5781 859.25,424.6563 Q858.5625,425.7188 858.5625,427.8125 Q858.5625,429.9063 859.25,430.9844 Q859.9375,432.0469 861.2813,432.0469 Q861.9063,432.0469 862.5,431.7813 Q863.0938,431.5 863.7188,430.9219 L863.7188,433.6406 Z "/>
        <text fill="#000000" font-family="sans-serif" font-size="12" lengthAdjust="spacingAndGlyphs" textLength="89"
              x="881.75" y="431.6543">CircuitDefinition
        </text>
        <line style="stroke: #A80036; stroke-width: 1.5;" x1="694.5" x2="1125.5" y1="443.5" y2="443.5"/>
        <rect fill="none" height="6" style="stroke: #C82930; stroke-width: 1.0;" width="6" x="701.5" y="452.4023"/>
        <text fill="#000000" font-family="sans-serif" font-size="11" lengthAdjust="spacingAndGlyphs" textLength="138"
              x="713.5" y="457.7104">nodes: Map&lt;String, String&gt;
        </text>
        <rect fill="none" height="6" style="stroke: #C82930; stroke-width: 1.0;" width="6" x="701.5" y="465.207"/>
        <text fill="#000000" font-family="sans-serif" font-size="11" lengthAdjust="spacingAndGlyphs" textLength="174"
              x="713.5" y="470.5151">edges: Map&lt;String, List&lt;String&gt;&gt;
        </text>
        <line style="stroke: #A80036; stroke-width: 1.5;" x1="694.5" x2="1125.5" y1="477.1094" y2="477.1094"/>
        <ellipse cx="704.5" cy="489.0117" fill="#84BE84" rx="3" ry="3" style="stroke: #038048; stroke-width: 1.0;"/>
        <text fill="#000000" font-family="sans-serif" font-size="11" lengthAdjust="spacingAndGlyphs" textLength="407"
              x="713.5" y="491.3198">CircuitDefinition(nodes: Map&lt;String, String&gt;, edges: Map&lt;String, List&lt;String&gt;&gt;)
        </text>
        <ellipse cx="704.5" cy="501.8164" fill="#84BE84" rx="3" ry="3" style="stroke: #038048; stroke-width: 1.0;"/>
        <text fill="#000000" font-family="sans-serif" font-size="11" lengthAdjust="spacingAndGlyphs" textLength="164"
              x="713.5" y="504.1245">getNodes(): Map&lt;String, String&gt;
        </text>
        <ellipse cx="704.5" cy="514.6211" fill="#84BE84" rx="3" ry="3" style="stroke: #038048; stroke-width: 1.0;"/>
        <text fill="#000000" font-family="sans-serif" font-size="11" lengthAdjust="spacingAndGlyphs" textLength="198"
              x="713.5" y="516.9292">getEdges(): Map&lt;String, List&lt;String&gt;&gt;
        </text><!--class Circuit-->
        <rect fill="#FEFECE" filter="url(#f1cwr2p5ujzyds)" height="48" id="Circuit"
              style="stroke: #A80036; stroke-width: 1.5;" width="67" x="1161.5" y="443.5"/>
        <ellipse cx="1176.5" cy="459.5" fill="#ADD1B2" rx="11" ry="11" style="stroke: #A80036; stroke-width: 1.0;"/>
        <path d="M1178.9688,465.6406 Q1178.3906,465.9375 1177.75,466.0781 Q1177.1094,466.2344 1176.4063,466.2344 Q1173.9063,466.2344 1172.5781,464.5938 Q1171.2656,462.9375 1171.2656,459.8125 Q1171.2656,456.6875 1172.5781,455.0313 Q1173.9063,453.375 1176.4063,453.375 Q1177.1094,453.375 1177.75,453.5313 Q1178.4063,453.6875 1178.9688,453.9844 L1178.9688,456.7031 Q1178.3438,456.125 1177.75,455.8594 Q1177.1563,455.5781 1176.5313,455.5781 Q1175.1875,455.5781 1174.5,456.6563 Q1173.8125,457.7188 1173.8125,459.8125 Q1173.8125,461.9063 1174.5,462.9844 Q1175.1875,464.0469 1176.5313,464.0469 Q1177.1563,464.0469 1177.75,463.7813 Q1178.3438,463.5 1178.9688,462.9219 L1178.9688,465.6406 Z "/>
        <text fill="#000000" font-family="sans-serif" font-size="12" lengthAdjust="spacingAndGlyphs" textLength="35"
              x="1190.5" y="463.6543">Circuit
        </text>
        <line style="stroke: #A80036; stroke-width: 1.5;" x1="1162.5" x2="1227.5" y1="475.5" y2="475.5"/>
        <line style="stroke: #A80036; stroke-width: 1.5;" x1="1162.5" x2="1227.5" y1="483.5"
              y2="483.5"/><!--class Node-->
        <rect fill="#FEFECE" filter="url(#f1cwr2p5ujzyds)" height="48" id="Node"
              style="stroke: #A80036; stroke-width: 1.5;" width="61" x="229.5" y="443.5"/>
        <ellipse cx="244.5" cy="459.5" fill="#ADD1B2" rx="11" ry="11" style="stroke: #A80036; stroke-width: 1.0;"/>
        <path d="M246.9688,465.6406 Q246.3906,465.9375 245.75,466.0781 Q245.1094,466.2344 244.4063,466.2344 Q241.9063,466.2344 240.5781,464.5938 Q239.2656,462.9375 239.2656,459.8125 Q239.2656,456.6875 240.5781,455.0313 Q241.9063,453.375 244.4063,453.375 Q245.1094,453.375 245.75,453.5313 Q246.4063,453.6875 246.9688,453.9844 L246.9688,456.7031 Q246.3438,456.125 245.75,455.8594 Q245.1563,455.5781 244.5313,455.5781 Q243.1875,455.5781 242.5,456.6563 Q241.8125,457.7188 241.8125,459.8125 Q241.8125,461.9063 242.5,462.9844 Q243.1875,464.0469 244.5313,464.0469 Q245.1563,464.0469 245.75,463.7813 Q246.3438,463.5 246.9688,462.9219 L246.9688,465.6406 Z "/>
        <text fill="#000000" font-family="sans-serif" font-size="12" lengthAdjust="spacingAndGlyphs" textLength="29"
              x="258.5" y="463.6543">Node
        </text>
        <line style="stroke: #A80036; stroke-width: 1.5;" x1="230.5" x2="289.5" y1="475.5" y2="475.5"/>
        <line style="stroke: #A80036; stroke-width: 1.5;" x1="230.5" x2="289.5" y1="483.5"
              y2="483.5"/><!--class NodeParentableVisitor-->
        <rect fill="#FEFECE" filter="url(#f1cwr2p5ujzyds)" height="163.2422" id="NodeParentableVisitor"
              style="stroke: #A80036; stroke-width: 1.5;" width="156" x="38" y="386"/>
        <ellipse cx="53" cy="402" fill="#ADD1B2" rx="11" ry="11" style="stroke: #A80036; stroke-width: 1.0;"/>
        <path d="M55.4688,408.1406 Q54.8906,408.4375 54.25,408.5781 Q53.6094,408.7344 52.9063,408.7344 Q50.4063,408.7344 49.0781,407.0938 Q47.7656,405.4375 47.7656,402.3125 Q47.7656,399.1875 49.0781,397.5313 Q50.4063,395.875 52.9063,395.875 Q53.6094,395.875 54.25,396.0313 Q54.9063,396.1875 55.4688,396.4844 L55.4688,399.2031 Q54.8438,398.625 54.25,398.3594 Q53.6563,398.0781 53.0313,398.0781 Q51.6875,398.0781 51,399.1563 Q50.3125,400.2188 50.3125,402.3125 Q50.3125,404.4063 51,405.4844 Q51.6875,406.5469 53.0313,406.5469 Q53.6563,406.5469 54.25,406.2813 Q54.8438,406 55.4688,405.4219 L55.4688,408.1406 Z "/>
        <text fill="#000000" font-family="sans-serif" font-size="12" lengthAdjust="spacingAndGlyphs" textLength="124"
              x="67" y="406.1543">NodeParentableVisitor
        </text>
        <line style="stroke: #A80036; stroke-width: 1.5;" x1="39" x2="193" y1="418" y2="418"/>
        <ellipse cx="49" cy="429.9023" fill="none" rx="3" ry="3" style="stroke: #038048; stroke-width: 1.0;"/>
        <text fill="#000000" font-family="sans-serif" font-size="11" lengthAdjust="spacingAndGlyphs" textLength="98"
              x="58" y="432.2104">parentable: boolean
        </text>
        <line style="stroke: #A80036; stroke-width: 1.5;" x1="39" x2="193" y1="438.8047" y2="438.8047"/>
        <ellipse cx="49" cy="450.707" fill="#84BE84" rx="3" ry="3" style="stroke: #038048; stroke-width: 1.0;"/>
        <text fill="#000000" font-family="sans-serif" font-size="11" lengthAdjust="spacingAndGlyphs" textLength="114"
              x="58" y="453.0151">isParentable(): boolean
        </text>
        <ellipse cx="49" cy="463.5117" fill="#84BE84" rx="3" ry="3" style="stroke: #038048; stroke-width: 1.0;"/>
        <text fill="#000000" font-family="sans-serif" font-size="11" lengthAdjust="spacingAndGlyphs" textLength="87"
              x="58" y="465.8198">visit(node: Probe)
        </text>
        <ellipse cx="49" cy="476.3164" fill="#84BE84" rx="3" ry="3" style="stroke: #038048; stroke-width: 1.0;"/>
        <text fill="#000000" font-family="sans-serif" font-size="11" lengthAdjust="spacingAndGlyphs" textLength="84"
              x="58" y="478.6245">visit(node: Input)
        </text>
        <ellipse cx="49" cy="489.1211" fill="#84BE84" rx="3" ry="3" style="stroke: #038048; stroke-width: 1.0;"/>
        <text fill="#000000" font-family="sans-serif" font-size="11" lengthAdjust="spacingAndGlyphs" textLength="102"
              x="58" y="491.4292">visit(node: AndGate)
        </text>
        <ellipse cx="49" cy="501.9258" fill="#84BE84" rx="3" ry="3" style="stroke: #038048; stroke-width: 1.0;"/>
        <text fill="#000000" font-family="sans-serif" font-size="11" lengthAdjust="spacingAndGlyphs" textLength="110"
              x="58" y="504.2339">visit(node: NAndGate)
        </text>
        <ellipse cx="49" cy="514.7305" fill="#84BE84" rx="3" ry="3" style="stroke: #038048; stroke-width: 1.0;"/>
        <text fill="#000000" font-family="sans-serif" font-size="11" lengthAdjust="spacingAndGlyphs" textLength="103"
              x="58" y="517.0386">visit(node: NOrGate)
        </text>
        <ellipse cx="49" cy="527.5352" fill="#84BE84" rx="3" ry="3" style="stroke: #038048; stroke-width: 1.0;"/>
        <text fill="#000000" font-family="sans-serif" font-size="11" lengthAdjust="spacingAndGlyphs" textLength="95"
              x="58" y="529.8433">visit(node: OrGate)
        </text>
        <ellipse cx="49" cy="540.3398" fill="#84BE84" rx="3" ry="3" style="stroke: #038048; stroke-width: 1.0;"/>
        <text fill="#000000" font-family="sans-serif" font-size="11" lengthAdjust="spacingAndGlyphs" textLength="102"
              x="58" y="542.6479">visit(node: XOrGate)
        </text><!--class NodeFactory-->
        <rect fill="#FEFECE" filter="url(#f1cwr2p5ujzyds)" height="105.1563" id="NodeFactory"
              style="stroke: #A80036; stroke-width: 1.5;" width="332" x="326" y="415"/>
        <ellipse cx="452.75" cy="433.9688" fill="#ADD1B2" rx="11" ry="11" style="stroke: #A80036; stroke-width: 1.0;"/>
        <path d="M455.2188,440.1094 Q454.6406,440.4063 454,440.5469 Q453.3594,440.7031 452.6563,440.7031 Q450.1563,440.7031 448.8281,439.0625 Q447.5156,437.4063 447.5156,434.2813 Q447.5156,431.1563 448.8281,429.5 Q450.1563,427.8438 452.6563,427.8438 Q453.3594,427.8438 454,428 Q454.6563,428.1563 455.2188,428.4531 L455.2188,431.1719 Q454.5938,430.5938 454,430.3281 Q453.4063,430.0469 452.7813,430.0469 Q451.4375,430.0469 450.75,431.125 Q450.0625,432.1875 450.0625,434.2813 Q450.0625,436.375 450.75,437.4531 Q451.4375,438.5156 452.7813,438.5156 Q453.4063,438.5156 454,438.25 Q454.5938,437.9688 455.2188,437.3906 L455.2188,440.1094 Z "/>
        <text fill="#000000" font-family="sans-serif" font-size="12" font-style="italic" lengthAdjust="spacingAndGlyphs"
              textLength="66" x="475.25" y="431.1387">«Singleton»
        </text>
        <text fill="#000000" font-family="sans-serif" font-size="12" lengthAdjust="spacingAndGlyphs" textLength="70"
              x="473.25" y="445.1074">NodeFactory
        </text>
        <line style="stroke: #A80036; stroke-width: 1.5;" x1="327" x2="657" y1="452.9375" y2="452.9375"/>
        <rect fill="none" height="6" style="stroke: #C82930; stroke-width: 1.0;" width="6" x="334" y="461.8398"/>
        <text fill="#000000" font-family="sans-serif" font-size="11" lengthAdjust="spacingAndGlyphs"
              text-decoration="underline" textLength="112" x="346" y="467.1479">instance: NodeFactory
        </text>
        <line style="stroke: #000000; stroke-width: 1.0;" x1="346" x2="458" y1="469.1479" y2="469.1479"/>
        <rect fill="none" height="6" style="stroke: #C82930; stroke-width: 1.0;" width="6" x="334" y="474.6445"/>
        <text fill="#000000" font-family="sans-serif" font-size="11" lengthAdjust="spacingAndGlyphs" textLength="157"
              x="346" y="479.9526">types: Map&lt;String, NodeType&gt;
        </text>
        <line style="stroke: #A80036; stroke-width: 1.5;" x1="327" x2="657" y1="486.5469" y2="486.5469"/>
        <ellipse cx="337" cy="498.4492" fill="#84BE84" rx="3" ry="3" style="stroke: #038048; stroke-width: 1.0;"/>
        <text fill="#000000" font-family="sans-serif" font-size="11" lengthAdjust="spacingAndGlyphs"
              text-decoration="underline" textLength="136" x="346" y="500.7573">getInstance(): NodeFactory
        </text>
        <line style="stroke: #000000; stroke-width: 1.0;" x1="346" x2="482" y1="502.7573" y2="502.7573"/>
        <ellipse cx="337" cy="511.2539" fill="#84BE84" rx="3" ry="3" style="stroke: #038048; stroke-width: 1.0;"/>
        <text fill="#000000" font-family="sans-serif" font-size="11" lengthAdjust="spacingAndGlyphs" textLength="306"
              x="346" y="513.562">createNode(nodeName: String, nodeTypeName: String): Node
        </text><!--class CircuitBuilderDirector-->
        <rect fill="#FEFECE" filter="url(#f1cwr2p5ujzyds)" height="73.6094" id="CircuitBuilderDirector"
              style="stroke: #A80036; stroke-width: 1.5;" width="258" x="363" y="59"/>
        <ellipse cx="428.75" cy="75" fill="#ADD1B2" rx="11" ry="11" style="stroke: #A80036; stroke-width: 1.0;"/>
        <path d="M431.2188,81.1406 Q430.6406,81.4375 430,81.5781 Q429.3594,81.7344 428.6563,81.7344 Q426.1563,81.7344 424.8281,80.0938 Q423.5156,78.4375 423.5156,75.3125 Q423.5156,72.1875 424.8281,70.5313 Q426.1563,68.875 428.6563,68.875 Q429.3594,68.875 430,69.0313 Q430.6563,69.1875 431.2188,69.4844 L431.2188,72.2031 Q430.5938,71.625 430,71.3594 Q429.4063,71.0781 428.7813,71.0781 Q427.4375,71.0781 426.75,72.1563 Q426.0625,73.2188 426.0625,75.3125 Q426.0625,77.4063 426.75,78.4844 Q427.4375,79.5469 428.7813,79.5469 Q429.4063,79.5469 430,79.2813 Q430.5938,79 431.2188,78.4219 L431.2188,81.1406 Z "/>
        <text fill="#000000" font-family="sans-serif" font-size="12" lengthAdjust="spacingAndGlyphs" textLength="118"
              x="449.25" y="79.1543">CircuitBuilderDirector
        </text>
        <line style="stroke: #A80036; stroke-width: 1.5;" x1="364" x2="620" y1="91" y2="91"/>
        <line style="stroke: #A80036; stroke-width: 1.5;" x1="364" x2="620" y1="99" y2="99"/>
        <ellipse cx="374" cy="110.9023" fill="#84BE84" rx="3" ry="3" style="stroke: #038048; stroke-width: 1.0;"/>
        <text fill="#000000" font-family="sans-serif" font-size="11" lengthAdjust="spacingAndGlyphs" textLength="232"
              x="383" y="113.2104">setCircuitBuilder(circuitBuilder: CircuitBuilder)
        </text>
        <ellipse cx="374" cy="123.707" fill="#84BE84" rx="3" ry="3" style="stroke: #038048; stroke-width: 1.0;"/>
        <text fill="#000000" font-family="sans-serif" font-size="11" lengthAdjust="spacingAndGlyphs" textLength="222"
              x="383" y="126.0151">construct(circuitDefinition: CircuitDefinition)
        </text><!--class NodeType-->
        <rect fill="#FEFECE" filter="url(#f1cwr2p5ujzyds)" height="188.8516" id="NodeType"
              style="stroke: #A80036; stroke-width: 1.5;" width="187" x="398.5" y="610"/>
        <ellipse cx="459.25" cy="626" fill="#EB937F" rx="11" ry="11" style="stroke: #A80036; stroke-width: 1.0;"/>
        <path d="M463.3594,632 L455.6406,632 L455.6406,619.6094 L463.3594,619.6094 L463.3594,621.7656 L458.0938,621.7656 L458.0938,624.4375 L462.8594,624.4375 L462.8594,626.5938 L458.0938,626.5938 L458.0938,629.8438 L463.3594,629.8438 L463.3594,632 Z "/>
        <text fill="#000000" font-family="sans-serif" font-size="12" lengthAdjust="spacingAndGlyphs" textLength="57"
              x="479.75" y="630.1543">NodeType
        </text>
        <line style="stroke: #A80036; stroke-width: 1.5;" x1="399.5" x2="584.5" y1="642" y2="642"/>
        <text fill="#000000" font-family="sans-serif" font-size="11" lengthAdjust="spacingAndGlyphs" textLength="63"
              x="404.5" y="656.2104">INPUT_HIGH
        </text>
        <text fill="#000000" font-family="sans-serif" font-size="11" lengthAdjust="spacingAndGlyphs" textLength="60"
              x="404.5" y="669.0151">INPUT_LOW
        </text>
        <text fill="#000000" font-family="sans-serif" font-size="11" lengthAdjust="spacingAndGlyphs" textLength="34"
              x="404.5" y="681.8198">PROBE
        </text>
        <text fill="#000000" font-family="sans-serif" font-size="11" lengthAdjust="spacingAndGlyphs" textLength="23"
              x="404.5" y="694.6245">AND
        </text>
        <text fill="#000000" font-family="sans-serif" font-size="11" lengthAdjust="spacingAndGlyphs" textLength="15"
              x="404.5" y="707.4292">OR
        </text>
        <text fill="#000000" font-family="sans-serif" font-size="11" lengthAdjust="spacingAndGlyphs" textLength="22"
              x="404.5" y="720.2339">NOT
        </text>
        <text fill="#000000" font-family="sans-serif" font-size="11" lengthAdjust="spacingAndGlyphs" textLength="23"
              x="404.5" y="733.0386">NOR
        </text>
        <text fill="#000000" font-family="sans-serif" font-size="11" lengthAdjust="spacingAndGlyphs" textLength="22"
              x="404.5" y="745.8433">XOR
        </text>
        <text fill="#000000" font-family="sans-serif" font-size="11" lengthAdjust="spacingAndGlyphs" textLength="31"
              x="404.5" y="758.6479">NAND
        </text>
        <line style="stroke: #A80036; stroke-width: 1.5;" x1="399.5" x2="584.5" y1="765.2422" y2="765.2422"/>
        <ellipse cx="409.5" cy="777.1445" fill="#84BE84" rx="3" ry="3" style="stroke: #038048; stroke-width: 1.0;"/>
        <text fill="#000000" font-family="sans-serif" font-size="11" lengthAdjust="spacingAndGlyphs" textLength="115"
              x="418.5" y="779.4526">NodeType(type: String)
        </text>
        <ellipse cx="409.5" cy="789.9492" fill="#84BE84" rx="3" ry="3" style="stroke: #038048; stroke-width: 1.0;"/>
        <text fill="#000000" font-family="sans-serif" font-size="11" font-style="italic" lengthAdjust="spacingAndGlyphs"
              textLength="161" x="418.5" y="792.2573">getInstance(name: String): Node
        </text><!--class INodeVisitor-->
        <rect fill="#FEFECE" filter="url(#f1cwr2p5ujzyds)" height="48" id="INodeVisitor"
              style="stroke: #A80036; stroke-width: 1.5;" width="99" x="66.5" y="235.5"/>
        <ellipse cx="81.5" cy="251.5" fill="#B4A7E5" rx="11" ry="11" style="stroke: #A80036; stroke-width: 1.0;"/>
        <path d="M77.9219,247.2656 L77.9219,245.1094 L85.3125,245.1094 L85.3125,247.2656 L82.8438,247.2656 L82.8438,255.3438 L85.3125,255.3438 L85.3125,257.5 L77.9219,257.5 L77.9219,255.3438 L80.3906,255.3438 L80.3906,247.2656 L77.9219,247.2656 Z "/>
        <text fill="#000000" font-family="sans-serif" font-size="12" font-style="italic" lengthAdjust="spacingAndGlyphs"
              textLength="67" x="95.5" y="255.6543">INodeVisitor
        </text>
        <line style="stroke: #A80036; stroke-width: 1.5;" x1="67.5" x2="164.5" y1="267.5" y2="267.5"/>
        <line style="stroke: #A80036; stroke-width: 1.5;" x1="67.5" x2="164.5" y1="275.5"
              y2="275.5"/><!--link CircuitBuilder to CircuitDefinition-->
        <path d="M590.53,309.06 C651.34,339.03 729.67,377.63 793.54,409.11 " fill="none"
              id="CircuitBuilder-CircuitDefinition" style="stroke: #A80036; stroke-width: 1.0;"/>
        <polygon fill="#A80036"
                 points="798.11,411.36,791.7909,403.8056,793.6208,409.1583,788.2682,410.9883,798.11,411.36"
                 style="stroke: #A80036; stroke-width: 1.0;"/>
        <rect fill="none" height="6" style="stroke: #C82930; stroke-width: 1.0;" width="6" x="678" y="345.0755"/>
        <text fill="#000000" font-family="sans-serif" font-size="13" lengthAdjust="spacingAndGlyphs" textLength="97"
              x="688" y="352.0814">circuitDefinition
        </text>
        <text fill="#000000" font-family="sans-serif" font-size="13" lengthAdjust="spacingAndGlyphs" textLength="8"
              x="775.2616" y="400.2957">1
        </text><!--link CircuitBuilder to Circuit-->
        <path d="M605.23,271.41 C767.96,288.9 1057.85,327.3 1144,386 C1162.62,398.69 1175.86,420.66 1184.18,438.45 "
              fill="none" id="CircuitBuilder-Circuit" style="stroke: #A80036; stroke-width: 1.0;"/>
        <polygon fill="#A80036"
                 points="1186.4,443.34,1186.3172,433.4915,1184.331,438.7882,1179.0343,436.8019,1186.4,443.34"
                 style="stroke: #A80036; stroke-width: 1.0;"/>
        <rect fill="none" height="6" style="stroke: #C82930; stroke-width: 1.0;" width="6" x="1074" y="345.0755"/>
        <text fill="#000000" font-family="sans-serif" font-size="13" lengthAdjust="spacingAndGlyphs" textLength="38"
              x="1084" y="352.0814">circuit
        </text>
        <text fill="#000000" font-family="sans-serif" font-size="13" lengthAdjust="spacingAndGlyphs" textLength="8"
              x="1175.1713" y="432.3279">1
        </text><!--link CircuitBuilder to Node-->
        <path d="M405.6,309.03 C372.94,329.99 336.95,356.49 309,386 C294.29,401.53 281.83,422.18 273.15,438.69 "
              fill="none" id="CircuitBuilder-Node" style="stroke: #A80036; stroke-width: 1.0;"/>
        <polygon fill="#A80036"
                 points="270.81,443.22,278.4842,437.0469,273.0974,438.7739,271.3704,433.3871,270.81,443.22"
                 style="stroke: #A80036; stroke-width: 1.0;"/>
        <rect fill="none" height="6" style="stroke: #C82930; stroke-width: 1.0;" width="6" x="361" y="345.0755"/>
        <text fill="#000000" font-family="sans-serif" font-size="13" lengthAdjust="spacingAndGlyphs" textLength="37"
              x="371" y="352.0814">nodes
        </text>
        <text fill="#000000" font-family="sans-serif" font-size="13" lengthAdjust="spacingAndGlyphs" textLength="22"
              x="248.7637" y="432.5734">0..*
        </text><!--link CircuitBuilder to NodeParentableVisitor-->
        <path d="M378.95,268.26 C317.27,277.43 242.59,297.09 188,339 C173.35,350.25 161.21,365.38 151.34,381.3 "
              fill="none" id="CircuitBuilder-NodeParentableVisitor" style="stroke: #A80036; stroke-width: 1.0;"/>
        <polygon fill="#A80036" points="148.62,385.8,156.6943,380.1603,151.203,381.5188,149.8444,376.0275,148.62,385.8"
                 style="stroke: #A80036; stroke-width: 1.0;"/>
        <rect fill="none" height="6" style="stroke: #C82930; stroke-width: 1.0;" width="6" x="191" y="345.0755"/>
        <text fill="#000000" font-family="sans-serif" font-size="13" lengthAdjust="spacingAndGlyphs" textLength="134"
              x="201" y="352.0814">nodeParentableVisitor
        </text>
        <text fill="#000000" font-family="sans-serif" font-size="13" lengthAdjust="spacingAndGlyphs" textLength="8"
              x="143.169" y="374.933">1
        </text><!--link CircuitBuilder to NodeFactory-->
        <path d="M492,309.06 C492,340.82 492,382.27 492,414.67 " fill="none" id="CircuitBuilder-NodeFactory"
              style="stroke: #A80036; stroke-width: 1.0;"/><!--link CircuitBuilderDirector to CircuitBuilder-->
        <path d="M492,133.24 C492,154.25 492,181.11 492,204.56 " fill="none" id="CircuitBuilderDirector-CircuitBuilder"
              style="stroke: #A80036; stroke-width: 1.0;"/>
        <polygon fill="#A80036" points="492,209.82,496,200.82,492,204.82,488,200.82,492,209.82"
                 style="stroke: #A80036; stroke-width: 1.0;"/>
        <rect fill="none" height="6" style="stroke: #C82930; stroke-width: 1.0;" width="6" x="495" y="169.0755"/>
        <text fill="#000000" font-family="sans-serif" font-size="13" lengthAdjust="spacingAndGlyphs" textLength="81"
              x="505" y="176.0814">circuitBuilder
        </text>
        <text fill="#000000" font-family="sans-serif" font-size="13" lengthAdjust="spacingAndGlyphs" textLength="8"
              x="483.4375" y="198.8557">1
        </text><!--link NodeFactory to NodeType-->
        <path d="M492,520.07 C492,546.42 492,579.3 492,609.92 " fill="none" id="NodeFactory-NodeType"
              style="stroke: #A80036; stroke-width: 1.0;"/><!--link INodeVisitor to NodeParentableVisitor-->
        <path d="M116,303.83 C116,327.55 116,357.72 116,385.61 " fill="none" id="INodeVisitor-NodeParentableVisitor"
              style="stroke: #A80036; stroke-width: 1.0; stroke-dasharray: 7.0,7.0;"/>
        <polygon fill="none" points="109,303.73,116,283.73,123,303.73,109,303.73"
                 style="stroke: #A80036; stroke-width: 1.0;"/><!--
@startuml

package building {
    class CircuitBuilder {
        +getCircuit(): Circuit
        +reset(circuitDefinition: CircuitDefinition)
        +buildNodes()
        +buildEdges()
    }
    CircuitBuilder - -> "1" CircuitDefinition : -circuitDefinition
    CircuitBuilder - -> "1" Circuit : -circuit
    CircuitBuilder - -> "0..*" Node : -nodes
    CircuitBuilder - -> "1" NodeParentableVisitor : -nodeParentableVisitor
    CircuitBuilder - - NodeFactory

    class CircuitBuilderDirector {
       +setCircuitBuilder(circuitBuilder: CircuitBuilder)
       +construct(circuitDefinition: CircuitDefinition)
    }
    CircuitBuilderDirector - -> "1" CircuitBuilder : -circuitBuilder

    class CircuitDefinition {
        -nodes: Map<String, String>
        -edges: Map<String, List<String>>

        +CircuitDefinition(nodes: Map<String, String>, edges: Map<String, List<String>>)
        +getNodes(): Map<String, String>
        +getEdges(): Map<String, List<String>>
    }

    class NodeFactory <<Singleton>> {
        -{static}instance: NodeFactory
        -types: Map<String, NodeType>

        +{static}getInstance(): NodeFactory
        +createNode(nodeName: String, nodeTypeName: String): Node
    }
    NodeFactory - - NodeType

    class NodeParentableVisitor implements INodeVisitor {
        +parentable: boolean

        +isParentable(): boolean
        +visit(node: Probe)
        +visit(node: Input)
        +visit(node: AndGate)
        +visit(node: NAndGate)
        +visit(node: NOrGate)
        +visit(node: OrGate)
        +visit(node: XOrGate)
    }

    enum NodeType {
        INPUT_HIGH
        INPUT_LOW
        PROBE
        AND
        OR
        NOT
        NOR
        XOR
        NAND

        +NodeType(type: String)
        +{abstract}getInstance(name: String): Node
    }
}

@enduml

PlantUML version 1.2018.12(Sun Oct 21 12:15:15 CEST 2018)
(GPL source distribution)
Java Runtime: OpenJDK Runtime Environment
JVM: OpenJDK 64-Bit Server VM
Java Version: 11.0.6+8-b520.43
Operating System: Linux
OS Version: 5.4.43-1-MANJARO
Default Encoding: UTF-8
Language: en
Country: US
-->
    </g>
</svg>