<?xml version="1.0" encoding="UTF-8" standalone="no"?><svg xmlns="http://www.w3.org/2000/svg" xmlns:xlink="http://www.w3.org/1999/xlink" contentScriptType="application/ecmascript" contentStyleType="text/css" height="956px" preserveAspectRatio="none" style="width:2031px;height:956px;" version="1.1" viewBox="0 0 2031 956" width="2031px" zoomAndPan="magnify"><defs><filter height="300%" id="f17cbnjauoiyq" width="300%" x="-1" y="-1"><feGaussianBlur result="blurOut" stdDeviation="2.0"/><feColorMatrix in="blurOut" result="blurOut2" type="matrix" values="0 0 0 0 0 0 0 0 0 0 0 0 0 0 0 0 0 0 .4 0"/><feOffset dx="4.0" dy="4.0" in="blurOut2" result="blurOut3"/><feBlend in="SourceGraphic" in2="blurOut3" mode="normal"/></filter></defs><g><!--cluster domain--><polygon fill="#FFFFFF" filter="url(#f17cbnjauoiyq)" points="22,24,83,24,90,46.2969,2009,46.2969,2009,944,22,944,22,24" style="stroke: #000000; stroke-width: 1.5;"/><line style="stroke: #000000; stroke-width: 1.5;" x1="22" x2="90" y1="46.2969" y2="46.2969"/><text fill="#000000" font-family="sans-serif" font-size="14" font-weight="bold" lengthAdjust="spacingAndGlyphs" textLength="55" x="26" y="38.9951">domain</text><!--class Node--><rect fill="#FEFECE" filter="url(#f17cbnjauoiyq)" height="201.6563" id="Node" style="stroke: #A80036; stroke-width: 1.5;" width="339" x="941.5" y="338"/><ellipse cx="1092.25" cy="354" fill="#A9DCDF" rx="11" ry="11" style="stroke: #A80036; stroke-width: 1.0;"/><path d="M1092.3594,349.0938 L1091.2031,354.1719 L1093.5313,354.1719 L1092.3594,349.0938 Z M1090.875,346.8594 L1093.8594,346.8594 L1097.2188,359.25 L1094.7656,359.25 L1094,356.1875 L1090.7188,356.1875 L1089.9688,359.25 L1087.5313,359.25 L1090.875,346.8594 Z "/><text fill="#000000" font-family="sans-serif" font-size="12" font-style="italic" lengthAdjust="spacingAndGlyphs" textLength="29" x="1112.75" y="358.1543">Node</text><line style="stroke: #A80036; stroke-width: 1.5;" x1="942.5" x2="1279.5" y1="370" y2="370"/><polygon fill="none" points="952.5,376.9023,956.5,380.9023,952.5,384.9023,948.5,380.9023" style="stroke: #B38D22; stroke-width: 1.0;"/><text fill="#000000" font-family="sans-serif" font-size="11" lengthAdjust="spacingAndGlyphs" textLength="72" x="961.5" y="384.2104">value: boolean</text><rect fill="none" height="6" style="stroke: #C82930; stroke-width: 1.0;" width="6" x="949.5" y="391.707"/><text fill="#000000" font-family="sans-serif" font-size="11" lengthAdjust="spacingAndGlyphs" textLength="63" x="961.5" y="397.0151">name: String</text><line style="stroke: #A80036; stroke-width: 1.5;" x1="942.5" x2="1279.5" y1="403.6094" y2="403.6094"/><ellipse cx="952.5" cy="415.5117" fill="#84BE84" rx="3" ry="3" style="stroke: #038048; stroke-width: 1.0;"/><text fill="#000000" font-family="sans-serif" font-size="11" lengthAdjust="spacingAndGlyphs" textLength="97" x="961.5" y="417.8198">Node(name: String)</text><ellipse cx="952.5" cy="428.3164" fill="#84BE84" rx="3" ry="3" style="stroke: #038048; stroke-width: 1.0;"/><text fill="#000000" font-family="sans-serif" font-size="11" lengthAdjust="spacingAndGlyphs" textLength="97" x="961.5" y="430.6245">getValue(): boolean</text><ellipse cx="952.5" cy="441.1211" fill="#84BE84" rx="3" ry="3" style="stroke: #038048; stroke-width: 1.0;"/><text fill="#000000" font-family="sans-serif" font-size="11" lengthAdjust="spacingAndGlyphs" textLength="89" x="961.5" y="443.4292">getName(): String</text><ellipse cx="952.5" cy="453.9258" fill="#84BE84" rx="3" ry="3" style="stroke: #038048; stroke-width: 1.0;"/><text fill="#000000" font-family="sans-serif" font-size="11" lengthAdjust="spacingAndGlyphs" textLength="142" x="961.5" y="456.2339">addToCircuit(circuit: Circuit)</text><ellipse cx="952.5" cy="466.7305" fill="#84BE84" rx="3" ry="3" style="stroke: #038048; stroke-width: 1.0;"/><text fill="#000000" font-family="sans-serif" font-size="11" lengthAdjust="spacingAndGlyphs" textLength="313" x="961.5" y="469.0386">addSimulationListener(simulationListener: ISimulationListener)</text><polygon fill="#FFFF44" points="952.5,474.5352,956.5,478.5352,952.5,482.5352,948.5,478.5352" style="stroke: #B38D22; stroke-width: 1.0;"/><text fill="#000000" font-family="sans-serif" font-size="11" lengthAdjust="spacingAndGlyphs" textLength="116" x="961.5" y="481.8433">notifyStartCalculation()</text><polygon fill="#FFFF44" points="952.5,487.3398,956.5,491.3398,952.5,495.3398,948.5,491.3398" style="stroke: #B38D22; stroke-width: 1.0;"/><text fill="#000000" font-family="sans-serif" font-size="11" lengthAdjust="spacingAndGlyphs" textLength="239" x="961.5" y="494.6479">notifyStopCalculation(calculatedValue: boolean)</text><text fill="#000000" font-family="sans-serif" font-size="11" lengthAdjust="spacingAndGlyphs" textLength="0" x="964.5" y="507.4526"/><ellipse cx="952.5" cy="517.9492" fill="#84BE84" rx="3" ry="3" style="stroke: #038048; stroke-width: 1.0;"/><text fill="#000000" font-family="sans-serif" font-size="11" font-style="italic" lengthAdjust="spacingAndGlyphs" textLength="99" x="961.5" y="520.2573">calculate(): boolean</text><ellipse cx="952.5" cy="530.7539" fill="#84BE84" rx="3" ry="3" style="stroke: #038048; stroke-width: 1.0;"/><text fill="#000000" font-family="sans-serif" font-size="11" font-style="italic" lengthAdjust="spacingAndGlyphs" textLength="165" x="961.5" y="533.062">accept(nodeVisitor: INodeVisitor)</text><!--class ISimulationListener--><rect fill="#FEFECE" filter="url(#f17cbnjauoiyq)" height="48" id="ISimulationListener" style="stroke: #A80036; stroke-width: 1.5;" width="138" x="896" y="662"/><ellipse cx="911" cy="678" fill="#ADD1B2" rx="11" ry="11" style="stroke: #A80036; stroke-width: 1.0;"/><path d="M913.4688,684.1406 Q912.8906,684.4375 912.25,684.5781 Q911.6094,684.7344 910.9063,684.7344 Q908.4063,684.7344 907.0781,683.0938 Q905.7656,681.4375 905.7656,678.3125 Q905.7656,675.1875 907.0781,673.5313 Q908.4063,671.875 910.9063,671.875 Q911.6094,671.875 912.25,672.0313 Q912.9063,672.1875 913.4688,672.4844 L913.4688,675.2031 Q912.8438,674.625 912.25,674.3594 Q911.6563,674.0781 911.0313,674.0781 Q909.6875,674.0781 909,675.1563 Q908.3125,676.2188 908.3125,678.3125 Q908.3125,680.4063 909,681.4844 Q909.6875,682.5469 911.0313,682.5469 Q911.6563,682.5469 912.25,682.2813 Q912.8438,682 913.4688,681.4219 L913.4688,684.1406 Z "/><text fill="#000000" font-family="sans-serif" font-size="12" lengthAdjust="spacingAndGlyphs" textLength="106" x="925" y="682.1543">ISimulationListener</text><line style="stroke: #A80036; stroke-width: 1.5;" x1="897" x2="1033" y1="694" y2="694"/><line style="stroke: #A80036; stroke-width: 1.5;" x1="897" x2="1033" y1="702" y2="702"/><!--class NodeComposite--><rect fill="#FEFECE" filter="url(#f17cbnjauoiyq)" height="137.6328" id="NodeComposite" style="stroke: #A80036; stroke-width: 1.5;" width="287" x="1069.5" y="617"/><ellipse cx="1164.25" cy="633" fill="#A9DCDF" rx="11" ry="11" style="stroke: #A80036; stroke-width: 1.0;"/><path d="M1164.3594,628.0938 L1163.2031,633.1719 L1165.5313,633.1719 L1164.3594,628.0938 Z M1162.875,625.8594 L1165.8594,625.8594 L1169.2188,638.25 L1166.7656,638.25 L1166,635.1875 L1162.7188,635.1875 L1161.9688,638.25 L1159.5313,638.25 L1162.875,625.8594 Z "/><text fill="#000000" font-family="sans-serif" font-size="12" font-style="italic" lengthAdjust="spacingAndGlyphs" textLength="89" x="1184.75" y="637.1543">NodeComposite</text><line style="stroke: #A80036; stroke-width: 1.5;" x1="1070.5" x2="1355.5" y1="649" y2="649"/><polygon fill="none" points="1080.5,655.9023,1084.5,659.9023,1080.5,663.9023,1076.5,659.9023" style="stroke: #B38D22; stroke-width: 1.0;"/><text fill="#000000" font-family="sans-serif" font-size="11" lengthAdjust="spacingAndGlyphs" textLength="105" x="1089.5" y="663.2104">parents: List&lt;Node&gt;</text><line style="stroke: #A80036; stroke-width: 1.5;" x1="1070.5" x2="1355.5" y1="669.8047" y2="669.8047"/><ellipse cx="1080.5" cy="681.707" fill="#84BE84" rx="3" ry="3" style="stroke: #038048; stroke-width: 1.0;"/><text fill="#000000" font-family="sans-serif" font-size="11" lengthAdjust="spacingAndGlyphs" textLength="261" x="1089.5" y="684.0151">NodeComposite(parents: List&lt;Node&gt;, name: String)</text><ellipse cx="1080.5" cy="694.5117" fill="#84BE84" rx="3" ry="3" style="stroke: #038048; stroke-width: 1.0;"/><text fill="#000000" font-family="sans-serif" font-size="11" lengthAdjust="spacingAndGlyphs" textLength="90" x="1089.5" y="696.8198">add(parent: Node)</text><ellipse cx="1080.5" cy="707.3164" fill="#84BE84" rx="3" ry="3" style="stroke: #038048; stroke-width: 1.0;"/><text fill="#000000" font-family="sans-serif" font-size="11" lengthAdjust="spacingAndGlyphs" textLength="110" x="1089.5" y="709.6245">remove(parent: Node)</text><ellipse cx="1080.5" cy="720.1211" fill="#84BE84" rx="3" ry="3" style="stroke: #038048; stroke-width: 1.0;"/><text fill="#000000" font-family="sans-serif" font-size="11" lengthAdjust="spacingAndGlyphs" textLength="129" x="1089.5" y="722.4292">getParents(): List&lt;Node&gt;</text><text fill="#000000" font-family="sans-serif" font-size="11" lengthAdjust="spacingAndGlyphs" textLength="0" x="1092.5" y="735.2339"/><ellipse cx="1080.5" cy="745.7305" fill="#84BE84" rx="3" ry="3" style="stroke: #038048; stroke-width: 1.0;"/><text fill="#000000" font-family="sans-serif" font-size="11" font-style="italic" lengthAdjust="spacingAndGlyphs" textLength="99" x="1089.5" y="748.0386">calculate(): boolean</text><!--class INodeVisitor--><rect fill="#FEFECE" filter="url(#f17cbnjauoiyq)" height="137.6328" id="INodeVisitor" style="stroke: #A80036; stroke-width: 1.5;" width="136" x="1681" y="91"/><ellipse cx="1712.65" cy="107" fill="#B4A7E5" rx="11" ry="11" style="stroke: #A80036; stroke-width: 1.0;"/><path d="M1709.0719,102.7656 L1709.0719,100.6094 L1716.4625,100.6094 L1716.4625,102.7656 L1713.9938,102.7656 L1713.9938,110.8438 L1716.4625,110.8438 L1716.4625,113 L1709.0719,113 L1709.0719,110.8438 L1711.5406,110.8438 L1711.5406,102.7656 L1709.0719,102.7656 Z "/><text fill="#000000" font-family="sans-serif" font-size="12" font-style="italic" lengthAdjust="spacingAndGlyphs" textLength="67" x="1730.35" y="111.1543">INodeVisitor</text><line style="stroke: #A80036; stroke-width: 1.5;" x1="1682" x2="1816" y1="123" y2="123"/><line style="stroke: #A80036; stroke-width: 1.5;" x1="1682" x2="1816" y1="131" y2="131"/><ellipse cx="1692" cy="142.9023" fill="#84BE84" rx="3" ry="3" style="stroke: #038048; stroke-width: 1.0;"/><text fill="#000000" font-family="sans-serif" font-size="11" lengthAdjust="spacingAndGlyphs" textLength="87" x="1701" y="145.2104">visit(node: Probe)</text><ellipse cx="1692" cy="155.707" fill="#84BE84" rx="3" ry="3" style="stroke: #038048; stroke-width: 1.0;"/><text fill="#000000" font-family="sans-serif" font-size="11" lengthAdjust="spacingAndGlyphs" textLength="84" x="1701" y="158.0151">visit(node: Input)</text><ellipse cx="1692" cy="168.5117" fill="#84BE84" rx="3" ry="3" style="stroke: #038048; stroke-width: 1.0;"/><text fill="#000000" font-family="sans-serif" font-size="11" lengthAdjust="spacingAndGlyphs" textLength="102" x="1701" y="170.8198">visit(node: AndGate)</text><ellipse cx="1692" cy="181.3164" fill="#84BE84" rx="3" ry="3" style="stroke: #038048; stroke-width: 1.0;"/><text fill="#000000" font-family="sans-serif" font-size="11" lengthAdjust="spacingAndGlyphs" textLength="110" x="1701" y="183.6245">visit(node: NAndGate)</text><ellipse cx="1692" cy="194.1211" fill="#84BE84" rx="3" ry="3" style="stroke: #038048; stroke-width: 1.0;"/><text fill="#000000" font-family="sans-serif" font-size="11" lengthAdjust="spacingAndGlyphs" textLength="103" x="1701" y="196.4292">visit(node: NOrGate)</text><ellipse cx="1692" cy="206.9258" fill="#84BE84" rx="3" ry="3" style="stroke: #038048; stroke-width: 1.0;"/><text fill="#000000" font-family="sans-serif" font-size="11" lengthAdjust="spacingAndGlyphs" textLength="95" x="1701" y="209.2339">visit(node: OrGate)</text><ellipse cx="1692" cy="219.7305" fill="#84BE84" rx="3" ry="3" style="stroke: #038048; stroke-width: 1.0;"/><text fill="#000000" font-family="sans-serif" font-size="11" lengthAdjust="spacingAndGlyphs" textLength="102" x="1701" y="222.0386">visit(node: XOrGate)</text><!--class Circuit--><rect fill="#FEFECE" filter="url(#f17cbnjauoiyq)" height="201.6563" id="Circuit" style="stroke: #A80036; stroke-width: 1.5;" width="417" x="902.5" y="59"/><ellipse cx="1089.25" cy="75" fill="#ADD1B2" rx="11" ry="11" style="stroke: #A80036; stroke-width: 1.0;"/><path d="M1091.7188,81.1406 Q1091.1406,81.4375 1090.5,81.5781 Q1089.8594,81.7344 1089.1563,81.7344 Q1086.6563,81.7344 1085.3281,80.0938 Q1084.0156,78.4375 1084.0156,75.3125 Q1084.0156,72.1875 1085.3281,70.5313 Q1086.6563,68.875 1089.1563,68.875 Q1089.8594,68.875 1090.5,69.0313 Q1091.1563,69.1875 1091.7188,69.4844 L1091.7188,72.2031 Q1091.0938,71.625 1090.5,71.3594 Q1089.9063,71.0781 1089.2813,71.0781 Q1087.9375,71.0781 1087.25,72.1563 Q1086.5625,73.2188 1086.5625,75.3125 Q1086.5625,77.4063 1087.25,78.4844 Q1087.9375,79.5469 1089.2813,79.5469 Q1089.9063,79.5469 1090.5,79.2813 Q1091.0938,79 1091.7188,78.4219 L1091.7188,81.1406 Z "/><text fill="#000000" font-family="sans-serif" font-size="12" lengthAdjust="spacingAndGlyphs" textLength="35" x="1109.75" y="79.1543">Circuit</text><line style="stroke: #A80036; stroke-width: 1.5;" x1="903.5" x2="1318.5" y1="91" y2="91"/><line style="stroke: #A80036; stroke-width: 1.5;" x1="903.5" x2="1318.5" y1="99" y2="99"/><ellipse cx="913.5" cy="110.9023" fill="#84BE84" rx="3" ry="3" style="stroke: #038048; stroke-width: 1.0;"/><text fill="#000000" font-family="sans-serif" font-size="11" lengthAdjust="spacingAndGlyphs" textLength="41" x="922.5" y="113.2104">Circuit()</text><ellipse cx="913.5" cy="123.707" fill="#84BE84" rx="3" ry="3" style="stroke: #038048; stroke-width: 1.0;"/><text fill="#000000" font-family="sans-serif" font-size="11" lengthAdjust="spacingAndGlyphs" textLength="108" x="922.5" y="126.0151">addNode(node: Node)</text><ellipse cx="913.5" cy="136.5117" fill="#84BE84" rx="3" ry="3" style="stroke: #038048; stroke-width: 1.0;"/><text fill="#000000" font-family="sans-serif" font-size="11" lengthAdjust="spacingAndGlyphs" textLength="106" x="922.5" y="138.8198">addInput(node: Input)</text><ellipse cx="913.5" cy="149.3164" fill="#84BE84" rx="3" ry="3" style="stroke: #038048; stroke-width: 1.0;"/><text fill="#000000" font-family="sans-serif" font-size="11" lengthAdjust="spacingAndGlyphs" textLength="112" x="922.5" y="151.6245">addProbe(node: Probe)</text><ellipse cx="913.5" cy="162.1211" fill="#84BE84" rx="3" ry="3" style="stroke: #038048; stroke-width: 1.0;"/><text fill="#000000" font-family="sans-serif" font-size="11" lengthAdjust="spacingAndGlyphs" textLength="121" x="922.5" y="164.4292">getNodes(): Set&lt;Node&gt;</text><ellipse cx="913.5" cy="174.9258" fill="#84BE84" rx="3" ry="3" style="stroke: #038048; stroke-width: 1.0;"/><text fill="#000000" font-family="sans-serif" font-size="11" lengthAdjust="spacingAndGlyphs" textLength="119" x="922.5" y="177.2339">getInputs(): Set&lt;Input&gt;</text><ellipse cx="913.5" cy="187.7305" fill="#84BE84" rx="3" ry="3" style="stroke: #038048; stroke-width: 1.0;"/><text fill="#000000" font-family="sans-serif" font-size="11" lengthAdjust="spacingAndGlyphs" textLength="112" x="922.5" y="190.0386">getInput(name: String)</text><ellipse cx="913.5" cy="200.5352" fill="#84BE84" rx="3" ry="3" style="stroke: #038048; stroke-width: 1.0;"/><text fill="#000000" font-family="sans-serif" font-size="11" lengthAdjust="spacingAndGlyphs" textLength="125" x="922.5" y="202.8433">getProbes(): Set&lt;Probe&gt;</text><ellipse cx="913.5" cy="213.3398" fill="#84BE84" rx="3" ry="3" style="stroke: #038048; stroke-width: 1.0;"/><text fill="#000000" font-family="sans-serif" font-size="11" lengthAdjust="spacingAndGlyphs" textLength="115" x="922.5" y="215.6479">getProbe(name: String)</text><ellipse cx="913.5" cy="226.1445" fill="#84BE84" rx="3" ry="3" style="stroke: #038048; stroke-width: 1.0;"/><text fill="#000000" font-family="sans-serif" font-size="11" lengthAdjust="spacingAndGlyphs" textLength="51" x="922.5" y="228.4526">simulate()</text><ellipse cx="913.5" cy="238.9492" fill="#84BE84" rx="3" ry="3" style="stroke: #038048; stroke-width: 1.0;"/><text fill="#000000" font-family="sans-serif" font-size="11" lengthAdjust="spacingAndGlyphs" textLength="313" x="922.5" y="241.2573">addSimulationListener(simulationListener: ISimulationListener)</text><ellipse cx="913.5" cy="251.7539" fill="#84BE84" rx="3" ry="3" style="stroke: #038048; stroke-width: 1.0;"/><text fill="#000000" font-family="sans-serif" font-size="11" lengthAdjust="spacingAndGlyphs" textLength="391" x="922.5" y="254.062">addSimulationListeners(simulationListeners: Collection&lt;ISimulationListener&gt;)</text><!--class Input--><rect fill="#FEFECE" filter="url(#f17cbnjauoiyq)" height="112.0234" id="Input" style="stroke: #A80036; stroke-width: 1.5;" width="200" x="661" y="630"/><ellipse cx="742.75" cy="646" fill="#ADD1B2" rx="11" ry="11" style="stroke: #A80036; stroke-width: 1.0;"/><path d="M745.2188,652.1406 Q744.6406,652.4375 744,652.5781 Q743.3594,652.7344 742.6563,652.7344 Q740.1563,652.7344 738.8281,651.0938 Q737.5156,649.4375 737.5156,646.3125 Q737.5156,643.1875 738.8281,641.5313 Q740.1563,639.875 742.6563,639.875 Q743.3594,639.875 744,640.0313 Q744.6563,640.1875 745.2188,640.4844 L745.2188,643.2031 Q744.5938,642.625 744,642.3594 Q743.4063,642.0781 742.7813,642.0781 Q741.4375,642.0781 740.75,643.1563 Q740.0625,644.2188 740.0625,646.3125 Q740.0625,648.4063 740.75,649.4844 Q741.4375,650.5469 742.7813,650.5469 Q743.4063,650.5469 744,650.2813 Q744.5938,650 745.2188,649.4219 L745.2188,652.1406 Z "/><text fill="#000000" font-family="sans-serif" font-size="12" lengthAdjust="spacingAndGlyphs" textLength="28" x="763.25" y="650.1543">Input</text><line style="stroke: #A80036; stroke-width: 1.5;" x1="662" x2="860" y1="662" y2="662"/><line style="stroke: #A80036; stroke-width: 1.5;" x1="662" x2="860" y1="670" y2="670"/><ellipse cx="672" cy="681.9023" fill="#84BE84" rx="3" ry="3" style="stroke: #038048; stroke-width: 1.0;"/><text fill="#000000" font-family="sans-serif" font-size="11" lengthAdjust="spacingAndGlyphs" textLength="174" x="681" y="684.2104">Input(value: boolean, name: String)</text><ellipse cx="672" cy="694.707" fill="#84BE84" rx="3" ry="3" style="stroke: #038048; stroke-width: 1.0;"/><text fill="#000000" font-family="sans-serif" font-size="11" lengthAdjust="spacingAndGlyphs" textLength="123" x="681" y="697.0151">setValue(value: boolean)</text><ellipse cx="672" cy="707.5117" fill="#84BE84" rx="3" ry="3" style="stroke: #038048; stroke-width: 1.0;"/><text fill="#000000" font-family="sans-serif" font-size="11" lengthAdjust="spacingAndGlyphs" textLength="99" x="681" y="709.8198">calculate(): boolean</text><ellipse cx="672" cy="720.3164" fill="#84BE84" rx="3" ry="3" style="stroke: #038048; stroke-width: 1.0;"/><text fill="#000000" font-family="sans-serif" font-size="11" lengthAdjust="spacingAndGlyphs" textLength="165" x="681" y="722.6245">accept(nodeVisitor: INodeVisitor)</text><ellipse cx="672" cy="733.1211" fill="#84BE84" rx="3" ry="3" style="stroke: #038048; stroke-width: 1.0;"/><text fill="#000000" font-family="sans-serif" font-size="11" lengthAdjust="spacingAndGlyphs" textLength="142" x="681" y="735.4292">addToCircuit(circuit: Circuit)</text><!--class Probe--><rect fill="#FEFECE" filter="url(#f17cbnjauoiyq)" height="112.0234" id="Probe" style="stroke: #A80036; stroke-width: 1.5;" width="236" x="1757" y="816"/><ellipse cx="1854.75" cy="832" fill="#ADD1B2" rx="11" ry="11" style="stroke: #A80036; stroke-width: 1.0;"/><path d="M1857.2188,838.1406 Q1856.6406,838.4375 1856,838.5781 Q1855.3594,838.7344 1854.6563,838.7344 Q1852.1563,838.7344 1850.8281,837.0938 Q1849.5156,835.4375 1849.5156,832.3125 Q1849.5156,829.1875 1850.8281,827.5313 Q1852.1563,825.875 1854.6563,825.875 Q1855.3594,825.875 1856,826.0313 Q1856.6563,826.1875 1857.2188,826.4844 L1857.2188,829.2031 Q1856.5938,828.625 1856,828.3594 Q1855.4063,828.0781 1854.7813,828.0781 Q1853.4375,828.0781 1852.75,829.1563 Q1852.0625,830.2188 1852.0625,832.3125 Q1852.0625,834.4063 1852.75,835.4844 Q1853.4375,836.5469 1854.7813,836.5469 Q1855.4063,836.5469 1856,836.2813 Q1856.5938,836 1857.2188,835.4219 L1857.2188,838.1406 Z "/><text fill="#000000" font-family="sans-serif" font-size="12" lengthAdjust="spacingAndGlyphs" textLength="32" x="1875.25" y="836.1543">Probe</text><line style="stroke: #A80036; stroke-width: 1.5;" x1="1758" x2="1992" y1="848" y2="848"/><line style="stroke: #A80036; stroke-width: 1.5;" x1="1758" x2="1992" y1="856" y2="856"/><ellipse cx="1768" cy="867.9023" fill="#84BE84" rx="3" ry="3" style="stroke: #038048; stroke-width: 1.0;"/><text fill="#000000" font-family="sans-serif" font-size="11" lengthAdjust="spacingAndGlyphs" textLength="99" x="1777" y="870.2104">Probe(name: String)</text><ellipse cx="1768" cy="880.707" fill="#84BE84" rx="3" ry="3" style="stroke: #038048; stroke-width: 1.0;"/><text fill="#000000" font-family="sans-serif" font-size="11" lengthAdjust="spacingAndGlyphs" textLength="210" x="1777" y="883.0151">Probe(parents: List&lt;Node&gt;, name: String)</text><ellipse cx="1768" cy="893.5117" fill="#84BE84" rx="3" ry="3" style="stroke: #038048; stroke-width: 1.0;"/><text fill="#000000" font-family="sans-serif" font-size="11" lengthAdjust="spacingAndGlyphs" textLength="99" x="1777" y="895.8198">calculate(): boolean</text><ellipse cx="1768" cy="906.3164" fill="#84BE84" rx="3" ry="3" style="stroke: #038048; stroke-width: 1.0;"/><text fill="#000000" font-family="sans-serif" font-size="11" lengthAdjust="spacingAndGlyphs" textLength="165" x="1777" y="908.6245">accept(nodeVisitor: INodeVisitor)</text><ellipse cx="1768" cy="919.1211" fill="#84BE84" rx="3" ry="3" style="stroke: #038048; stroke-width: 1.0;"/><text fill="#000000" font-family="sans-serif" font-size="11" lengthAdjust="spacingAndGlyphs" textLength="142" x="1777" y="921.4292">addToCircuit(circuit: Circuit)</text><!--class AndGate--><rect fill="#FEFECE" filter="url(#f17cbnjauoiyq)" height="99.2188" id="AndGate" style="stroke: #A80036; stroke-width: 1.5;" width="251" x="1470.5" y="822.5"/><ellipse cx="1567.25" cy="838.5" fill="#ADD1B2" rx="11" ry="11" style="stroke: #A80036; stroke-width: 1.0;"/><path d="M1569.7188,844.6406 Q1569.1406,844.9375 1568.5,845.0781 Q1567.8594,845.2344 1567.1563,845.2344 Q1564.6563,845.2344 1563.3281,843.5938 Q1562.0156,841.9375 1562.0156,838.8125 Q1562.0156,835.6875 1563.3281,834.0313 Q1564.6563,832.375 1567.1563,832.375 Q1567.8594,832.375 1568.5,832.5313 Q1569.1563,832.6875 1569.7188,832.9844 L1569.7188,835.7031 Q1569.0938,835.125 1568.5,834.8594 Q1567.9063,834.5781 1567.2813,834.5781 Q1565.9375,834.5781 1565.25,835.6563 Q1564.5625,836.7188 1564.5625,838.8125 Q1564.5625,840.9063 1565.25,841.9844 Q1565.9375,843.0469 1567.2813,843.0469 Q1567.9063,843.0469 1568.5,842.7813 Q1569.0938,842.5 1569.7188,841.9219 L1569.7188,844.6406 Z "/><text fill="#000000" font-family="sans-serif" font-size="12" lengthAdjust="spacingAndGlyphs" textLength="49" x="1587.75" y="842.6543">AndGate</text><line style="stroke: #A80036; stroke-width: 1.5;" x1="1471.5" x2="1720.5" y1="854.5" y2="854.5"/><line style="stroke: #A80036; stroke-width: 1.5;" x1="1471.5" x2="1720.5" y1="862.5" y2="862.5"/><ellipse cx="1481.5" cy="874.4023" fill="#84BE84" rx="3" ry="3" style="stroke: #038048; stroke-width: 1.0;"/><text fill="#000000" font-family="sans-serif" font-size="11" lengthAdjust="spacingAndGlyphs" textLength="114" x="1490.5" y="876.7104">AndGate(name: String)</text><ellipse cx="1481.5" cy="887.207" fill="#84BE84" rx="3" ry="3" style="stroke: #038048; stroke-width: 1.0;"/><text fill="#000000" font-family="sans-serif" font-size="11" lengthAdjust="spacingAndGlyphs" textLength="225" x="1490.5" y="889.5151">AndGate(parents: List&lt;Node&gt;, name: String)</text><ellipse cx="1481.5" cy="900.0117" fill="#84BE84" rx="3" ry="3" style="stroke: #038048; stroke-width: 1.0;"/><text fill="#000000" font-family="sans-serif" font-size="11" lengthAdjust="spacingAndGlyphs" textLength="99" x="1490.5" y="902.3198">calculate(): boolean</text><ellipse cx="1481.5" cy="912.8164" fill="#84BE84" rx="3" ry="3" style="stroke: #038048; stroke-width: 1.0;"/><text fill="#000000" font-family="sans-serif" font-size="11" lengthAdjust="spacingAndGlyphs" textLength="165" x="1490.5" y="915.1245">accept(nodeVisitor: INodeVisitor)</text><!--class NAndGate--><rect fill="#FEFECE" filter="url(#f17cbnjauoiyq)" height="99.2188" id="NAndGate" style="stroke: #A80036; stroke-width: 1.5;" width="259" x="38.5" y="822.5"/><ellipse cx="135.25" cy="838.5" fill="#ADD1B2" rx="11" ry="11" style="stroke: #A80036; stroke-width: 1.0;"/><path d="M137.7188,844.6406 Q137.1406,844.9375 136.5,845.0781 Q135.8594,845.2344 135.1563,845.2344 Q132.6563,845.2344 131.3281,843.5938 Q130.0156,841.9375 130.0156,838.8125 Q130.0156,835.6875 131.3281,834.0313 Q132.6563,832.375 135.1563,832.375 Q135.8594,832.375 136.5,832.5313 Q137.1563,832.6875 137.7188,832.9844 L137.7188,835.7031 Q137.0938,835.125 136.5,834.8594 Q135.9063,834.5781 135.2813,834.5781 Q133.9375,834.5781 133.25,835.6563 Q132.5625,836.7188 132.5625,838.8125 Q132.5625,840.9063 133.25,841.9844 Q133.9375,843.0469 135.2813,843.0469 Q135.9063,843.0469 136.5,842.7813 Q137.0938,842.5 137.7188,841.9219 L137.7188,844.6406 Z "/><text fill="#000000" font-family="sans-serif" font-size="12" lengthAdjust="spacingAndGlyphs" textLength="57" x="155.75" y="842.6543">NAndGate</text><line style="stroke: #A80036; stroke-width: 1.5;" x1="39.5" x2="296.5" y1="854.5" y2="854.5"/><line style="stroke: #A80036; stroke-width: 1.5;" x1="39.5" x2="296.5" y1="862.5" y2="862.5"/><ellipse cx="49.5" cy="874.4023" fill="#84BE84" rx="3" ry="3" style="stroke: #038048; stroke-width: 1.0;"/><text fill="#000000" font-family="sans-serif" font-size="11" lengthAdjust="spacingAndGlyphs" textLength="122" x="58.5" y="876.7104">NAndGate(name: String)</text><ellipse cx="49.5" cy="887.207" fill="#84BE84" rx="3" ry="3" style="stroke: #038048; stroke-width: 1.0;"/><text fill="#000000" font-family="sans-serif" font-size="11" lengthAdjust="spacingAndGlyphs" textLength="233" x="58.5" y="889.5151">NAndGate(parents: List&lt;Node&gt;, name: String)</text><ellipse cx="49.5" cy="900.0117" fill="#84BE84" rx="3" ry="3" style="stroke: #038048; stroke-width: 1.0;"/><text fill="#000000" font-family="sans-serif" font-size="11" lengthAdjust="spacingAndGlyphs" textLength="99" x="58.5" y="902.3198">calculate(): boolean</text><ellipse cx="49.5" cy="912.8164" fill="#84BE84" rx="3" ry="3" style="stroke: #038048; stroke-width: 1.0;"/><text fill="#000000" font-family="sans-serif" font-size="11" lengthAdjust="spacingAndGlyphs" textLength="165" x="58.5" y="915.1245">accept(nodeVisitor: INodeVisitor)</text><!--class NOrGate--><rect fill="#FEFECE" filter="url(#f17cbnjauoiyq)" height="99.2188" id="NOrGate" style="stroke: #A80036; stroke-width: 1.5;" width="252" x="333" y="822.5"/><ellipse cx="430.75" cy="838.5" fill="#ADD1B2" rx="11" ry="11" style="stroke: #A80036; stroke-width: 1.0;"/><path d="M433.2188,844.6406 Q432.6406,844.9375 432,845.0781 Q431.3594,845.2344 430.6563,845.2344 Q428.1563,845.2344 426.8281,843.5938 Q425.5156,841.9375 425.5156,838.8125 Q425.5156,835.6875 426.8281,834.0313 Q428.1563,832.375 430.6563,832.375 Q431.3594,832.375 432,832.5313 Q432.6563,832.6875 433.2188,832.9844 L433.2188,835.7031 Q432.5938,835.125 432,834.8594 Q431.4063,834.5781 430.7813,834.5781 Q429.4375,834.5781 428.75,835.6563 Q428.0625,836.7188 428.0625,838.8125 Q428.0625,840.9063 428.75,841.9844 Q429.4375,843.0469 430.7813,843.0469 Q431.4063,843.0469 432,842.7813 Q432.5938,842.5 433.2188,841.9219 L433.2188,844.6406 Z "/><text fill="#000000" font-family="sans-serif" font-size="12" lengthAdjust="spacingAndGlyphs" textLength="48" x="451.25" y="842.6543">NOrGate</text><line style="stroke: #A80036; stroke-width: 1.5;" x1="334" x2="584" y1="854.5" y2="854.5"/><line style="stroke: #A80036; stroke-width: 1.5;" x1="334" x2="584" y1="862.5" y2="862.5"/><ellipse cx="344" cy="874.4023" fill="#84BE84" rx="3" ry="3" style="stroke: #038048; stroke-width: 1.0;"/><text fill="#000000" font-family="sans-serif" font-size="11" lengthAdjust="spacingAndGlyphs" textLength="115" x="353" y="876.7104">NOrGate(name: String)</text><ellipse cx="344" cy="887.207" fill="#84BE84" rx="3" ry="3" style="stroke: #038048; stroke-width: 1.0;"/><text fill="#000000" font-family="sans-serif" font-size="11" lengthAdjust="spacingAndGlyphs" textLength="226" x="353" y="889.5151">NOrGate(parents: List&lt;Node&gt;, name: String)</text><ellipse cx="344" cy="900.0117" fill="#84BE84" rx="3" ry="3" style="stroke: #038048; stroke-width: 1.0;"/><text fill="#000000" font-family="sans-serif" font-size="11" lengthAdjust="spacingAndGlyphs" textLength="99" x="353" y="902.3198">calculate(): boolean</text><ellipse cx="344" cy="912.8164" fill="#84BE84" rx="3" ry="3" style="stroke: #038048; stroke-width: 1.0;"/><text fill="#000000" font-family="sans-serif" font-size="11" lengthAdjust="spacingAndGlyphs" textLength="165" x="353" y="915.1245">accept(nodeVisitor: INodeVisitor)</text><!--class NotGate--><rect fill="#FEFECE" filter="url(#f17cbnjauoiyq)" height="99.2188" id="NotGate" style="stroke: #A80036; stroke-width: 1.5;" width="250" x="620" y="822.5"/><ellipse cx="717.75" cy="838.5" fill="#ADD1B2" rx="11" ry="11" style="stroke: #A80036; stroke-width: 1.0;"/><path d="M720.2188,844.6406 Q719.6406,844.9375 719,845.0781 Q718.3594,845.2344 717.6563,845.2344 Q715.1563,845.2344 713.8281,843.5938 Q712.5156,841.9375 712.5156,838.8125 Q712.5156,835.6875 713.8281,834.0313 Q715.1563,832.375 717.6563,832.375 Q718.3594,832.375 719,832.5313 Q719.6563,832.6875 720.2188,832.9844 L720.2188,835.7031 Q719.5938,835.125 719,834.8594 Q718.4063,834.5781 717.7813,834.5781 Q716.4375,834.5781 715.75,835.6563 Q715.0625,836.7188 715.0625,838.8125 Q715.0625,840.9063 715.75,841.9844 Q716.4375,843.0469 717.7813,843.0469 Q718.4063,843.0469 719,842.7813 Q719.5938,842.5 720.2188,841.9219 L720.2188,844.6406 Z "/><text fill="#000000" font-family="sans-serif" font-size="12" lengthAdjust="spacingAndGlyphs" textLength="46" x="738.25" y="842.6543">NotGate</text><line style="stroke: #A80036; stroke-width: 1.5;" x1="621" x2="869" y1="854.5" y2="854.5"/><line style="stroke: #A80036; stroke-width: 1.5;" x1="621" x2="869" y1="862.5" y2="862.5"/><ellipse cx="631" cy="874.4023" fill="#84BE84" rx="3" ry="3" style="stroke: #038048; stroke-width: 1.0;"/><text fill="#000000" font-family="sans-serif" font-size="11" lengthAdjust="spacingAndGlyphs" textLength="113" x="640" y="876.7104">NotGate(name: String)</text><ellipse cx="631" cy="887.207" fill="#84BE84" rx="3" ry="3" style="stroke: #038048; stroke-width: 1.0;"/><text fill="#000000" font-family="sans-serif" font-size="11" lengthAdjust="spacingAndGlyphs" textLength="224" x="640" y="889.5151">NotGate(parents: List&lt;Node&gt;, name: String)</text><ellipse cx="631" cy="900.0117" fill="#84BE84" rx="3" ry="3" style="stroke: #038048; stroke-width: 1.0;"/><text fill="#000000" font-family="sans-serif" font-size="11" lengthAdjust="spacingAndGlyphs" textLength="99" x="640" y="902.3198">calculate(): boolean</text><ellipse cx="631" cy="912.8164" fill="#84BE84" rx="3" ry="3" style="stroke: #038048; stroke-width: 1.0;"/><text fill="#000000" font-family="sans-serif" font-size="11" lengthAdjust="spacingAndGlyphs" textLength="165" x="640" y="915.1245">accept(nodeVisitor: INodeVisitor)</text><!--class OrGate--><rect fill="#FEFECE" filter="url(#f17cbnjauoiyq)" height="99.2188" id="OrGate" style="stroke: #A80036; stroke-width: 1.5;" width="244" x="905" y="822.5"/><ellipse cx="1002.75" cy="838.5" fill="#ADD1B2" rx="11" ry="11" style="stroke: #A80036; stroke-width: 1.0;"/><path d="M1005.2188,844.6406 Q1004.6406,844.9375 1004,845.0781 Q1003.3594,845.2344 1002.6563,845.2344 Q1000.1563,845.2344 998.8281,843.5938 Q997.5156,841.9375 997.5156,838.8125 Q997.5156,835.6875 998.8281,834.0313 Q1000.1563,832.375 1002.6563,832.375 Q1003.3594,832.375 1004,832.5313 Q1004.6563,832.6875 1005.2188,832.9844 L1005.2188,835.7031 Q1004.5938,835.125 1004,834.8594 Q1003.4063,834.5781 1002.7813,834.5781 Q1001.4375,834.5781 1000.75,835.6563 Q1000.0625,836.7188 1000.0625,838.8125 Q1000.0625,840.9063 1000.75,841.9844 Q1001.4375,843.0469 1002.7813,843.0469 Q1003.4063,843.0469 1004,842.7813 Q1004.5938,842.5 1005.2188,841.9219 L1005.2188,844.6406 Z "/><text fill="#000000" font-family="sans-serif" font-size="12" lengthAdjust="spacingAndGlyphs" textLength="40" x="1023.25" y="842.6543">OrGate</text><line style="stroke: #A80036; stroke-width: 1.5;" x1="906" x2="1148" y1="854.5" y2="854.5"/><line style="stroke: #A80036; stroke-width: 1.5;" x1="906" x2="1148" y1="862.5" y2="862.5"/><ellipse cx="916" cy="874.4023" fill="#84BE84" rx="3" ry="3" style="stroke: #038048; stroke-width: 1.0;"/><text fill="#000000" font-family="sans-serif" font-size="11" lengthAdjust="spacingAndGlyphs" textLength="107" x="925" y="876.7104">OrGate(name: String)</text><ellipse cx="916" cy="887.207" fill="#84BE84" rx="3" ry="3" style="stroke: #038048; stroke-width: 1.0;"/><text fill="#000000" font-family="sans-serif" font-size="11" lengthAdjust="spacingAndGlyphs" textLength="218" x="925" y="889.5151">OrGate(parents: List&lt;Node&gt;, name: String)</text><ellipse cx="916" cy="900.0117" fill="#84BE84" rx="3" ry="3" style="stroke: #038048; stroke-width: 1.0;"/><text fill="#000000" font-family="sans-serif" font-size="11" lengthAdjust="spacingAndGlyphs" textLength="99" x="925" y="902.3198">calculate(): boolean</text><ellipse cx="916" cy="912.8164" fill="#84BE84" rx="3" ry="3" style="stroke: #038048; stroke-width: 1.0;"/><text fill="#000000" font-family="sans-serif" font-size="11" lengthAdjust="spacingAndGlyphs" textLength="165" x="925" y="915.1245">accept(nodeVisitor: INodeVisitor)</text><!--class XOrGate--><rect fill="#FEFECE" filter="url(#f17cbnjauoiyq)" height="99.2188" id="XOrGate" style="stroke: #A80036; stroke-width: 1.5;" width="251" x="1184.5" y="822.5"/><ellipse cx="1281.75" cy="838.5" fill="#ADD1B2" rx="11" ry="11" style="stroke: #A80036; stroke-width: 1.0;"/><path d="M1284.2188,844.6406 Q1283.6406,844.9375 1283,845.0781 Q1282.3594,845.2344 1281.6563,845.2344 Q1279.1563,845.2344 1277.8281,843.5938 Q1276.5156,841.9375 1276.5156,838.8125 Q1276.5156,835.6875 1277.8281,834.0313 Q1279.1563,832.375 1281.6563,832.375 Q1282.3594,832.375 1283,832.5313 Q1283.6563,832.6875 1284.2188,832.9844 L1284.2188,835.7031 Q1283.5938,835.125 1283,834.8594 Q1282.4063,834.5781 1281.7813,834.5781 Q1280.4375,834.5781 1279.75,835.6563 Q1279.0625,836.7188 1279.0625,838.8125 Q1279.0625,840.9063 1279.75,841.9844 Q1280.4375,843.0469 1281.7813,843.0469 Q1282.4063,843.0469 1283,842.7813 Q1283.5938,842.5 1284.2188,841.9219 L1284.2188,844.6406 Z "/><text fill="#000000" font-family="sans-serif" font-size="12" lengthAdjust="spacingAndGlyphs" textLength="48" x="1302.25" y="842.6543">XOrGate</text><line style="stroke: #A80036; stroke-width: 1.5;" x1="1185.5" x2="1434.5" y1="854.5" y2="854.5"/><line style="stroke: #A80036; stroke-width: 1.5;" x1="1185.5" x2="1434.5" y1="862.5" y2="862.5"/><ellipse cx="1195.5" cy="874.4023" fill="#84BE84" rx="3" ry="3" style="stroke: #038048; stroke-width: 1.0;"/><text fill="#000000" font-family="sans-serif" font-size="11" lengthAdjust="spacingAndGlyphs" textLength="114" x="1204.5" y="876.7104">XOrGate(name: String)</text><ellipse cx="1195.5" cy="887.207" fill="#84BE84" rx="3" ry="3" style="stroke: #038048; stroke-width: 1.0;"/><text fill="#000000" font-family="sans-serif" font-size="11" lengthAdjust="spacingAndGlyphs" textLength="225" x="1204.5" y="889.5151">XOrGate(parents: List&lt;Node&gt;, name: String)</text><ellipse cx="1195.5" cy="900.0117" fill="#84BE84" rx="3" ry="3" style="stroke: #038048; stroke-width: 1.0;"/><text fill="#000000" font-family="sans-serif" font-size="11" lengthAdjust="spacingAndGlyphs" textLength="99" x="1204.5" y="902.3198">calculate(): boolean</text><ellipse cx="1195.5" cy="912.8164" fill="#84BE84" rx="3" ry="3" style="stroke: #038048; stroke-width: 1.0;"/><text fill="#000000" font-family="sans-serif" font-size="11" lengthAdjust="spacingAndGlyphs" textLength="165" x="1204.5" y="915.1245">accept(nodeVisitor: INodeVisitor)</text><!--link Node to ISimulationListener--><path d="M1007.51,540.33 C1000.59,549.9 994.29,559.84 989,570 C974.76,597.36 968.97,632.53 966.62,656.74 " fill="none" id="Node-ISimulationListener" style="stroke: #A80036; stroke-width: 1.0;"/><polygon fill="#A80036" points="966.16,661.73,970.9651,653.1328,966.6165,656.7509,962.9985,652.4024,966.16,661.73" style="stroke: #A80036; stroke-width: 1.0;"/><rect fill="none" height="6" style="stroke: #C82930; stroke-width: 1.0;" width="6" x="992" y="576.0755"/><text fill="#000000" font-family="sans-serif" font-size="13" lengthAdjust="spacingAndGlyphs" textLength="118" x="1002" y="583.0814">simulationListeners</text><text fill="#000000" font-family="sans-serif" font-size="13" lengthAdjust="spacingAndGlyphs" textLength="22" x="941.7615" y="651.0859">0..*</text><!--link Node to NodeComposite--><path d="M1199.28,558.29 C1200.99,562.17 1202.57,566.08 1204,570 C1209.35,584.68 1212.27,601.08 1213.76,616.81 " fill="none" id="Node-NodeComposite" style="stroke: #A80036; stroke-width: 1.0;"/><polygon fill="none" points="1192.99,561.36,1190.4,540.33,1205.54,555.15,1192.99,561.36" style="stroke: #A80036; stroke-width: 1.0;"/><!--link NodeComposite to Node--><path d="M1151.88,616.9 C1145.4,607.32 1139.54,597.24 1135,587 C1129.17,573.83 1124.73,559.43 1121.37,544.96 " fill="none" id="NodeComposite-Node" style="stroke: #A80036; stroke-width: 1.0;"/><polygon fill="#A80036" points="1120.27,540.06,1118.3506,549.72,1121.3713,544.9372,1126.1541,547.9579,1120.27,540.06" style="stroke: #A80036; stroke-width: 1.0;"/><polygon fill="none" points="1141,574.0755,1145,578.0755,1141,582.0755,1137,578.0755" style="stroke: #B38D22; stroke-width: 1.0;"/><text fill="#000000" font-family="sans-serif" font-size="13" lengthAdjust="spacingAndGlyphs" textLength="47" x="1148" y="583.0814">parents</text><text fill="#000000" font-family="sans-serif" font-size="13" lengthAdjust="spacingAndGlyphs" textLength="0" x="1145.3708" y="606.1087"/><text fill="#000000" font-family="sans-serif" font-size="13" lengthAdjust="spacingAndGlyphs" textLength="22" x="1098.1484" y="559.7919">1..*</text><!--link Circuit to Node--><path d="M1111,261 C1111,284.2 1111,308.96 1111,332.39 " fill="none" id="Circuit-Node" style="stroke: #A80036; stroke-width: 1.0;"/><polygon fill="#A80036" points="1111,337.68,1115,328.68,1111,332.68,1107,328.68,1111,337.68" style="stroke: #A80036; stroke-width: 1.0;"/><rect fill="none" height="6" style="stroke: #C82930; stroke-width: 1.0;" width="6" x="1114" y="297.0755"/><text fill="#000000" font-family="sans-serif" font-size="13" lengthAdjust="spacingAndGlyphs" textLength="37" x="1124" y="304.0814">nodes</text><text fill="#000000" font-family="sans-serif" font-size="13" lengthAdjust="spacingAndGlyphs" textLength="0" x="1110.8594" y="280.7277"/><text fill="#000000" font-family="sans-serif" font-size="13" lengthAdjust="spacingAndGlyphs" textLength="22" x="1088.1922" y="326.7881">0..*</text><!--link Circuit to Input--><path d="M946.4,261.23 C918.69,283.78 892.37,309.56 872,338 C809.06,425.88 780.69,551.07 768.78,624.59 " fill="none" id="Circuit-Input" style="stroke: #A80036; stroke-width: 1.0;"/><polygon fill="#A80036" points="767.95,629.79,773.3133,621.5296,768.7349,624.852,765.4125,620.2736,767.95,629.79" style="stroke: #A80036; stroke-width: 1.0;"/><rect fill="none" height="6" style="stroke: #C82930; stroke-width: 1.0;" width="6" x="875" y="436.5755"/><text fill="#000000" font-family="sans-serif" font-size="13" lengthAdjust="spacingAndGlyphs" textLength="38" x="885" y="443.5814">inputs</text><text fill="#000000" font-family="sans-serif" font-size="13" lengthAdjust="spacingAndGlyphs" textLength="0" x="935.2066" y="280.6333"/><text fill="#000000" font-family="sans-serif" font-size="13" lengthAdjust="spacingAndGlyphs" textLength="22" x="745.4564" y="619.1145">0..*</text><!--link Circuit to Probe--><path d="M1218.84,261.22 C1380.75,411.68 1681.52,691.2 1811.95,812.41 " fill="none" id="Circuit-Probe" style="stroke: #A80036; stroke-width: 1.0;"/><polygon fill="#A80036" points="1815.76,815.95,1811.8745,806.9,1812.0915,812.5527,1806.4388,812.7696,1815.76,815.95" style="stroke: #A80036; stroke-width: 1.0;"/><rect fill="none" height="6" style="stroke: #C82930; stroke-width: 1.0;" width="6" x="1571" y="576.0755"/><text fill="#000000" font-family="sans-serif" font-size="13" lengthAdjust="spacingAndGlyphs" textLength="42" x="1581" y="583.0814">probes</text><text fill="#000000" font-family="sans-serif" font-size="13" lengthAdjust="spacingAndGlyphs" textLength="0" x="1225.9511" y="280.6226"/><text fill="#000000" font-family="sans-serif" font-size="13" lengthAdjust="spacingAndGlyphs" textLength="22" x="1784.7605" y="804.8972">0..*</text><!--link Node to Input--><path d="M951.58,551.59 C912.76,578.77 872.91,606.67 839.74,629.88 " fill="none" id="Node-Input" style="stroke: #A80036; stroke-width: 1.0;"/><polygon fill="none" points="947.74,545.74,968.14,540,955.77,557.21,947.74,545.74" style="stroke: #A80036; stroke-width: 1.0;"/><!--link NodeComposite to Probe--><path d="M1373.15,762.39 C1397.17,771.53 1421.95,779.81 1446,786 C1572.77,818.63 1611.95,784.48 1739,816 C1744.93,817.47 1750.95,819.15 1756.98,820.99 " fill="none" id="NodeComposite-Probe" style="stroke: #A80036; stroke-width: 1.0;"/><polygon fill="none" points="1370.57,768.89,1354.52,755.07,1375.69,755.86,1370.57,768.89" style="stroke: #A80036; stroke-width: 1.0;"/><!--link NodeComposite to AndGate--><path d="M1366.42,763.88 C1381.79,771.41 1397.18,778.89 1412,786 C1436.91,797.95 1463.84,810.56 1489.21,822.3 " fill="none" id="NodeComposite-AndGate" style="stroke: #A80036; stroke-width: 1.0;"/><polygon fill="none" points="1363.28,770.13,1348.42,755.03,1369.46,757.57,1363.28,770.13" style="stroke: #A80036; stroke-width: 1.0;"/><!--link NodeComposite to NAndGate--><path d="M1049.86,754.68 C863.67,793.28 470.56,781.56 316,816 C307.84,817.82 299.52,819.98 291.2,822.39 " fill="none" id="NodeComposite-NAndGate" style="stroke: #A80036; stroke-width: 1.0;"/><polygon fill="none" points="1048.32,747.86,1069.37,750.26,1051.41,761.51,1048.32,747.86" style="stroke: #A80036; stroke-width: 1.0;"/><!--link NodeComposite to NOrGate--><path d="M1049.88,755.05 C853.91,805.66 792.03,767.74 603,816 C595.48,817.92 587.82,820.11 580.14,822.49 " fill="none" id="NodeComposite-NOrGate" style="stroke: #A80036; stroke-width: 1.0;"/><polygon fill="none" points="1048.14,748.27,1069.27,749.87,1051.75,761.8,1048.14,748.27" style="stroke: #A80036; stroke-width: 1.0;"/><!--link NodeComposite to NotGate--><path d="M1050.37,755.55 C976.6,784.53 955.34,790.53 888,816 C882.15,818.21 876.18,820.48 870.14,822.78 " fill="none" id="NodeComposite-NotGate" style="stroke: #A80036; stroke-width: 1.0;"/><polygon fill="none" points="1048,748.96,1069.17,748.11,1053.15,761.98,1048,748.96" style="stroke: #A80036; stroke-width: 1.0;"/><!--link NodeComposite to OrGate--><path d="M1129.53,769.58 C1111.27,787.63 1092.53,806.18 1076.14,822.39 " fill="none" id="NodeComposite-OrGate" style="stroke: #A80036; stroke-width: 1.0;"/><polygon fill="none" points="1124.86,764.34,1144,755.25,1134.71,774.3,1124.86,764.34" style="stroke: #A80036; stroke-width: 1.0;"/><!--link NodeComposite to XOrGate--><path d="M1258.37,773.07 C1267.3,790.01 1276.38,807.22 1284.37,822.39 " fill="none" id="NodeComposite-XOrGate" style="stroke: #A80036; stroke-width: 1.0;"/><polygon fill="none" points="1252.12,776.21,1248.98,755.25,1264.5,769.68,1252.12,776.21" style="stroke: #A80036; stroke-width: 1.0;"/><!--
@startuml

package domain {
    abstract class Node {
        #value: boolean
        -name: String

        +Node(name: String)
        +getValue(): boolean
        +getName(): String
        +addToCircuit(circuit: Circuit)
        +addSimulationListener(simulationListener: ISimulationListener)
        #notifyStartCalculation()
        #notifyStopCalculation(calculatedValue: boolean)

        +{abstract}calculate(): boolean
        +{abstract}accept(nodeVisitor: INodeVisitor)
    }
    Node - -> "0..*" ISimulationListener : -simulationListeners

    abstract class NodeComposite extends Node {
        #parents: List<Node>

        +NodeComposite(parents: List<Node>, name: String)
        +add(parent: Node)
        +remove(parent: Node)
        +getParents(): List<Node>

        +{abstract}calculate(): boolean
    }
    NodeComposite " " - -> "1..*" Node : #parents

    interface INodeVisitor {
        +visit(node: Probe)
        +visit(node: Input)
        +visit(node: AndGate)
        +visit(node: NAndGate)
        +visit(node: NOrGate)
        +visit(node: OrGate)
        +visit(node: XOrGate)
    }

    class Circuit {
        +Circuit()
        +addNode(node: Node)
        +addInput(node: Input)
        +addProbe(node: Probe)
        +getNodes(): Set<Node>
        +getInputs(): Set<Input>
        +getInput(name: String)
        +getProbes(): Set<Probe>
        +getProbe(name: String)
        +simulate()
        +addSimulationListener(simulationListener: ISimulationListener)
        +addSimulationListeners(simulationListeners: Collection<ISimulationListener>)
    }
    Circuit " " - -> "0..*" Node : -nodes
    Circuit " " - -> "0..*" Input : -inputs
    Circuit " " - -> "0..*" Probe : -probes

    class Input extends Node {
        +Input(value: boolean, name: String)
        +setValue(value: boolean)
        +calculate(): boolean
        +accept(nodeVisitor: INodeVisitor)
        +addToCircuit(circuit: Circuit)
    }

    class Probe extends NodeComposite {
        +Probe(name: String)
        +Probe(parents: List<Node>, name: String)
        +calculate(): boolean
        +accept(nodeVisitor: INodeVisitor)
        +addToCircuit(circuit: Circuit)
    }

    class AndGate extends NodeComposite {
        +AndGate(name: String)
        +AndGate(parents: List<Node>, name: String)
        +calculate(): boolean
        +accept(nodeVisitor: INodeVisitor)
    }

    class NAndGate extends NodeComposite {
        +NAndGate(name: String)
        +NAndGate(parents: List<Node>, name: String)
        +calculate(): boolean
        +accept(nodeVisitor: INodeVisitor)
    }

    class NOrGate extends NodeComposite {
        +NOrGate(name: String)
        +NOrGate(parents: List<Node>, name: String)
        +calculate(): boolean
        +accept(nodeVisitor: INodeVisitor)
    }

    class NotGate extends NodeComposite {
        +NotGate(name: String)
        +NotGate(parents: List<Node>, name: String)
        +calculate(): boolean
        +accept(nodeVisitor: INodeVisitor)
    }

    class OrGate extends NodeComposite {
        +OrGate(name: String)
        +OrGate(parents: List<Node>, name: String)
        +calculate(): boolean
        +accept(nodeVisitor: INodeVisitor)
    }

    class XOrGate extends NodeComposite {
        +XOrGate(name: String)
        +XOrGate(parents: List<Node>, name: String)
        +calculate(): boolean
        +accept(nodeVisitor: INodeVisitor)
    }
}

@enduml

PlantUML version 1.2018.12(Sun Oct 21 12:15:15 CEST 2018)
(GPL source distribution)
Java Runtime: OpenJDK Runtime Environment
JVM: OpenJDK 64-Bit Server VM
Java Version: 11.0.6+8-b520.43
Operating System: Linux
OS Version: 5.4.43-1-MANJARO
Default Encoding: UTF-8
Language: en
Country: US
--></g></svg>