<?xml version="1.0" encoding="UTF-8" standalone="no"?><svg xmlns="http://www.w3.org/2000/svg" xmlns:xlink="http://www.w3.org/1999/xlink" contentScriptType="application/ecmascript" contentStyleType="text/css" height="459px" preserveAspectRatio="none" style="width:1382px;height:459px;" version="1.1" viewBox="0 0 1382 459" width="1382px" zoomAndPan="magnify"><defs><filter height="300%" id="f1sldtg7bopitc" width="300%" x="-1" y="-1"><feGaussianBlur result="blurOut" stdDeviation="2.0"/><feColorMatrix in="blurOut" result="blurOut2" type="matrix" values="0 0 0 0 0 0 0 0 0 0 0 0 0 0 0 0 0 0 .4 0"/><feOffset dx="4.0" dy="4.0" in="blurOut2" result="blurOut3"/><feBlend in="SourceGraphic" in2="blurOut3" mode="normal"/></filter></defs><g><!--cluster parsing--><polygon fill="#FFFFFF" filter="url(#f1sldtg7bopitc)" points="22,24,84,24,91,46.2969,1360,46.2969,1360,447,22,447,22,24" style="stroke: #000000; stroke-width: 1.5;"/><line style="stroke: #000000; stroke-width: 1.5;" x1="22" x2="91" y1="46.2969" y2="46.2969"/><text fill="#000000" font-family="sans-serif" font-size="14" font-weight="bold" lengthAdjust="spacingAndGlyphs" textLength="56" x="26" y="38.9951">parsing</text><!--class ANTLRErrorListener--><rect fill="#FEFECE" filter="url(#f1sldtg7bopitc)" height="53.9375" id="ANTLRErrorListener" style="stroke: #A80036; stroke-width: 1.5;" width="151" x="1072.5" y="62.5"/><ellipse cx="1087.5" cy="81.4688" fill="#ADD1B2" rx="11" ry="11" style="stroke: #A80036; stroke-width: 1.0;"/><path d="M1089.9688,87.6094 Q1089.3906,87.9063 1088.75,88.0469 Q1088.1094,88.2031 1087.4063,88.2031 Q1084.9063,88.2031 1083.5781,86.5625 Q1082.2656,84.9063 1082.2656,81.7813 Q1082.2656,78.6563 1083.5781,77 Q1084.9063,75.3438 1087.4063,75.3438 Q1088.1094,75.3438 1088.75,75.5 Q1089.4063,75.6563 1089.9688,75.9531 L1089.9688,78.6719 Q1089.3438,78.0938 1088.75,77.8281 Q1088.1563,77.5469 1087.5313,77.5469 Q1086.1875,77.5469 1085.5,78.625 Q1084.8125,79.6875 1084.8125,81.7813 Q1084.8125,83.875 1085.5,84.9531 Q1086.1875,86.0156 1087.5313,86.0156 Q1088.1563,86.0156 1088.75,85.75 Q1089.3438,85.4688 1089.9688,84.8906 L1089.9688,87.6094 Z "/><text fill="#000000" font-family="sans-serif" font-size="12" font-style="italic" lengthAdjust="spacingAndGlyphs" textLength="123" x="1099.5" y="78.6387">«org.antlr.v4.runtime»</text><text fill="#000000" font-family="sans-serif" font-size="12" lengthAdjust="spacingAndGlyphs" textLength="107" x="1107.5" y="92.6074">ANTLRErrorListener</text><line style="stroke: #A80036; stroke-width: 1.5;" x1="1073.5" x2="1222.5" y1="100.4375" y2="100.4375"/><line style="stroke: #A80036; stroke-width: 1.5;" x1="1073.5" x2="1222.5" y1="108.4375" y2="108.4375"/><!--class DP1CircuitBaseVisitor--><rect fill="#FEFECE" filter="url(#f1sldtg7bopitc)" height="53.9375" id="DP1CircuitBaseVisitor" style="stroke: #A80036; stroke-width: 1.5;" width="153" x="621.5" y="62.5"/><ellipse cx="636.5" cy="81.4688" fill="#A9DCDF" rx="11" ry="11" style="stroke: #A80036; stroke-width: 1.0;"/><path d="M636.6094,76.5625 L635.4531,81.6406 L637.7813,81.6406 L636.6094,76.5625 Z M635.125,74.3281 L638.1094,74.3281 L641.4688,86.7188 L639.0156,86.7188 L638.25,83.6563 L634.9688,83.6563 L634.2188,86.7188 L631.7813,86.7188 L635.125,74.3281 Z "/><text fill="#000000" font-family="sans-serif" font-size="12" font-style="italic" lengthAdjust="spacingAndGlyphs" textLength="71" x="675.5" y="78.6387">«generated»</text><text fill="#000000" font-family="sans-serif" font-size="12" font-style="italic" lengthAdjust="spacingAndGlyphs" textLength="121" x="650.5" y="92.6074">DP1CircuitBaseVisitor</text><line style="stroke: #A80036; stroke-width: 1.5;" x1="622.5" x2="773.5" y1="100.4375" y2="100.4375"/><line style="stroke: #A80036; stroke-width: 1.5;" x1="622.5" x2="773.5" y1="108.4375" y2="108.4375"/><!--class ANTLRCircuitParser--><rect fill="#FEFECE" filter="url(#f1sldtg7bopitc)" height="73.6094" id="ANTLRCircuitParser" style="stroke: #A80036; stroke-width: 1.5;" width="405" x="38.5" y="206.5"/><ellipse cx="183.25" cy="222.5" fill="#ADD1B2" rx="11" ry="11" style="stroke: #A80036; stroke-width: 1.0;"/><path d="M185.7188,228.6406 Q185.1406,228.9375 184.5,229.0781 Q183.8594,229.2344 183.1563,229.2344 Q180.6563,229.2344 179.3281,227.5938 Q178.0156,225.9375 178.0156,222.8125 Q178.0156,219.6875 179.3281,218.0313 Q180.6563,216.375 183.1563,216.375 Q183.8594,216.375 184.5,216.5313 Q185.1563,216.6875 185.7188,216.9844 L185.7188,219.7031 Q185.0938,219.125 184.5,218.8594 Q183.9063,218.5781 183.2813,218.5781 Q181.9375,218.5781 181.25,219.6563 Q180.5625,220.7188 180.5625,222.8125 Q180.5625,224.9063 181.25,225.9844 Q181.9375,227.0469 183.2813,227.0469 Q183.9063,227.0469 184.5,226.7813 Q185.0938,226.5 185.7188,225.9219 L185.7188,228.6406 Z "/><text fill="#000000" font-family="sans-serif" font-size="12" lengthAdjust="spacingAndGlyphs" textLength="107" x="203.75" y="226.6543">ANTLRCircuitParser</text><line style="stroke: #A80036; stroke-width: 1.5;" x1="39.5" x2="442.5" y1="238.5" y2="238.5"/><line style="stroke: #A80036; stroke-width: 1.5;" x1="39.5" x2="442.5" y1="246.5" y2="246.5"/><ellipse cx="49.5" cy="258.4023" fill="#84BE84" rx="3" ry="3" style="stroke: #038048; stroke-width: 1.0;"/><text fill="#000000" font-family="sans-serif" font-size="11" lengthAdjust="spacingAndGlyphs" textLength="214" x="58.5" y="260.7104">parse(cleantedTxtCircuit): CircuitDefinition</text><rect fill="#F24D5C" height="6" style="stroke: #C82930; stroke-width: 1.0;" width="6" x="46.5" y="268.207"/><text fill="#000000" font-family="sans-serif" font-size="11" lengthAdjust="spacingAndGlyphs" textLength="379" x="58.5" y="273.5151">convertParseTreeToCircuitDefinition(parseTree: ParseTree): CircuitDefinition</text><!--class ICircuitParser--><rect fill="#FEFECE" filter="url(#f1sldtg7bopitc)" height="60.8047" id="ICircuitParser" style="stroke: #A80036; stroke-width: 1.5;" width="271" x="105.5" y="59"/><ellipse cx="200.25" cy="75" fill="#B4A7E5" rx="11" ry="11" style="stroke: #A80036; stroke-width: 1.0;"/><path d="M196.6719,70.7656 L196.6719,68.6094 L204.0625,68.6094 L204.0625,70.7656 L201.5938,70.7656 L201.5938,78.8438 L204.0625,78.8438 L204.0625,81 L196.6719,81 L196.6719,78.8438 L199.1406,78.8438 L199.1406,70.7656 L196.6719,70.7656 Z "/><text fill="#000000" font-family="sans-serif" font-size="12" font-style="italic" lengthAdjust="spacingAndGlyphs" textLength="73" x="220.75" y="79.1543">ICircuitParser</text><line style="stroke: #A80036; stroke-width: 1.5;" x1="106.5" x2="375.5" y1="91" y2="91"/><line style="stroke: #A80036; stroke-width: 1.5;" x1="106.5" x2="375.5" y1="99" y2="99"/><ellipse cx="116.5" cy="110.9023" fill="#84BE84" rx="3" ry="3" style="stroke: #038048; stroke-width: 1.0;"/><text fill="#000000" font-family="sans-serif" font-size="11" lengthAdjust="spacingAndGlyphs" textLength="245" x="125.5" y="113.2104">parse(cleanedTxtCircuit: String): CircuitDefinition</text><!--class ANTLRParserErrorListener--><rect fill="#FEFECE" filter="url(#f1sldtg7bopitc)" height="86.4141" id="ANTLRParserErrorListener" style="stroke: #A80036; stroke-width: 1.5;" width="391" x="952.5" y="200.5"/><ellipse cx="1072.75" cy="216.5" fill="#ADD1B2" rx="11" ry="11" style="stroke: #A80036; stroke-width: 1.0;"/><path d="M1075.2188,222.6406 Q1074.6406,222.9375 1074,223.0781 Q1073.3594,223.2344 1072.6563,223.2344 Q1070.1563,223.2344 1068.8281,221.5938 Q1067.5156,219.9375 1067.5156,216.8125 Q1067.5156,213.6875 1068.8281,212.0313 Q1070.1563,210.375 1072.6563,210.375 Q1073.3594,210.375 1074,210.5313 Q1074.6563,210.6875 1075.2188,210.9844 L1075.2188,213.7031 Q1074.5938,213.125 1074,212.8594 Q1073.4063,212.5781 1072.7813,212.5781 Q1071.4375,212.5781 1070.75,213.6563 Q1070.0625,214.7188 1070.0625,216.8125 Q1070.0625,218.9063 1070.75,219.9844 Q1071.4375,221.0469 1072.7813,221.0469 Q1073.4063,221.0469 1074,220.7813 Q1074.5938,220.5 1075.2188,219.9219 L1075.2188,222.6406 Z "/><text fill="#000000" font-family="sans-serif" font-size="12" lengthAdjust="spacingAndGlyphs" textLength="142" x="1093.25" y="220.6543">ANTLRParserErrorListener</text><line style="stroke: #A80036; stroke-width: 1.5;" x1="953.5" x2="1342.5" y1="232.5" y2="232.5"/><rect fill="none" height="6" style="stroke: #C82930; stroke-width: 1.0;" width="6" x="960.5" y="241.4023"/><text fill="#000000" font-family="sans-serif" font-size="11" lengthAdjust="spacingAndGlyphs" textLength="110" x="972.5" y="246.7104">syntaxErrorsCount: int</text><line style="stroke: #A80036; stroke-width: 1.5;" x1="953.5" x2="1342.5" y1="253.3047" y2="253.3047"/><ellipse cx="963.5" cy="265.207" fill="#84BE84" rx="3" ry="3" style="stroke: #038048; stroke-width: 1.0;"/><text fill="#000000" font-family="sans-serif" font-size="11" lengthAdjust="spacingAndGlyphs" textLength="133" x="972.5" y="267.5151">hasSyntaxErrors(): boolean</text><ellipse cx="963.5" cy="278.0117" fill="#84BE84" rx="3" ry="3" style="stroke: #038048; stroke-width: 1.0;"/><text fill="#000000" font-family="sans-serif" font-size="11" lengthAdjust="spacingAndGlyphs" textLength="365" x="972.5" y="280.3198">syntaxError(recognizer, offendingSymbol, line, charPositionInLine, msg, e)</text><!--class ANTLRVisitor--><rect fill="#FEFECE" filter="url(#f1sldtg7bopitc)" height="124.8281" id="ANTLRVisitor" style="stroke: #A80036; stroke-width: 1.5;" width="439" x="478.5" y="181"/><ellipse cx="657.75" cy="197" fill="#ADD1B2" rx="11" ry="11" style="stroke: #A80036; stroke-width: 1.0;"/><path d="M660.2188,203.1406 Q659.6406,203.4375 659,203.5781 Q658.3594,203.7344 657.6563,203.7344 Q655.1563,203.7344 653.8281,202.0938 Q652.5156,200.4375 652.5156,197.3125 Q652.5156,194.1875 653.8281,192.5313 Q655.1563,190.875 657.6563,190.875 Q658.3594,190.875 659,191.0313 Q659.6563,191.1875 660.2188,191.4844 L660.2188,194.2031 Q659.5938,193.625 659,193.3594 Q658.4063,193.0781 657.7813,193.0781 Q656.4375,193.0781 655.75,194.1563 Q655.0625,195.2188 655.0625,197.3125 Q655.0625,199.4063 655.75,200.4844 Q656.4375,201.5469 657.7813,201.5469 Q658.4063,201.5469 659,201.2813 Q659.5938,201 660.2188,200.4219 L660.2188,203.1406 Z "/><text fill="#000000" font-family="sans-serif" font-size="12" lengthAdjust="spacingAndGlyphs" textLength="72" x="678.25" y="201.1543">ANTLRVisitor</text><line style="stroke: #A80036; stroke-width: 1.5;" x1="479.5" x2="916.5" y1="213" y2="213"/><rect fill="none" height="6" style="stroke: #C82930; stroke-width: 1.0;" width="6" x="486.5" y="221.9023"/><text fill="#000000" font-family="sans-serif" font-size="11" lengthAdjust="spacingAndGlyphs" textLength="138" x="498.5" y="227.2104">nodes: Map&lt;String, String&gt;</text><rect fill="none" height="6" style="stroke: #C82930; stroke-width: 1.0;" width="6" x="486.5" y="234.707"/><text fill="#000000" font-family="sans-serif" font-size="11" lengthAdjust="spacingAndGlyphs" textLength="174" x="498.5" y="240.0151">edges: Map&lt;String, List&lt;String&gt;&gt;</text><line style="stroke: #A80036; stroke-width: 1.5;" x1="479.5" x2="916.5" y1="246.6094" y2="246.6094"/><ellipse cx="489.5" cy="258.5117" fill="#84BE84" rx="3" ry="3" style="stroke: #038048; stroke-width: 1.0;"/><text fill="#000000" font-family="sans-serif" font-size="11" lengthAdjust="spacingAndGlyphs" textLength="74" x="498.5" y="260.8198">ANTLRVisitor()</text><ellipse cx="489.5" cy="271.3164" fill="#84BE84" rx="3" ry="3" style="stroke: #038048; stroke-width: 1.0;"/><text fill="#000000" font-family="sans-serif" font-size="11" lengthAdjust="spacingAndGlyphs" textLength="104" x="498.5" y="273.6245">visit(tree: ParseTree)</text><ellipse cx="489.5" cy="284.1211" fill="#84BE84" rx="3" ry="3" style="stroke: #038048; stroke-width: 1.0;"/><text fill="#000000" font-family="sans-serif" font-size="11" lengthAdjust="spacingAndGlyphs" textLength="413" x="498.5" y="286.4292">visitNodeDefinition(ctx: DP1CircuitParser.NodeDefinitionContext): CircuitDefinition</text><ellipse cx="489.5" cy="296.9258" fill="#84BE84" rx="3" ry="3" style="stroke: #038048; stroke-width: 1.0;"/><text fill="#000000" font-family="sans-serif" font-size="11" lengthAdjust="spacingAndGlyphs" textLength="409" x="498.5" y="299.2339">visitEdgeDefinition(ctx: DP1CircuitParser.EdgeDefinitionContext): CircuitDefinition</text><!--class CircuitDefinition--><rect fill="#FEFECE" filter="url(#f1sldtg7bopitc)" height="48" id="CircuitDefinition" style="stroke: #A80036; stroke-width: 1.5;" width="121" x="637.5" y="383"/><ellipse cx="652.5" cy="399" fill="#ADD1B2" rx="11" ry="11" style="stroke: #A80036; stroke-width: 1.0;"/><path d="M654.9688,405.1406 Q654.3906,405.4375 653.75,405.5781 Q653.1094,405.7344 652.4063,405.7344 Q649.9063,405.7344 648.5781,404.0938 Q647.2656,402.4375 647.2656,399.3125 Q647.2656,396.1875 648.5781,394.5313 Q649.9063,392.875 652.4063,392.875 Q653.1094,392.875 653.75,393.0313 Q654.4063,393.1875 654.9688,393.4844 L654.9688,396.2031 Q654.3438,395.625 653.75,395.3594 Q653.1563,395.0781 652.5313,395.0781 Q651.1875,395.0781 650.5,396.1563 Q649.8125,397.2188 649.8125,399.3125 Q649.8125,401.4063 650.5,402.4844 Q651.1875,403.5469 652.5313,403.5469 Q653.1563,403.5469 653.75,403.2813 Q654.3438,403 654.9688,402.4219 L654.9688,405.1406 Z "/><text fill="#000000" font-family="sans-serif" font-size="12" lengthAdjust="spacingAndGlyphs" textLength="89" x="666.5" y="403.1543">CircuitDefinition</text><line style="stroke: #A80036; stroke-width: 1.5;" x1="638.5" x2="757.5" y1="415" y2="415"/><line style="stroke: #A80036; stroke-width: 1.5;" x1="638.5" x2="757.5" y1="423" y2="423"/><!--link ICircuitParser to ANTLRCircuitParser--><path d="M241,140.38 C241,161.96 241,186.73 241,206.48 " fill="none" id="ICircuitParser-ANTLRCircuitParser" style="stroke: #A80036; stroke-width: 1.0; stroke-dasharray: 7.0,7.0;"/><polygon fill="none" points="234,140.17,241,120.17,248,140.17,234,140.17" style="stroke: #A80036; stroke-width: 1.0;"/><!--link ANTLRErrorListener to ANTLRParserErrorListener--><path d="M1148,136.93 C1148,157.15 1148,180.68 1148,200.38 " fill="none" id="ANTLRErrorListener-ANTLRParserErrorListener" style="stroke: #A80036; stroke-width: 1.0; stroke-dasharray: 7.0,7.0;"/><polygon fill="none" points="1141,136.63,1148,116.63,1155,136.63,1141,136.63" style="stroke: #A80036; stroke-width: 1.0;"/><!--link DP1CircuitBaseVisitor to ANTLRVisitor--><path d="M698,136.79 C698,150.64 698,166.06 698,180.74 " fill="none" id="DP1CircuitBaseVisitor-ANTLRVisitor" style="stroke: #A80036; stroke-width: 1.0;"/><polygon fill="none" points="691,136.63,698,116.63,705,136.63,691,136.63" style="stroke: #A80036; stroke-width: 1.0;"/><!--link ANTLRVisitor to CircuitDefinition--><path d="M698,306.02 C698,330.73 698,357.99 698,377.8 " fill="none" id="ANTLRVisitor-CircuitDefinition" style="stroke: #A80036; stroke-width: 1.0;"/><polygon fill="#A80036" points="698,382.92,702,373.92,698,377.92,694,373.92,698,382.92" style="stroke: #A80036; stroke-width: 1.0;"/><rect fill="none" height="6" style="stroke: #C82930; stroke-width: 1.0;" width="6" x="701" y="342.0755"/><text fill="#000000" font-family="sans-serif" font-size="13" lengthAdjust="spacingAndGlyphs" textLength="97" x="711" y="349.0814">circuitDefinition</text><text fill="#000000" font-family="sans-serif" font-size="13" lengthAdjust="spacingAndGlyphs" textLength="8" x="688.975" y="371.9284">1</text><!--
@startuml

package parsing {
    class ANTLRErrorListener <<org.antlr.v4.runtime>>
    abstract class DP1CircuitBaseVisitor <<generated>>

    class ANTLRCircuitParser implements ICircuitParser {
        +parse(cleantedTxtCircuit): CircuitDefinition
        -convertParseTreeToCircuitDefinition(parseTree: ParseTree): CircuitDefinition
    }

    class ANTLRParserErrorListener implements ANTLRErrorListener {
        -syntaxErrorsCount: int

        +hasSyntaxErrors(): boolean
        +syntaxError(recognizer, offendingSymbol, line, charPositionInLine, msg, e)
    }

    class ANTLRVisitor extends DP1CircuitBaseVisitor {
        -nodes: Map<String, String>
        -edges: Map<String, List<String>>

        +ANTLRVisitor()
        +visit(tree: ParseTree)
        +visitNodeDefinition(ctx: DP1CircuitParser.NodeDefinitionContext): CircuitDefinition
        +visitEdgeDefinition(ctx: DP1CircuitParser.EdgeDefinitionContext): CircuitDefinition
    }
    ANTLRVisitor - -> "1" CircuitDefinition : -circuitDefinition

    interface ICircuitParser {
        +parse(cleanedTxtCircuit: String): CircuitDefinition
    }
}

@enduml

PlantUML version 1.2018.12(Sun Oct 21 12:15:15 CEST 2018)
(GPL source distribution)
Java Runtime: OpenJDK Runtime Environment
JVM: OpenJDK 64-Bit Server VM
Java Version: 11.0.6+8-b520.43
Operating System: Linux
OS Version: 5.4.43-1-MANJARO
Default Encoding: UTF-8
Language: en
Country: US
--></g></svg>