<?xml version="1.0" encoding="UTF-8" standalone="no"?><svg xmlns="http://www.w3.org/2000/svg" xmlns:xlink="http://www.w3.org/1999/xlink" contentScriptType="application/ecmascript" contentStyleType="text/css" height="298px" preserveAspectRatio="none" style="width:735px;height:298px;" version="1.1" viewBox="0 0 735 298" width="735px" zoomAndPan="magnify"><defs><filter height="300%" id="fdf7yr17h9pzr" width="300%" x="-1" y="-1"><feGaussianBlur result="blurOut" stdDeviation="2.0"/><feColorMatrix in="blurOut" result="blurOut2" type="matrix" values="0 0 0 0 0 0 0 0 0 0 0 0 0 0 0 0 0 0 .4 0"/><feOffset dx="4.0" dy="4.0" in="blurOut2" result="blurOut3"/><feBlend in="SourceGraphic" in2="blurOut3" mode="normal"/></filter></defs><g><!--cluster validation--><polygon fill="#FFFFFF" filter="url(#fdf7yr17h9pzr)" points="22,24,101,24,108,46.2969,713,46.2969,713,286,22,286,22,24" style="stroke: #000000; stroke-width: 1.5;"/><line style="stroke: #000000; stroke-width: 1.5;" x1="22" x2="108" y1="46.2969" y2="46.2969"/><text fill="#000000" font-family="sans-serif" font-size="14" font-weight="bold" lengthAdjust="spacingAndGlyphs" textLength="73" x="26" y="38.9951">validation</text><!--class CircuitInfiniteLoopValidator--><rect fill="#FEFECE" filter="url(#fdf7yr17h9pzr)" height="86.4141" id="CircuitInfiniteLoopValidator" style="stroke: #A80036; stroke-width: 1.5;" width="356" x="341" y="59"/><ellipse cx="439.75" cy="75" fill="#ADD1B2" rx="11" ry="11" style="stroke: #A80036; stroke-width: 1.0;"/><path d="M442.2188,81.1406 Q441.6406,81.4375 441,81.5781 Q440.3594,81.7344 439.6563,81.7344 Q437.1563,81.7344 435.8281,80.0938 Q434.5156,78.4375 434.5156,75.3125 Q434.5156,72.1875 435.8281,70.5313 Q437.1563,68.875 439.6563,68.875 Q440.3594,68.875 441,69.0313 Q441.6563,69.1875 442.2188,69.4844 L442.2188,72.2031 Q441.5938,71.625 441,71.3594 Q440.4063,71.0781 439.7813,71.0781 Q438.4375,71.0781 437.75,72.1563 Q437.0625,73.2188 437.0625,75.3125 Q437.0625,77.4063 437.75,78.4844 Q438.4375,79.5469 439.7813,79.5469 Q440.4063,79.5469 441,79.2813 Q441.5938,79 442.2188,78.4219 L442.2188,81.1406 Z "/><text fill="#000000" font-family="sans-serif" font-size="12" lengthAdjust="spacingAndGlyphs" textLength="150" x="460.25" y="79.1543">CircuitInfiniteLoopValidator</text><line style="stroke: #A80036; stroke-width: 1.5;" x1="342" x2="696" y1="91" y2="91"/><line style="stroke: #A80036; stroke-width: 1.5;" x1="342" x2="696" y1="99" y2="99"/><ellipse cx="352" cy="110.9023" fill="#84BE84" rx="3" ry="3" style="stroke: #038048; stroke-width: 1.0;"/><text fill="#000000" font-family="sans-serif" font-size="11" lengthAdjust="spacingAndGlyphs" textLength="238" x="361" y="113.2104">circuitHasInfiniteLoops(circuit: Circuit): boolean</text><rect fill="#F24D5C" height="6" style="stroke: #C82930; stroke-width: 1.0;" width="6" x="349" y="120.707"/><text fill="#000000" font-family="sans-serif" font-size="11" lengthAdjust="spacingAndGlyphs" textLength="147" x="361" y="126.0151">detect(probe: Probe): boolean</text><rect fill="#F24D5C" height="6" style="stroke: #C82930; stroke-width: 1.0;" width="6" x="349" y="133.5117"/><text fill="#000000" font-family="sans-serif" font-size="11" lengthAdjust="spacingAndGlyphs" textLength="330" x="361" y="138.8198">detect(node: NodeComposite, visitedNodes: Set&lt;Node&gt;): boolean</text><!--class CircuitNotConnectedValidator--><rect fill="#FEFECE" filter="url(#fdf7yr17h9pzr)" height="73.6094" id="CircuitNotConnectedValidator" style="stroke: #A80036; stroke-width: 1.5;" width="268" x="38" y="65"/><ellipse cx="85.75" cy="81" fill="#ADD1B2" rx="11" ry="11" style="stroke: #A80036; stroke-width: 1.0;"/><path d="M88.2188,87.1406 Q87.6406,87.4375 87,87.5781 Q86.3594,87.7344 85.6563,87.7344 Q83.1563,87.7344 81.8281,86.0938 Q80.5156,84.4375 80.5156,81.3125 Q80.5156,78.1875 81.8281,76.5313 Q83.1563,74.875 85.6563,74.875 Q86.3594,74.875 87,75.0313 Q87.6563,75.1875 88.2188,75.4844 L88.2188,78.2031 Q87.5938,77.625 87,77.3594 Q86.4063,77.0781 85.7813,77.0781 Q84.4375,77.0781 83.75,78.1563 Q83.0625,79.2188 83.0625,81.3125 Q83.0625,83.4063 83.75,84.4844 Q84.4375,85.5469 85.7813,85.5469 Q86.4063,85.5469 87,85.2813 Q87.5938,85 88.2188,84.4219 L88.2188,87.1406 Z "/><text fill="#000000" font-family="sans-serif" font-size="12" lengthAdjust="spacingAndGlyphs" textLength="164" x="106.25" y="85.1543">CircuitNotConnectedValidator</text><line style="stroke: #A80036; stroke-width: 1.5;" x1="39" x2="305" y1="97" y2="97"/><line style="stroke: #A80036; stroke-width: 1.5;" x1="39" x2="305" y1="105" y2="105"/><ellipse cx="49" cy="116.9023" fill="#84BE84" rx="3" ry="3" style="stroke: #038048; stroke-width: 1.0;"/><text fill="#000000" font-family="sans-serif" font-size="11" lengthAdjust="spacingAndGlyphs" textLength="242" x="58" y="119.2104">hasDisconnectedProbes(circuit: Circuit): boolean</text><rect fill="#F24D5C" height="6" style="stroke: #C82930; stroke-width: 1.0;" width="6" x="46" y="126.707"/><text fill="#000000" font-family="sans-serif" font-size="11" lengthAdjust="spacingAndGlyphs" textLength="201" x="58" y="132.0151">checkParenting(circuit: Circuit): boolean</text><!--class NodeParentableVisitor--><rect fill="#FEFECE" filter="url(#fdf7yr17h9pzr)" height="48" id="NodeParentableVisitor" style="stroke: #A80036; stroke-width: 1.5;" width="156" x="94" y="222"/><ellipse cx="109" cy="238" fill="#ADD1B2" rx="11" ry="11" style="stroke: #A80036; stroke-width: 1.0;"/><path d="M111.4688,244.1406 Q110.8906,244.4375 110.25,244.5781 Q109.6094,244.7344 108.9063,244.7344 Q106.4063,244.7344 105.0781,243.0938 Q103.7656,241.4375 103.7656,238.3125 Q103.7656,235.1875 105.0781,233.5313 Q106.4063,231.875 108.9063,231.875 Q109.6094,231.875 110.25,232.0313 Q110.9063,232.1875 111.4688,232.4844 L111.4688,235.2031 Q110.8438,234.625 110.25,234.3594 Q109.6563,234.0781 109.0313,234.0781 Q107.6875,234.0781 107,235.1563 Q106.3125,236.2188 106.3125,238.3125 Q106.3125,240.4063 107,241.4844 Q107.6875,242.5469 109.0313,242.5469 Q109.6563,242.5469 110.25,242.2813 Q110.8438,242 111.4688,241.4219 L111.4688,244.1406 Z "/><text fill="#000000" font-family="sans-serif" font-size="12" lengthAdjust="spacingAndGlyphs" textLength="124" x="123" y="242.1543">NodeParentableVisitor</text><line style="stroke: #A80036; stroke-width: 1.5;" x1="95" x2="249" y1="254" y2="254"/><line style="stroke: #A80036; stroke-width: 1.5;" x1="95" x2="249" y1="262" y2="262"/><!--link CircuitNotConnectedValidator to NodeParentableVisitor--><path d="M172,139.2 C172,163.24 172,194.35 172,216.6 " fill="none" id="CircuitNotConnectedValidator-NodeParentableVisitor" style="stroke: #A80036; stroke-width: 1.0;"/><polygon fill="#A80036" points="172,221.77,176,212.77,172,216.77,168,212.77,172,221.77" style="stroke: #A80036; stroke-width: 1.0;"/><rect fill="none" height="6" style="stroke: #C82930; stroke-width: 1.0;" width="6" x="175" y="181.0755"/><text fill="#000000" font-family="sans-serif" font-size="13" lengthAdjust="spacingAndGlyphs" textLength="36" x="185" y="188.0814">visitor</text><text fill="#000000" font-family="sans-serif" font-size="13" lengthAdjust="spacingAndGlyphs" textLength="8" x="162.975" y="210.7399">1</text><!--
@startuml

package validation {
    class CircuitInfiniteLoopValidator {
        +circuitHasInfiniteLoops(circuit: Circuit): boolean
        -detect(probe: Probe): boolean
        -detect(node: NodeComposite, visitedNodes: Set<Node>): boolean
    }

    class CircuitNotConnectedValidator {
        +hasDisconnectedProbes(circuit: Circuit): boolean
        -checkParenting(circuit: Circuit): boolean
    }
    CircuitNotConnectedValidator - -> "1" NodeParentableVisitor : -visitor
}

@enduml

PlantUML version 1.2018.12(Sun Oct 21 12:15:15 CEST 2018)
(GPL source distribution)
Java Runtime: OpenJDK Runtime Environment
JVM: OpenJDK 64-Bit Server VM
Java Version: 11.0.6+8-b520.43
Operating System: Linux
OS Version: 5.4.43-1-MANJARO
Default Encoding: UTF-8
Language: en
Country: US
--></g></svg>