<?xml version="1.0" encoding="UTF-8" standalone="no"?><svg xmlns="http://www.w3.org/2000/svg" xmlns:xlink="http://www.w3.org/1999/xlink" contentScriptType="application/ecmascript" contentStyleType="text/css" height="956px" preserveAspectRatio="none" style="width:2031px;height:956px;" version="1.1" viewBox="0 0 2031 956" width="2031px" zoomAndPan="magnify"><defs><filter height="300%" id="fmlxa32qxjb5b" width="300%" x="-1" y="-1"><feGaussianBlur result="blurOut" stdDeviation="2.0"/><feColorMatrix in="blurOut" result="blurOut2" type="matrix" values="0 0 0 0 0 0 0 0 0 0 0 0 0 0 0 0 0 0 .4 0"/><feOffset dx="4.0" dy="4.0" in="blurOut2" result="blurOut3"/><feBlend in="SourceGraphic" in2="blurOut3" mode="normal"/></filter></defs><g><!--cluster domain--><polygon fill="#FFFFFF" filter="url(#fmlxa32qxjb5b)" points="22,24,83,24,90,46.2969,2009,46.2969,2009,944,22,944,22,24" style="stroke: #000000; stroke-width: 1.5;"/><line style="stroke: #000000; stroke-width: 1.5;" x1="22" x2="90" y1="46.2969" y2="46.2969"/><text fill="#000000" font-family="sans-serif" font-size="14" font-weight="bold" lengthAdjust="spacingAndGlyphs" textLength="55" x="26" y="38.9951">domain</text><!--class Node--><rect fill="#FEFECE" filter="url(#fmlxa32qxjb5b)" height="201.6563" id="Node" style="stroke: #A80036; stroke-width: 1.5;" width="339" x="943.5" y="338"/><ellipse cx="1094.25" cy="354" fill="#A9DCDF" rx="11" ry="11" style="stroke: #A80036; stroke-width: 1.0;"/><path d="M1094.3594,349.0938 L1093.2031,354.1719 L1095.5313,354.1719 L1094.3594,349.0938 Z M1092.875,346.8594 L1095.8594,346.8594 L1099.2188,359.25 L1096.7656,359.25 L1096,356.1875 L1092.7188,356.1875 L1091.9688,359.25 L1089.5313,359.25 L1092.875,346.8594 Z "/><text fill="#000000" font-family="sans-serif" font-size="12" font-style="italic" lengthAdjust="spacingAndGlyphs" textLength="29" x="1114.75" y="358.1543">Node</text><line style="stroke: #A80036; stroke-width: 1.5;" x1="944.5" x2="1281.5" y1="370" y2="370"/><polygon fill="none" points="954.5,376.9023,958.5,380.9023,954.5,384.9023,950.5,380.9023" style="stroke: #B38D22; stroke-width: 1.0;"/><text fill="#000000" font-family="sans-serif" font-size="11" lengthAdjust="spacingAndGlyphs" textLength="72" x="963.5" y="384.2104">value: boolean</text><rect fill="none" height="6" style="stroke: #C82930; stroke-width: 1.0;" width="6" x="951.5" y="391.707"/><text fill="#000000" font-family="sans-serif" font-size="11" lengthAdjust="spacingAndGlyphs" textLength="63" x="963.5" y="397.0151">name: String</text><line style="stroke: #A80036; stroke-width: 1.5;" x1="944.5" x2="1281.5" y1="403.6094" y2="403.6094"/><ellipse cx="954.5" cy="415.5117" fill="#84BE84" rx="3" ry="3" style="stroke: #038048; stroke-width: 1.0;"/><text fill="#000000" font-family="sans-serif" font-size="11" lengthAdjust="spacingAndGlyphs" textLength="97" x="963.5" y="417.8198">Node(name: String)</text><ellipse cx="954.5" cy="428.3164" fill="#84BE84" rx="3" ry="3" style="stroke: #038048; stroke-width: 1.0;"/><text fill="#000000" font-family="sans-serif" font-size="11" lengthAdjust="spacingAndGlyphs" textLength="97" x="963.5" y="430.6245">getValue(): boolean</text><ellipse cx="954.5" cy="441.1211" fill="#84BE84" rx="3" ry="3" style="stroke: #038048; stroke-width: 1.0;"/><text fill="#000000" font-family="sans-serif" font-size="11" lengthAdjust="spacingAndGlyphs" textLength="89" x="963.5" y="443.4292">getName(): String</text><ellipse cx="954.5" cy="453.9258" fill="#84BE84" rx="3" ry="3" style="stroke: #038048; stroke-width: 1.0;"/><text fill="#000000" font-family="sans-serif" font-size="11" lengthAdjust="spacingAndGlyphs" textLength="142" x="963.5" y="456.2339">addToCircuit(circuit: Circuit)</text><ellipse cx="954.5" cy="466.7305" fill="#84BE84" rx="3" ry="3" style="stroke: #038048; stroke-width: 1.0;"/><text fill="#000000" font-family="sans-serif" font-size="11" lengthAdjust="spacingAndGlyphs" textLength="313" x="963.5" y="469.0386">addSimulationListener(simulationListener: ISimulationListener)</text><polygon fill="#FFFF44" points="954.5,474.5352,958.5,478.5352,954.5,482.5352,950.5,478.5352" style="stroke: #B38D22; stroke-width: 1.0;"/><text fill="#000000" font-family="sans-serif" font-size="11" lengthAdjust="spacingAndGlyphs" textLength="116" x="963.5" y="481.8433">notifyStartCalculation()</text><polygon fill="#FFFF44" points="954.5,487.3398,958.5,491.3398,954.5,495.3398,950.5,491.3398" style="stroke: #B38D22; stroke-width: 1.0;"/><text fill="#000000" font-family="sans-serif" font-size="11" lengthAdjust="spacingAndGlyphs" textLength="239" x="963.5" y="494.6479">notifyStopCalculation(calculatedValue: boolean)</text><text fill="#000000" font-family="sans-serif" font-size="11" lengthAdjust="spacingAndGlyphs" textLength="0" x="966.5" y="507.4526"/><ellipse cx="954.5" cy="517.9492" fill="#84BE84" rx="3" ry="3" style="stroke: #038048; stroke-width: 1.0;"/><text fill="#000000" font-family="sans-serif" font-size="11" font-style="italic" lengthAdjust="spacingAndGlyphs" textLength="99" x="963.5" y="520.2573">calculate(): boolean</text><ellipse cx="954.5" cy="530.7539" fill="#84BE84" rx="3" ry="3" style="stroke: #038048; stroke-width: 1.0;"/><text fill="#000000" font-family="sans-serif" font-size="11" font-style="italic" lengthAdjust="spacingAndGlyphs" textLength="165" x="963.5" y="533.062">accept(nodeVisitor: INodeVisitor)</text><!--class ISimulationListener--><rect fill="#FEFECE" filter="url(#fmlxa32qxjb5b)" height="48" id="ISimulationListener" style="stroke: #A80036; stroke-width: 1.5;" width="138" x="1263" y="662"/><ellipse cx="1278" cy="678" fill="#ADD1B2" rx="11" ry="11" style="stroke: #A80036; stroke-width: 1.0;"/><path d="M1280.4688,684.1406 Q1279.8906,684.4375 1279.25,684.5781 Q1278.6094,684.7344 1277.9063,684.7344 Q1275.4063,684.7344 1274.0781,683.0938 Q1272.7656,681.4375 1272.7656,678.3125 Q1272.7656,675.1875 1274.0781,673.5313 Q1275.4063,671.875 1277.9063,671.875 Q1278.6094,671.875 1279.25,672.0313 Q1279.9063,672.1875 1280.4688,672.4844 L1280.4688,675.2031 Q1279.8438,674.625 1279.25,674.3594 Q1278.6563,674.0781 1278.0313,674.0781 Q1276.6875,674.0781 1276,675.1563 Q1275.3125,676.2188 1275.3125,678.3125 Q1275.3125,680.4063 1276,681.4844 Q1276.6875,682.5469 1278.0313,682.5469 Q1278.6563,682.5469 1279.25,682.2813 Q1279.8438,682 1280.4688,681.4219 L1280.4688,684.1406 Z "/><text fill="#000000" font-family="sans-serif" font-size="12" lengthAdjust="spacingAndGlyphs" textLength="106" x="1292" y="682.1543">ISimulationListener</text><line style="stroke: #A80036; stroke-width: 1.5;" x1="1264" x2="1400" y1="694" y2="694"/><line style="stroke: #A80036; stroke-width: 1.5;" x1="1264" x2="1400" y1="702" y2="702"/><!--class NodeComposite--><rect fill="#FEFECE" filter="url(#fmlxa32qxjb5b)" height="137.6328" id="NodeComposite" style="stroke: #A80036; stroke-width: 1.5;" width="287" x="922.5" y="617"/><ellipse cx="1017.25" cy="633" fill="#A9DCDF" rx="11" ry="11" style="stroke: #A80036; stroke-width: 1.0;"/><path d="M1017.3594,628.0938 L1016.2031,633.1719 L1018.5313,633.1719 L1017.3594,628.0938 Z M1015.875,625.8594 L1018.8594,625.8594 L1022.2188,638.25 L1019.7656,638.25 L1019,635.1875 L1015.7188,635.1875 L1014.9688,638.25 L1012.5313,638.25 L1015.875,625.8594 Z "/><text fill="#000000" font-family="sans-serif" font-size="12" font-style="italic" lengthAdjust="spacingAndGlyphs" textLength="89" x="1037.75" y="637.1543">NodeComposite</text><line style="stroke: #A80036; stroke-width: 1.5;" x1="923.5" x2="1208.5" y1="649" y2="649"/><polygon fill="none" points="933.5,655.9023,937.5,659.9023,933.5,663.9023,929.5,659.9023" style="stroke: #B38D22; stroke-width: 1.0;"/><text fill="#000000" font-family="sans-serif" font-size="11" lengthAdjust="spacingAndGlyphs" textLength="105" x="942.5" y="663.2104">parents: List&lt;Node&gt;</text><line style="stroke: #A80036; stroke-width: 1.5;" x1="923.5" x2="1208.5" y1="669.8047" y2="669.8047"/><ellipse cx="933.5" cy="681.707" fill="#84BE84" rx="3" ry="3" style="stroke: #038048; stroke-width: 1.0;"/><text fill="#000000" font-family="sans-serif" font-size="11" lengthAdjust="spacingAndGlyphs" textLength="261" x="942.5" y="684.0151">NodeComposite(parents: List&lt;Node&gt;, name: String)</text><ellipse cx="933.5" cy="694.5117" fill="#84BE84" rx="3" ry="3" style="stroke: #038048; stroke-width: 1.0;"/><text fill="#000000" font-family="sans-serif" font-size="11" lengthAdjust="spacingAndGlyphs" textLength="90" x="942.5" y="696.8198">add(parent: Node)</text><ellipse cx="933.5" cy="707.3164" fill="#84BE84" rx="3" ry="3" style="stroke: #038048; stroke-width: 1.0;"/><text fill="#000000" font-family="sans-serif" font-size="11" lengthAdjust="spacingAndGlyphs" textLength="110" x="942.5" y="709.6245">remove(parent: Node)</text><ellipse cx="933.5" cy="720.1211" fill="#84BE84" rx="3" ry="3" style="stroke: #038048; stroke-width: 1.0;"/><text fill="#000000" font-family="sans-serif" font-size="11" lengthAdjust="spacingAndGlyphs" textLength="129" x="942.5" y="722.4292">getParents(): List&lt;Node&gt;</text><text fill="#000000" font-family="sans-serif" font-size="11" lengthAdjust="spacingAndGlyphs" textLength="0" x="945.5" y="735.2339"/><ellipse cx="933.5" cy="745.7305" fill="#84BE84" rx="3" ry="3" style="stroke: #038048; stroke-width: 1.0;"/><text fill="#000000" font-family="sans-serif" font-size="11" font-style="italic" lengthAdjust="spacingAndGlyphs" textLength="99" x="942.5" y="748.0386">calculate(): boolean</text><!--class INodeVisitor--><rect fill="#FEFECE" filter="url(#fmlxa32qxjb5b)" height="137.6328" id="INodeVisitor" style="stroke: #A80036; stroke-width: 1.5;" width="136" x="1744" y="91"/><ellipse cx="1775.65" cy="107" fill="#B4A7E5" rx="11" ry="11" style="stroke: #A80036; stroke-width: 1.0;"/><path d="M1772.0719,102.7656 L1772.0719,100.6094 L1779.4625,100.6094 L1779.4625,102.7656 L1776.9938,102.7656 L1776.9938,110.8438 L1779.4625,110.8438 L1779.4625,113 L1772.0719,113 L1772.0719,110.8438 L1774.5406,110.8438 L1774.5406,102.7656 L1772.0719,102.7656 Z "/><text fill="#000000" font-family="sans-serif" font-size="12" font-style="italic" lengthAdjust="spacingAndGlyphs" textLength="67" x="1793.35" y="111.1543">INodeVisitor</text><line style="stroke: #A80036; stroke-width: 1.5;" x1="1745" x2="1879" y1="123" y2="123"/><line style="stroke: #A80036; stroke-width: 1.5;" x1="1745" x2="1879" y1="131" y2="131"/><ellipse cx="1755" cy="142.9023" fill="#84BE84" rx="3" ry="3" style="stroke: #038048; stroke-width: 1.0;"/><text fill="#000000" font-family="sans-serif" font-size="11" lengthAdjust="spacingAndGlyphs" textLength="87" x="1764" y="145.2104">visit(node: Probe)</text><ellipse cx="1755" cy="155.707" fill="#84BE84" rx="3" ry="3" style="stroke: #038048; stroke-width: 1.0;"/><text fill="#000000" font-family="sans-serif" font-size="11" lengthAdjust="spacingAndGlyphs" textLength="84" x="1764" y="158.0151">visit(node: Input)</text><ellipse cx="1755" cy="168.5117" fill="#84BE84" rx="3" ry="3" style="stroke: #038048; stroke-width: 1.0;"/><text fill="#000000" font-family="sans-serif" font-size="11" lengthAdjust="spacingAndGlyphs" textLength="102" x="1764" y="170.8198">visit(node: AndGate)</text><ellipse cx="1755" cy="181.3164" fill="#84BE84" rx="3" ry="3" style="stroke: #038048; stroke-width: 1.0;"/><text fill="#000000" font-family="sans-serif" font-size="11" lengthAdjust="spacingAndGlyphs" textLength="110" x="1764" y="183.6245">visit(node: NAndGate)</text><ellipse cx="1755" cy="194.1211" fill="#84BE84" rx="3" ry="3" style="stroke: #038048; stroke-width: 1.0;"/><text fill="#000000" font-family="sans-serif" font-size="11" lengthAdjust="spacingAndGlyphs" textLength="103" x="1764" y="196.4292">visit(node: NOrGate)</text><ellipse cx="1755" cy="206.9258" fill="#84BE84" rx="3" ry="3" style="stroke: #038048; stroke-width: 1.0;"/><text fill="#000000" font-family="sans-serif" font-size="11" lengthAdjust="spacingAndGlyphs" textLength="95" x="1764" y="209.2339">visit(node: OrGate)</text><ellipse cx="1755" cy="219.7305" fill="#84BE84" rx="3" ry="3" style="stroke: #038048; stroke-width: 1.0;"/><text fill="#000000" font-family="sans-serif" font-size="11" lengthAdjust="spacingAndGlyphs" textLength="102" x="1764" y="222.0386">visit(node: XOrGate)</text><!--class Circuit--><rect fill="#FEFECE" filter="url(#fmlxa32qxjb5b)" height="201.6563" id="Circuit" style="stroke: #A80036; stroke-width: 1.5;" width="417" x="1245.5" y="59"/><ellipse cx="1432.25" cy="75" fill="#ADD1B2" rx="11" ry="11" style="stroke: #A80036; stroke-width: 1.0;"/><path d="M1434.7188,81.1406 Q1434.1406,81.4375 1433.5,81.5781 Q1432.8594,81.7344 1432.1563,81.7344 Q1429.6563,81.7344 1428.3281,80.0938 Q1427.0156,78.4375 1427.0156,75.3125 Q1427.0156,72.1875 1428.3281,70.5313 Q1429.6563,68.875 1432.1563,68.875 Q1432.8594,68.875 1433.5,69.0313 Q1434.1563,69.1875 1434.7188,69.4844 L1434.7188,72.2031 Q1434.0938,71.625 1433.5,71.3594 Q1432.9063,71.0781 1432.2813,71.0781 Q1430.9375,71.0781 1430.25,72.1563 Q1429.5625,73.2188 1429.5625,75.3125 Q1429.5625,77.4063 1430.25,78.4844 Q1430.9375,79.5469 1432.2813,79.5469 Q1432.9063,79.5469 1433.5,79.2813 Q1434.0938,79 1434.7188,78.4219 L1434.7188,81.1406 Z "/><text fill="#000000" font-family="sans-serif" font-size="12" lengthAdjust="spacingAndGlyphs" textLength="35" x="1452.75" y="79.1543">Circuit</text><line style="stroke: #A80036; stroke-width: 1.5;" x1="1246.5" x2="1661.5" y1="91" y2="91"/><line style="stroke: #A80036; stroke-width: 1.5;" x1="1246.5" x2="1661.5" y1="99" y2="99"/><ellipse cx="1256.5" cy="110.9023" fill="#84BE84" rx="3" ry="3" style="stroke: #038048; stroke-width: 1.0;"/><text fill="#000000" font-family="sans-serif" font-size="11" lengthAdjust="spacingAndGlyphs" textLength="41" x="1265.5" y="113.2104">Circuit()</text><ellipse cx="1256.5" cy="123.707" fill="#84BE84" rx="3" ry="3" style="stroke: #038048; stroke-width: 1.0;"/><text fill="#000000" font-family="sans-serif" font-size="11" lengthAdjust="spacingAndGlyphs" textLength="108" x="1265.5" y="126.0151">addNode(node: Node)</text><ellipse cx="1256.5" cy="136.5117" fill="#84BE84" rx="3" ry="3" style="stroke: #038048; stroke-width: 1.0;"/><text fill="#000000" font-family="sans-serif" font-size="11" lengthAdjust="spacingAndGlyphs" textLength="106" x="1265.5" y="138.8198">addInput(node: Input)</text><ellipse cx="1256.5" cy="149.3164" fill="#84BE84" rx="3" ry="3" style="stroke: #038048; stroke-width: 1.0;"/><text fill="#000000" font-family="sans-serif" font-size="11" lengthAdjust="spacingAndGlyphs" textLength="112" x="1265.5" y="151.6245">addProbe(node: Probe)</text><ellipse cx="1256.5" cy="162.1211" fill="#84BE84" rx="3" ry="3" style="stroke: #038048; stroke-width: 1.0;"/><text fill="#000000" font-family="sans-serif" font-size="11" lengthAdjust="spacingAndGlyphs" textLength="121" x="1265.5" y="164.4292">getNodes(): Set&lt;Node&gt;</text><ellipse cx="1256.5" cy="174.9258" fill="#84BE84" rx="3" ry="3" style="stroke: #038048; stroke-width: 1.0;"/><text fill="#000000" font-family="sans-serif" font-size="11" lengthAdjust="spacingAndGlyphs" textLength="119" x="1265.5" y="177.2339">getInputs(): Set&lt;Input&gt;</text><ellipse cx="1256.5" cy="187.7305" fill="#84BE84" rx="3" ry="3" style="stroke: #038048; stroke-width: 1.0;"/><text fill="#000000" font-family="sans-serif" font-size="11" lengthAdjust="spacingAndGlyphs" textLength="112" x="1265.5" y="190.0386">getInput(name: String)</text><ellipse cx="1256.5" cy="200.5352" fill="#84BE84" rx="3" ry="3" style="stroke: #038048; stroke-width: 1.0;"/><text fill="#000000" font-family="sans-serif" font-size="11" lengthAdjust="spacingAndGlyphs" textLength="125" x="1265.5" y="202.8433">getProbes(): Set&lt;Probe&gt;</text><ellipse cx="1256.5" cy="213.3398" fill="#84BE84" rx="3" ry="3" style="stroke: #038048; stroke-width: 1.0;"/><text fill="#000000" font-family="sans-serif" font-size="11" lengthAdjust="spacingAndGlyphs" textLength="115" x="1265.5" y="215.6479">getProbe(name: String)</text><ellipse cx="1256.5" cy="226.1445" fill="#84BE84" rx="3" ry="3" style="stroke: #038048; stroke-width: 1.0;"/><text fill="#000000" font-family="sans-serif" font-size="11" lengthAdjust="spacingAndGlyphs" textLength="51" x="1265.5" y="228.4526">simulate()</text><ellipse cx="1256.5" cy="238.9492" fill="#84BE84" rx="3" ry="3" style="stroke: #038048; stroke-width: 1.0;"/><text fill="#000000" font-family="sans-serif" font-size="11" lengthAdjust="spacingAndGlyphs" textLength="313" x="1265.5" y="241.2573">addSimulationListener(simulationListener: ISimulationListener)</text><ellipse cx="1256.5" cy="251.7539" fill="#84BE84" rx="3" ry="3" style="stroke: #038048; stroke-width: 1.0;"/><text fill="#000000" font-family="sans-serif" font-size="11" lengthAdjust="spacingAndGlyphs" textLength="391" x="1265.5" y="254.062">addSimulationListeners(simulationListeners: Collection&lt;ISimulationListener&gt;)</text><!--class Input--><rect fill="#FEFECE" filter="url(#fmlxa32qxjb5b)" height="112.0234" id="Input" style="stroke: #A80036; stroke-width: 1.5;" width="200" x="1445" y="630"/><ellipse cx="1526.75" cy="646" fill="#ADD1B2" rx="11" ry="11" style="stroke: #A80036; stroke-width: 1.0;"/><path d="M1529.2188,652.1406 Q1528.6406,652.4375 1528,652.5781 Q1527.3594,652.7344 1526.6563,652.7344 Q1524.1563,652.7344 1522.8281,651.0938 Q1521.5156,649.4375 1521.5156,646.3125 Q1521.5156,643.1875 1522.8281,641.5313 Q1524.1563,639.875 1526.6563,639.875 Q1527.3594,639.875 1528,640.0313 Q1528.6563,640.1875 1529.2188,640.4844 L1529.2188,643.2031 Q1528.5938,642.625 1528,642.3594 Q1527.4063,642.0781 1526.7813,642.0781 Q1525.4375,642.0781 1524.75,643.1563 Q1524.0625,644.2188 1524.0625,646.3125 Q1524.0625,648.4063 1524.75,649.4844 Q1525.4375,650.5469 1526.7813,650.5469 Q1527.4063,650.5469 1528,650.2813 Q1528.5938,650 1529.2188,649.4219 L1529.2188,652.1406 Z "/><text fill="#000000" font-family="sans-serif" font-size="12" lengthAdjust="spacingAndGlyphs" textLength="28" x="1547.25" y="650.1543">Input</text><line style="stroke: #A80036; stroke-width: 1.5;" x1="1446" x2="1644" y1="662" y2="662"/><line style="stroke: #A80036; stroke-width: 1.5;" x1="1446" x2="1644" y1="670" y2="670"/><ellipse cx="1456" cy="681.9023" fill="#84BE84" rx="3" ry="3" style="stroke: #038048; stroke-width: 1.0;"/><text fill="#000000" font-family="sans-serif" font-size="11" lengthAdjust="spacingAndGlyphs" textLength="174" x="1465" y="684.2104">Input(value: boolean, name: String)</text><ellipse cx="1456" cy="694.707" fill="#84BE84" rx="3" ry="3" style="stroke: #038048; stroke-width: 1.0;"/><text fill="#000000" font-family="sans-serif" font-size="11" lengthAdjust="spacingAndGlyphs" textLength="123" x="1465" y="697.0151">setValue(value: boolean)</text><ellipse cx="1456" cy="707.5117" fill="#84BE84" rx="3" ry="3" style="stroke: #038048; stroke-width: 1.0;"/><text fill="#000000" font-family="sans-serif" font-size="11" lengthAdjust="spacingAndGlyphs" textLength="99" x="1465" y="709.8198">calculate(): boolean</text><ellipse cx="1456" cy="720.3164" fill="#84BE84" rx="3" ry="3" style="stroke: #038048; stroke-width: 1.0;"/><text fill="#000000" font-family="sans-serif" font-size="11" lengthAdjust="spacingAndGlyphs" textLength="165" x="1465" y="722.6245">accept(nodeVisitor: INodeVisitor)</text><ellipse cx="1456" cy="733.1211" fill="#84BE84" rx="3" ry="3" style="stroke: #038048; stroke-width: 1.0;"/><text fill="#000000" font-family="sans-serif" font-size="11" lengthAdjust="spacingAndGlyphs" textLength="142" x="1465" y="735.4292">addToCircuit(circuit: Circuit)</text><!--class Probe--><rect fill="#FEFECE" filter="url(#fmlxa32qxjb5b)" height="112.0234" id="Probe" style="stroke: #A80036; stroke-width: 1.5;" width="236" x="1757" y="816"/><ellipse cx="1854.75" cy="832" fill="#ADD1B2" rx="11" ry="11" style="stroke: #A80036; stroke-width: 1.0;"/><path d="M1857.2188,838.1406 Q1856.6406,838.4375 1856,838.5781 Q1855.3594,838.7344 1854.6563,838.7344 Q1852.1563,838.7344 1850.8281,837.0938 Q1849.5156,835.4375 1849.5156,832.3125 Q1849.5156,829.1875 1850.8281,827.5313 Q1852.1563,825.875 1854.6563,825.875 Q1855.3594,825.875 1856,826.0313 Q1856.6563,826.1875 1857.2188,826.4844 L1857.2188,829.2031 Q1856.5938,828.625 1856,828.3594 Q1855.4063,828.0781 1854.7813,828.0781 Q1853.4375,828.0781 1852.75,829.1563 Q1852.0625,830.2188 1852.0625,832.3125 Q1852.0625,834.4063 1852.75,835.4844 Q1853.4375,836.5469 1854.7813,836.5469 Q1855.4063,836.5469 1856,836.2813 Q1856.5938,836 1857.2188,835.4219 L1857.2188,838.1406 Z "/><text fill="#000000" font-family="sans-serif" font-size="12" lengthAdjust="spacingAndGlyphs" textLength="32" x="1875.25" y="836.1543">Probe</text><line style="stroke: #A80036; stroke-width: 1.5;" x1="1758" x2="1992" y1="848" y2="848"/><line style="stroke: #A80036; stroke-width: 1.5;" x1="1758" x2="1992" y1="856" y2="856"/><ellipse cx="1768" cy="867.9023" fill="#84BE84" rx="3" ry="3" style="stroke: #038048; stroke-width: 1.0;"/><text fill="#000000" font-family="sans-serif" font-size="11" lengthAdjust="spacingAndGlyphs" textLength="99" x="1777" y="870.2104">Probe(name: String)</text><ellipse cx="1768" cy="880.707" fill="#84BE84" rx="3" ry="3" style="stroke: #038048; stroke-width: 1.0;"/><text fill="#000000" font-family="sans-serif" font-size="11" lengthAdjust="spacingAndGlyphs" textLength="210" x="1777" y="883.0151">Probe(parents: List&lt;Node&gt;, name: String)</text><ellipse cx="1768" cy="893.5117" fill="#84BE84" rx="3" ry="3" style="stroke: #038048; stroke-width: 1.0;"/><text fill="#000000" font-family="sans-serif" font-size="11" lengthAdjust="spacingAndGlyphs" textLength="99" x="1777" y="895.8198">calculate(): boolean</text><ellipse cx="1768" cy="906.3164" fill="#84BE84" rx="3" ry="3" style="stroke: #038048; stroke-width: 1.0;"/><text fill="#000000" font-family="sans-serif" font-size="11" lengthAdjust="spacingAndGlyphs" textLength="165" x="1777" y="908.6245">accept(nodeVisitor: INodeVisitor)</text><ellipse cx="1768" cy="919.1211" fill="#84BE84" rx="3" ry="3" style="stroke: #038048; stroke-width: 1.0;"/><text fill="#000000" font-family="sans-serif" font-size="11" lengthAdjust="spacingAndGlyphs" textLength="142" x="1777" y="921.4292">addToCircuit(circuit: Circuit)</text><!--class AndGate--><rect fill="#FEFECE" filter="url(#fmlxa32qxjb5b)" height="99.2188" id="AndGate" style="stroke: #A80036; stroke-width: 1.5;" width="251" x="38.5" y="822.5"/><ellipse cx="135.25" cy="838.5" fill="#ADD1B2" rx="11" ry="11" style="stroke: #A80036; stroke-width: 1.0;"/><path d="M137.7188,844.6406 Q137.1406,844.9375 136.5,845.0781 Q135.8594,845.2344 135.1563,845.2344 Q132.6563,845.2344 131.3281,843.5938 Q130.0156,841.9375 130.0156,838.8125 Q130.0156,835.6875 131.3281,834.0313 Q132.6563,832.375 135.1563,832.375 Q135.8594,832.375 136.5,832.5313 Q137.1563,832.6875 137.7188,832.9844 L137.7188,835.7031 Q137.0938,835.125 136.5,834.8594 Q135.9063,834.5781 135.2813,834.5781 Q133.9375,834.5781 133.25,835.6563 Q132.5625,836.7188 132.5625,838.8125 Q132.5625,840.9063 133.25,841.9844 Q133.9375,843.0469 135.2813,843.0469 Q135.9063,843.0469 136.5,842.7813 Q137.0938,842.5 137.7188,841.9219 L137.7188,844.6406 Z "/><text fill="#000000" font-family="sans-serif" font-size="12" lengthAdjust="spacingAndGlyphs" textLength="49" x="155.75" y="842.6543">AndGate</text><line style="stroke: #A80036; stroke-width: 1.5;" x1="39.5" x2="288.5" y1="854.5" y2="854.5"/><line style="stroke: #A80036; stroke-width: 1.5;" x1="39.5" x2="288.5" y1="862.5" y2="862.5"/><ellipse cx="49.5" cy="874.4023" fill="#84BE84" rx="3" ry="3" style="stroke: #038048; stroke-width: 1.0;"/><text fill="#000000" font-family="sans-serif" font-size="11" lengthAdjust="spacingAndGlyphs" textLength="114" x="58.5" y="876.7104">AndGate(name: String)</text><ellipse cx="49.5" cy="887.207" fill="#84BE84" rx="3" ry="3" style="stroke: #038048; stroke-width: 1.0;"/><text fill="#000000" font-family="sans-serif" font-size="11" lengthAdjust="spacingAndGlyphs" textLength="225" x="58.5" y="889.5151">AndGate(parents: List&lt;Node&gt;, name: String)</text><ellipse cx="49.5" cy="900.0117" fill="#84BE84" rx="3" ry="3" style="stroke: #038048; stroke-width: 1.0;"/><text fill="#000000" font-family="sans-serif" font-size="11" lengthAdjust="spacingAndGlyphs" textLength="99" x="58.5" y="902.3198">calculate(): boolean</text><ellipse cx="49.5" cy="912.8164" fill="#84BE84" rx="3" ry="3" style="stroke: #038048; stroke-width: 1.0;"/><text fill="#000000" font-family="sans-serif" font-size="11" lengthAdjust="spacingAndGlyphs" textLength="165" x="58.5" y="915.1245">accept(nodeVisitor: INodeVisitor)</text><!--class NAndGate--><rect fill="#FEFECE" filter="url(#fmlxa32qxjb5b)" height="99.2188" id="NAndGate" style="stroke: #A80036; stroke-width: 1.5;" width="259" x="324.5" y="822.5"/><ellipse cx="421.25" cy="838.5" fill="#ADD1B2" rx="11" ry="11" style="stroke: #A80036; stroke-width: 1.0;"/><path d="M423.7188,844.6406 Q423.1406,844.9375 422.5,845.0781 Q421.8594,845.2344 421.1563,845.2344 Q418.6563,845.2344 417.3281,843.5938 Q416.0156,841.9375 416.0156,838.8125 Q416.0156,835.6875 417.3281,834.0313 Q418.6563,832.375 421.1563,832.375 Q421.8594,832.375 422.5,832.5313 Q423.1563,832.6875 423.7188,832.9844 L423.7188,835.7031 Q423.0938,835.125 422.5,834.8594 Q421.9063,834.5781 421.2813,834.5781 Q419.9375,834.5781 419.25,835.6563 Q418.5625,836.7188 418.5625,838.8125 Q418.5625,840.9063 419.25,841.9844 Q419.9375,843.0469 421.2813,843.0469 Q421.9063,843.0469 422.5,842.7813 Q423.0938,842.5 423.7188,841.9219 L423.7188,844.6406 Z "/><text fill="#000000" font-family="sans-serif" font-size="12" lengthAdjust="spacingAndGlyphs" textLength="57" x="441.75" y="842.6543">NAndGate</text><line style="stroke: #A80036; stroke-width: 1.5;" x1="325.5" x2="582.5" y1="854.5" y2="854.5"/><line style="stroke: #A80036; stroke-width: 1.5;" x1="325.5" x2="582.5" y1="862.5" y2="862.5"/><ellipse cx="335.5" cy="874.4023" fill="#84BE84" rx="3" ry="3" style="stroke: #038048; stroke-width: 1.0;"/><text fill="#000000" font-family="sans-serif" font-size="11" lengthAdjust="spacingAndGlyphs" textLength="122" x="344.5" y="876.7104">NAndGate(name: String)</text><ellipse cx="335.5" cy="887.207" fill="#84BE84" rx="3" ry="3" style="stroke: #038048; stroke-width: 1.0;"/><text fill="#000000" font-family="sans-serif" font-size="11" lengthAdjust="spacingAndGlyphs" textLength="233" x="344.5" y="889.5151">NAndGate(parents: List&lt;Node&gt;, name: String)</text><ellipse cx="335.5" cy="900.0117" fill="#84BE84" rx="3" ry="3" style="stroke: #038048; stroke-width: 1.0;"/><text fill="#000000" font-family="sans-serif" font-size="11" lengthAdjust="spacingAndGlyphs" textLength="99" x="344.5" y="902.3198">calculate(): boolean</text><ellipse cx="335.5" cy="912.8164" fill="#84BE84" rx="3" ry="3" style="stroke: #038048; stroke-width: 1.0;"/><text fill="#000000" font-family="sans-serif" font-size="11" lengthAdjust="spacingAndGlyphs" textLength="165" x="344.5" y="915.1245">accept(nodeVisitor: INodeVisitor)</text><!--class NOrGate--><rect fill="#FEFECE" filter="url(#fmlxa32qxjb5b)" height="99.2188" id="NOrGate" style="stroke: #A80036; stroke-width: 1.5;" width="252" x="619" y="822.5"/><ellipse cx="716.75" cy="838.5" fill="#ADD1B2" rx="11" ry="11" style="stroke: #A80036; stroke-width: 1.0;"/><path d="M719.2188,844.6406 Q718.6406,844.9375 718,845.0781 Q717.3594,845.2344 716.6563,845.2344 Q714.1563,845.2344 712.8281,843.5938 Q711.5156,841.9375 711.5156,838.8125 Q711.5156,835.6875 712.8281,834.0313 Q714.1563,832.375 716.6563,832.375 Q717.3594,832.375 718,832.5313 Q718.6563,832.6875 719.2188,832.9844 L719.2188,835.7031 Q718.5938,835.125 718,834.8594 Q717.4063,834.5781 716.7813,834.5781 Q715.4375,834.5781 714.75,835.6563 Q714.0625,836.7188 714.0625,838.8125 Q714.0625,840.9063 714.75,841.9844 Q715.4375,843.0469 716.7813,843.0469 Q717.4063,843.0469 718,842.7813 Q718.5938,842.5 719.2188,841.9219 L719.2188,844.6406 Z "/><text fill="#000000" font-family="sans-serif" font-size="12" lengthAdjust="spacingAndGlyphs" textLength="48" x="737.25" y="842.6543">NOrGate</text><line style="stroke: #A80036; stroke-width: 1.5;" x1="620" x2="870" y1="854.5" y2="854.5"/><line style="stroke: #A80036; stroke-width: 1.5;" x1="620" x2="870" y1="862.5" y2="862.5"/><ellipse cx="630" cy="874.4023" fill="#84BE84" rx="3" ry="3" style="stroke: #038048; stroke-width: 1.0;"/><text fill="#000000" font-family="sans-serif" font-size="11" lengthAdjust="spacingAndGlyphs" textLength="115" x="639" y="876.7104">NOrGate(name: String)</text><ellipse cx="630" cy="887.207" fill="#84BE84" rx="3" ry="3" style="stroke: #038048; stroke-width: 1.0;"/><text fill="#000000" font-family="sans-serif" font-size="11" lengthAdjust="spacingAndGlyphs" textLength="226" x="639" y="889.5151">NOrGate(parents: List&lt;Node&gt;, name: String)</text><ellipse cx="630" cy="900.0117" fill="#84BE84" rx="3" ry="3" style="stroke: #038048; stroke-width: 1.0;"/><text fill="#000000" font-family="sans-serif" font-size="11" lengthAdjust="spacingAndGlyphs" textLength="99" x="639" y="902.3198">calculate(): boolean</text><ellipse cx="630" cy="912.8164" fill="#84BE84" rx="3" ry="3" style="stroke: #038048; stroke-width: 1.0;"/><text fill="#000000" font-family="sans-serif" font-size="11" lengthAdjust="spacingAndGlyphs" textLength="165" x="639" y="915.1245">accept(nodeVisitor: INodeVisitor)</text><!--class NotGate--><rect fill="#FEFECE" filter="url(#fmlxa32qxjb5b)" height="99.2188" id="NotGate" style="stroke: #A80036; stroke-width: 1.5;" width="250" x="906" y="822.5"/><ellipse cx="1003.75" cy="838.5" fill="#ADD1B2" rx="11" ry="11" style="stroke: #A80036; stroke-width: 1.0;"/><path d="M1006.2188,844.6406 Q1005.6406,844.9375 1005,845.0781 Q1004.3594,845.2344 1003.6563,845.2344 Q1001.1563,845.2344 999.8281,843.5938 Q998.5156,841.9375 998.5156,838.8125 Q998.5156,835.6875 999.8281,834.0313 Q1001.1563,832.375 1003.6563,832.375 Q1004.3594,832.375 1005,832.5313 Q1005.6563,832.6875 1006.2188,832.9844 L1006.2188,835.7031 Q1005.5938,835.125 1005,834.8594 Q1004.4063,834.5781 1003.7813,834.5781 Q1002.4375,834.5781 1001.75,835.6563 Q1001.0625,836.7188 1001.0625,838.8125 Q1001.0625,840.9063 1001.75,841.9844 Q1002.4375,843.0469 1003.7813,843.0469 Q1004.4063,843.0469 1005,842.7813 Q1005.5938,842.5 1006.2188,841.9219 L1006.2188,844.6406 Z "/><text fill="#000000" font-family="sans-serif" font-size="12" lengthAdjust="spacingAndGlyphs" textLength="46" x="1024.25" y="842.6543">NotGate</text><line style="stroke: #A80036; stroke-width: 1.5;" x1="907" x2="1155" y1="854.5" y2="854.5"/><line style="stroke: #A80036; stroke-width: 1.5;" x1="907" x2="1155" y1="862.5" y2="862.5"/><ellipse cx="917" cy="874.4023" fill="#84BE84" rx="3" ry="3" style="stroke: #038048; stroke-width: 1.0;"/><text fill="#000000" font-family="sans-serif" font-size="11" lengthAdjust="spacingAndGlyphs" textLength="113" x="926" y="876.7104">NotGate(name: String)</text><ellipse cx="917" cy="887.207" fill="#84BE84" rx="3" ry="3" style="stroke: #038048; stroke-width: 1.0;"/><text fill="#000000" font-family="sans-serif" font-size="11" lengthAdjust="spacingAndGlyphs" textLength="224" x="926" y="889.5151">NotGate(parents: List&lt;Node&gt;, name: String)</text><ellipse cx="917" cy="900.0117" fill="#84BE84" rx="3" ry="3" style="stroke: #038048; stroke-width: 1.0;"/><text fill="#000000" font-family="sans-serif" font-size="11" lengthAdjust="spacingAndGlyphs" textLength="99" x="926" y="902.3198">calculate(): boolean</text><ellipse cx="917" cy="912.8164" fill="#84BE84" rx="3" ry="3" style="stroke: #038048; stroke-width: 1.0;"/><text fill="#000000" font-family="sans-serif" font-size="11" lengthAdjust="spacingAndGlyphs" textLength="165" x="926" y="915.1245">accept(nodeVisitor: INodeVisitor)</text><!--class OrGate--><rect fill="#FEFECE" filter="url(#fmlxa32qxjb5b)" height="99.2188" id="OrGate" style="stroke: #A80036; stroke-width: 1.5;" width="244" x="1191" y="822.5"/><ellipse cx="1288.75" cy="838.5" fill="#ADD1B2" rx="11" ry="11" style="stroke: #A80036; stroke-width: 1.0;"/><path d="M1291.2188,844.6406 Q1290.6406,844.9375 1290,845.0781 Q1289.3594,845.2344 1288.6563,845.2344 Q1286.1563,845.2344 1284.8281,843.5938 Q1283.5156,841.9375 1283.5156,838.8125 Q1283.5156,835.6875 1284.8281,834.0313 Q1286.1563,832.375 1288.6563,832.375 Q1289.3594,832.375 1290,832.5313 Q1290.6563,832.6875 1291.2188,832.9844 L1291.2188,835.7031 Q1290.5938,835.125 1290,834.8594 Q1289.4063,834.5781 1288.7813,834.5781 Q1287.4375,834.5781 1286.75,835.6563 Q1286.0625,836.7188 1286.0625,838.8125 Q1286.0625,840.9063 1286.75,841.9844 Q1287.4375,843.0469 1288.7813,843.0469 Q1289.4063,843.0469 1290,842.7813 Q1290.5938,842.5 1291.2188,841.9219 L1291.2188,844.6406 Z "/><text fill="#000000" font-family="sans-serif" font-size="12" lengthAdjust="spacingAndGlyphs" textLength="40" x="1309.25" y="842.6543">OrGate</text><line style="stroke: #A80036; stroke-width: 1.5;" x1="1192" x2="1434" y1="854.5" y2="854.5"/><line style="stroke: #A80036; stroke-width: 1.5;" x1="1192" x2="1434" y1="862.5" y2="862.5"/><ellipse cx="1202" cy="874.4023" fill="#84BE84" rx="3" ry="3" style="stroke: #038048; stroke-width: 1.0;"/><text fill="#000000" font-family="sans-serif" font-size="11" lengthAdjust="spacingAndGlyphs" textLength="107" x="1211" y="876.7104">OrGate(name: String)</text><ellipse cx="1202" cy="887.207" fill="#84BE84" rx="3" ry="3" style="stroke: #038048; stroke-width: 1.0;"/><text fill="#000000" font-family="sans-serif" font-size="11" lengthAdjust="spacingAndGlyphs" textLength="218" x="1211" y="889.5151">OrGate(parents: List&lt;Node&gt;, name: String)</text><ellipse cx="1202" cy="900.0117" fill="#84BE84" rx="3" ry="3" style="stroke: #038048; stroke-width: 1.0;"/><text fill="#000000" font-family="sans-serif" font-size="11" lengthAdjust="spacingAndGlyphs" textLength="99" x="1211" y="902.3198">calculate(): boolean</text><ellipse cx="1202" cy="912.8164" fill="#84BE84" rx="3" ry="3" style="stroke: #038048; stroke-width: 1.0;"/><text fill="#000000" font-family="sans-serif" font-size="11" lengthAdjust="spacingAndGlyphs" textLength="165" x="1211" y="915.1245">accept(nodeVisitor: INodeVisitor)</text><!--class XOrGate--><rect fill="#FEFECE" filter="url(#fmlxa32qxjb5b)" height="99.2188" id="XOrGate" style="stroke: #A80036; stroke-width: 1.5;" width="251" x="1470.5" y="822.5"/><ellipse cx="1567.75" cy="838.5" fill="#ADD1B2" rx="11" ry="11" style="stroke: #A80036; stroke-width: 1.0;"/><path d="M1570.2188,844.6406 Q1569.6406,844.9375 1569,845.0781 Q1568.3594,845.2344 1567.6563,845.2344 Q1565.1563,845.2344 1563.8281,843.5938 Q1562.5156,841.9375 1562.5156,838.8125 Q1562.5156,835.6875 1563.8281,834.0313 Q1565.1563,832.375 1567.6563,832.375 Q1568.3594,832.375 1569,832.5313 Q1569.6563,832.6875 1570.2188,832.9844 L1570.2188,835.7031 Q1569.5938,835.125 1569,834.8594 Q1568.4063,834.5781 1567.7813,834.5781 Q1566.4375,834.5781 1565.75,835.6563 Q1565.0625,836.7188 1565.0625,838.8125 Q1565.0625,840.9063 1565.75,841.9844 Q1566.4375,843.0469 1567.7813,843.0469 Q1568.4063,843.0469 1569,842.7813 Q1569.5938,842.5 1570.2188,841.9219 L1570.2188,844.6406 Z "/><text fill="#000000" font-family="sans-serif" font-size="12" lengthAdjust="spacingAndGlyphs" textLength="48" x="1588.25" y="842.6543">XOrGate</text><line style="stroke: #A80036; stroke-width: 1.5;" x1="1471.5" x2="1720.5" y1="854.5" y2="854.5"/><line style="stroke: #A80036; stroke-width: 1.5;" x1="1471.5" x2="1720.5" y1="862.5" y2="862.5"/><ellipse cx="1481.5" cy="874.4023" fill="#84BE84" rx="3" ry="3" style="stroke: #038048; stroke-width: 1.0;"/><text fill="#000000" font-family="sans-serif" font-size="11" lengthAdjust="spacingAndGlyphs" textLength="114" x="1490.5" y="876.7104">XOrGate(name: String)</text><ellipse cx="1481.5" cy="887.207" fill="#84BE84" rx="3" ry="3" style="stroke: #038048; stroke-width: 1.0;"/><text fill="#000000" font-family="sans-serif" font-size="11" lengthAdjust="spacingAndGlyphs" textLength="225" x="1490.5" y="889.5151">XOrGate(parents: List&lt;Node&gt;, name: String)</text><ellipse cx="1481.5" cy="900.0117" fill="#84BE84" rx="3" ry="3" style="stroke: #038048; stroke-width: 1.0;"/><text fill="#000000" font-family="sans-serif" font-size="11" lengthAdjust="spacingAndGlyphs" textLength="99" x="1490.5" y="902.3198">calculate(): boolean</text><ellipse cx="1481.5" cy="912.8164" fill="#84BE84" rx="3" ry="3" style="stroke: #038048; stroke-width: 1.0;"/><text fill="#000000" font-family="sans-serif" font-size="11" lengthAdjust="spacingAndGlyphs" textLength="165" x="1490.5" y="915.1245">accept(nodeVisitor: INodeVisitor)</text><!--link Node to ISimulationListener--><path d="M1169.05,540.33 C1180.03,556.65 1192.16,572.84 1205,587 C1230.39,615.01 1264.56,640.87 1291.06,658.98 " fill="none" id="Node-ISimulationListener" style="stroke: #A80036; stroke-width: 1.0;"/><polygon fill="#A80036" points="1295.25,661.82,1290.0466,653.4579,1291.1119,659.0135,1285.5563,660.0789,1295.25,661.82" style="stroke: #A80036; stroke-width: 1.0;"/><rect fill="none" height="6" style="stroke: #C82930; stroke-width: 1.0;" width="6" x="1208" y="576.0755"/><text fill="#000000" font-family="sans-serif" font-size="13" lengthAdjust="spacingAndGlyphs" textLength="118" x="1218" y="583.0814">simulationListeners</text><text fill="#000000" font-family="sans-serif" font-size="13" lengthAdjust="spacingAndGlyphs" textLength="22" x="1261.0141" y="650.8027">0..*</text><!--link Node to NodeComposite--><path d="M1073,559.8 C1072.28,563.23 1071.61,566.63 1071,570 C1068.29,585.05 1066.76,601.37 1065.94,616.86 " fill="none" id="Node-NodeComposite" style="stroke: #A80036; stroke-width: 1.0;"/><polygon fill="none" points="1066.26,557.92,1077.72,540.1,1079.87,561.18,1066.26,557.92" style="stroke: #A80036; stroke-width: 1.0;"/><!--link NodeComposite to Node--><path d="M1079.09,616.75 C1083.35,594.56 1088.18,569.4 1092.83,545.16 " fill="none" id="NodeComposite-Node" style="stroke: #A80036; stroke-width: 1.0;"/><polygon fill="#A80036" points="1093.82,540,1088.1958,548.0851,1092.8779,544.9104,1096.0525,549.5925,1093.82,540" style="stroke: #A80036; stroke-width: 1.0;"/><polygon fill="none" points="1092,574.0755,1096,578.0755,1092,582.0755,1088,578.0755" style="stroke: #B38D22; stroke-width: 1.0;"/><text fill="#000000" font-family="sans-serif" font-size="13" lengthAdjust="spacingAndGlyphs" textLength="47" x="1099" y="583.0814">parents</text><text fill="#000000" font-family="sans-serif" font-size="13" lengthAdjust="spacingAndGlyphs" textLength="0" x="1080.2337" y="605.9433"/><text fill="#000000" font-family="sans-serif" font-size="13" lengthAdjust="spacingAndGlyphs" textLength="22" x="1069.698" y="559.7277">1..*</text><!--link Circuit to Node--><path d="M1330.01,261 C1317.5,271.13 1304.99,281.26 1293,291 C1275.67,305.07 1257.43,319.92 1239.48,334.56 " fill="none" id="Circuit-Node" style="stroke: #A80036; stroke-width: 1.0;"/><polygon fill="#A80036" points="1235.41,337.88,1244.9174,335.3091,1239.2906,334.727,1239.8727,329.1002,1235.41,337.88" style="stroke: #A80036; stroke-width: 1.0;"/><rect fill="none" height="6" style="stroke: #C82930; stroke-width: 1.0;" width="6" x="1296" y="297.0755"/><text fill="#000000" font-family="sans-serif" font-size="13" lengthAdjust="spacingAndGlyphs" textLength="37" x="1306" y="304.0814">nodes</text><text fill="#000000" font-family="sans-serif" font-size="13" lengthAdjust="spacingAndGlyphs" textLength="0" x="1321.1513" y="280.7277"/><text fill="#000000" font-family="sans-serif" font-size="13" lengthAdjust="spacingAndGlyphs" textLength="22" x="1221.5917" y="327.0028">0..*</text><!--link Circuit to Input--><path d="M1477.36,261.38 C1482.83,286.35 1488.4,313.09 1493,338 C1511.48,437.98 1527.97,555.08 1537.2,624.49 " fill="none" id="Circuit-Input" style="stroke: #A80036; stroke-width: 1.0;"/><polygon fill="#A80036" points="1537.91,629.82,1540.6926,620.3724,1537.2529,624.8634,1532.762,621.4237,1537.91,629.82" style="stroke: #A80036; stroke-width: 1.0;"/><rect fill="none" height="6" style="stroke: #C82930; stroke-width: 1.0;" width="6" x="1527" y="436.5755"/><text fill="#000000" font-family="sans-serif" font-size="13" lengthAdjust="spacingAndGlyphs" textLength="38" x="1537" y="443.5814">inputs</text><text fill="#000000" font-family="sans-serif" font-size="13" lengthAdjust="spacingAndGlyphs" textLength="0" x="1478.7951" y="280.7934"/><text fill="#000000" font-family="sans-serif" font-size="13" lengthAdjust="spacingAndGlyphs" textLength="22" x="1513.5922" y="618.7506">0..*</text><!--link Circuit to Probe--><path d="M1531.31,261.39 C1549.26,286 1567.83,312.59 1584,338 C1689.56,503.93 1795.79,711.04 1845.67,811.22 " fill="none" id="Circuit-Probe" style="stroke: #A80036; stroke-width: 1.0;"/><polygon fill="#A80036" points="1848,815.91,1847.5654,806.0707,1845.7697,811.435,1840.4054,809.6393,1848,815.91" style="stroke: #A80036; stroke-width: 1.0;"/><rect fill="none" height="6" style="stroke: #C82930; stroke-width: 1.0;" width="6" x="1731" y="576.0755"/><text fill="#000000" font-family="sans-serif" font-size="13" lengthAdjust="spacingAndGlyphs" textLength="42" x="1741" y="583.0814">probes</text><text fill="#000000" font-family="sans-serif" font-size="13" lengthAdjust="spacingAndGlyphs" textLength="0" x="1536.3699" y="280.8041"/><text fill="#000000" font-family="sans-serif" font-size="13" lengthAdjust="spacingAndGlyphs" textLength="22" x="1821.1313" y="804.8521">0..*</text><!--link Circuit to ISimulationListener--><path d="M1385.78,261.14 C1372.49,285.32 1360.41,311.78 1353,338 C1322.9,444.55 1354.07,476.65 1345,587 C1343.07,610.45 1339.48,636.9 1336.56,656.4 " fill="none" id="Circuit-ISimulationListener" style="stroke: #A80036; stroke-width: 1.0;"/><polygon fill="#A80036" points="1335.76,661.71,1341.0496,653.4022,1336.501,656.7652,1333.138,652.2166,1335.76,661.71" style="stroke: #A80036; stroke-width: 1.0;"/><rect fill="none" height="6" style="stroke: #C82930; stroke-width: 1.0;" width="6" x="1356" y="436.5755"/><text fill="#000000" font-family="sans-serif" font-size="13" lengthAdjust="spacingAndGlyphs" textLength="118" x="1366" y="443.5814">simulationListeners</text><text fill="#000000" font-family="sans-serif" font-size="13" lengthAdjust="spacingAndGlyphs" textLength="22" x="1311.9953" y="651.061">0..*</text><!--link Node to Input--><path d="M1300.32,546.23 C1351.16,575.07 1404.17,605.13 1447.79,629.87 " fill="none" id="Node-Input" style="stroke: #A80036; stroke-width: 1.0;"/><polygon fill="none" points="1296.75,552.26,1282.81,536.3,1303.66,540.08,1296.75,552.26" style="stroke: #A80036; stroke-width: 1.0;"/><!--link NodeComposite to Probe--><path d="M1229.2,750.55 C1234.84,752.14 1240.45,753.63 1246,755 C1460.34,807.94 1525.29,760.59 1739,816 C1744.92,817.53 1750.92,819.26 1756.94,821.14 " fill="none" id="NodeComposite-Probe" style="stroke: #A80036; stroke-width: 1.0;"/><polygon fill="none" points="1227.12,757.23,1209.96,744.8,1231.13,743.82,1227.12,757.23" style="stroke: #A80036; stroke-width: 1.0;"/><!--link NodeComposite to AndGate--><path d="M902.26,705.27 C747.14,724.82 508.59,760.69 307,816 C299.95,817.94 292.76,820.09 285.54,822.39 " fill="none" id="NodeComposite-AndGate" style="stroke: #A80036; stroke-width: 1.0;"/><polygon fill="none" points="901.46,698.32,922.17,702.8,903.18,712.21,901.46,698.32" style="stroke: #A80036; stroke-width: 1.0;"/><!--link NodeComposite to NAndGate--><path d="M902.82,728.75 C813.43,752.52 701,783.91 602,816 C595.61,818.07 589.09,820.25 582.52,822.5 " fill="none" id="NodeComposite-NAndGate" style="stroke: #A80036; stroke-width: 1.0;"/><polygon fill="none" points="901.27,721.92,922.4,723.56,904.86,735.45,901.27,721.92" style="stroke: #A80036; stroke-width: 1.0;"/><!--link NodeComposite to NOrGate--><path d="M929.41,765.3 C895.59,784.68 860.33,804.89 829.8,822.39 " fill="none" id="NodeComposite-NOrGate" style="stroke: #A80036; stroke-width: 1.0;"/><polygon fill="none" points="926.09,759.13,946.93,755.25,933.06,771.27,926.09,759.13" style="stroke: #A80036; stroke-width: 1.0;"/><!--link NodeComposite to NotGate--><path d="M1049.27,774.95 C1046.16,791.28 1043.03,807.78 1040.25,822.39 " fill="none" id="NodeComposite-NotGate" style="stroke: #A80036; stroke-width: 1.0;"/><polygon fill="none" points="1042.4,773.59,1053.02,755.25,1056.16,776.21,1042.4,773.59" style="stroke: #A80036; stroke-width: 1.0;"/><!--link NodeComposite to OrGate--><path d="M1173.97,767.43 C1199.11,786.16 1225.12,805.53 1247.75,822.39 " fill="none" id="NodeComposite-OrGate" style="stroke: #A80036; stroke-width: 1.0;"/><polygon fill="none" points="1169.48,772.81,1157.62,755.25,1177.84,761.59,1169.48,772.81" style="stroke: #A80036; stroke-width: 1.0;"/><!--link NodeComposite to XOrGate--><path d="M1228.52,749.02 C1234.41,751.07 1240.25,753.07 1246,755 C1336.92,785.52 1362.17,785.2 1453,816 C1459.05,818.05 1465.21,820.2 1471.43,822.41 " fill="none" id="NodeComposite-XOrGate" style="stroke: #A80036; stroke-width: 1.0;"/><polygon fill="none" points="1226.12,755.6,1209.59,742.34,1230.78,742.4,1226.12,755.6" style="stroke: #A80036; stroke-width: 1.0;"/><!--
@startuml

package domain {
    abstract class Node {
        #value: boolean
        -name: String

        +Node(name: String)
        +getValue(): boolean
        +getName(): String
        +addToCircuit(circuit: Circuit)
        +addSimulationListener(simulationListener: ISimulationListener)
        #notifyStartCalculation()
        #notifyStopCalculation(calculatedValue: boolean)

        +{abstract}calculate(): boolean
        +{abstract}accept(nodeVisitor: INodeVisitor)
    }
    Node - -> "0..*" ISimulationListener : -simulationListeners

    abstract class NodeComposite extends Node {
        #parents: List<Node>

        +NodeComposite(parents: List<Node>, name: String)
        +add(parent: Node)
        +remove(parent: Node)
        +getParents(): List<Node>

        +{abstract}calculate(): boolean
    }
    NodeComposite " " - -> "1..*" Node : #parents

    interface INodeVisitor {
        +visit(node: Probe)
        +visit(node: Input)
        +visit(node: AndGate)
        +visit(node: NAndGate)
        +visit(node: NOrGate)
        +visit(node: OrGate)
        +visit(node: XOrGate)
    }

    class Circuit {
        +Circuit()
        +addNode(node: Node)
        +addInput(node: Input)
        +addProbe(node: Probe)
        +getNodes(): Set<Node>
        +getInputs(): Set<Input>
        +getInput(name: String)
        +getProbes(): Set<Probe>
        +getProbe(name: String)
        +simulate()
        +addSimulationListener(simulationListener: ISimulationListener)
        +addSimulationListeners(simulationListeners: Collection<ISimulationListener>)
    }
    Circuit " " - -> "0..*" Node : -nodes
    Circuit " " - -> "0..*" Input : -inputs
    Circuit " " - -> "0..*" Probe : -probes
    Circuit - -> "0..*" ISimulationListener : -simulationListeners

    class Input extends Node {
        +Input(value: boolean, name: String)
        +setValue(value: boolean)
        +calculate(): boolean
        +accept(nodeVisitor: INodeVisitor)
        +addToCircuit(circuit: Circuit)
    }

    class Probe extends NodeComposite {
        +Probe(name: String)
        +Probe(parents: List<Node>, name: String)
        +calculate(): boolean
        +accept(nodeVisitor: INodeVisitor)
        +addToCircuit(circuit: Circuit)
    }

    class AndGate extends NodeComposite {
        +AndGate(name: String)
        +AndGate(parents: List<Node>, name: String)
        +calculate(): boolean
        +accept(nodeVisitor: INodeVisitor)
    }

    class NAndGate extends NodeComposite {
        +NAndGate(name: String)
        +NAndGate(parents: List<Node>, name: String)
        +calculate(): boolean
        +accept(nodeVisitor: INodeVisitor)
    }

    class NOrGate extends NodeComposite {
        +NOrGate(name: String)
        +NOrGate(parents: List<Node>, name: String)
        +calculate(): boolean
        +accept(nodeVisitor: INodeVisitor)
    }

    class NotGate extends NodeComposite {
        +NotGate(name: String)
        +NotGate(parents: List<Node>, name: String)
        +calculate(): boolean
        +accept(nodeVisitor: INodeVisitor)
    }

    class OrGate extends NodeComposite {
        +OrGate(name: String)
        +OrGate(parents: List<Node>, name: String)
        +calculate(): boolean
        +accept(nodeVisitor: INodeVisitor)
    }

    class XOrGate extends NodeComposite {
        +XOrGate(name: String)
        +XOrGate(parents: List<Node>, name: String)
        +calculate(): boolean
        +accept(nodeVisitor: INodeVisitor)
    }
}

@enduml

PlantUML version 1.2018.12(Sun Oct 21 12:15:15 CEST 2018)
(GPL source distribution)
Java Runtime: OpenJDK Runtime Environment
JVM: OpenJDK 64-Bit Server VM
Java Version: 11.0.6+8-b520.43
Operating System: Linux
OS Version: 5.4.43-1-MANJARO
Default Encoding: UTF-8
Language: en
Country: US
--></g></svg>