<?xml version="1.0" encoding="UTF-8" standalone="no"?><svg xmlns="http://www.w3.org/2000/svg" xmlns:xlink="http://www.w3.org/1999/xlink" contentScriptType="application/ecmascript" contentStyleType="text/css" height="522px" preserveAspectRatio="none" style="width:763px;height:522px;" version="1.1" viewBox="0 0 763 522" width="763px" zoomAndPan="magnify"><defs><filter height="300%" id="fygthu3f6exel" width="300%" x="-1" y="-1"><feGaussianBlur result="blurOut" stdDeviation="2.0"/><feColorMatrix in="blurOut" result="blurOut2" type="matrix" values="0 0 0 0 0 0 0 0 0 0 0 0 0 0 0 0 0 0 .4 0"/><feOffset dx="4.0" dy="4.0" in="blurOut2" result="blurOut3"/><feBlend in="SourceGraphic" in2="blurOut3" mode="normal"/></filter></defs><g><!--cluster text--><polygon fill="#FFFFFF" filter="url(#fygthu3f6exel)" points="22,24,58,24,65,46.2969,741,46.2969,741,510,22,510,22,24" style="stroke: #000000; stroke-width: 1.5;"/><line style="stroke: #000000; stroke-width: 1.5;" x1="22" x2="65" y1="46.2969" y2="46.2969"/><text fill="#000000" font-family="sans-serif" font-size="14" font-weight="bold" lengthAdjust="spacingAndGlyphs" textLength="30" x="26" y="38.9951">text</text><!--class TableNodeData--><rect fill="#FEFECE" filter="url(#fygthu3f6exel)" height="163.2422" id="TableNodeData" style="stroke: #A80036; stroke-width: 1.5;" width="431" x="293.5" y="331"/><ellipse cx="461.25" cy="347" fill="#ADD1B2" rx="11" ry="11" style="stroke: #A80036; stroke-width: 1.0;"/><path d="M463.7188,353.1406 Q463.1406,353.4375 462.5,353.5781 Q461.8594,353.7344 461.1563,353.7344 Q458.6563,353.7344 457.3281,352.0938 Q456.0156,350.4375 456.0156,347.3125 Q456.0156,344.1875 457.3281,342.5313 Q458.6563,340.875 461.1563,340.875 Q461.8594,340.875 462.5,341.0313 Q463.1563,341.1875 463.7188,341.4844 L463.7188,344.2031 Q463.0938,343.625 462.5,343.3594 Q461.9063,343.0781 461.2813,343.0781 Q459.9375,343.0781 459.25,344.1563 Q458.5625,345.2188 458.5625,347.3125 Q458.5625,349.4063 459.25,350.4844 Q459.9375,351.5469 461.2813,351.5469 Q461.9063,351.5469 462.5,351.2813 Q463.0938,351 463.7188,350.4219 L463.7188,353.1406 Z "/><text fill="#000000" font-family="sans-serif" font-size="12" lengthAdjust="spacingAndGlyphs" textLength="87" x="481.75" y="351.1543">TableNodeData</text><line style="stroke: #A80036; stroke-width: 1.5;" x1="294.5" x2="723.5" y1="363" y2="363"/><rect fill="none" height="6" style="stroke: #C82930; stroke-width: 1.0;" width="6" x="301.5" y="371.9023"/><text fill="#000000" font-family="sans-serif" font-size="11" lengthAdjust="spacingAndGlyphs" textLength="63" x="313.5" y="377.2104">name: String</text><rect fill="none" height="6" style="stroke: #C82930; stroke-width: 1.0;" width="6" x="301.5" y="384.707"/><text fill="#000000" font-family="sans-serif" font-size="11" lengthAdjust="spacingAndGlyphs" textLength="57" x="313.5" y="390.0151">type: String</text><rect fill="none" height="6" style="stroke: #C82930; stroke-width: 1.0;" width="6" x="301.5" y="397.5117"/><text fill="#000000" font-family="sans-serif" font-size="11" lengthAdjust="spacingAndGlyphs" textLength="77" x="313.5" y="402.8198">output: boolean</text><rect fill="none" height="6" style="stroke: #C82930; stroke-width: 1.0;" width="6" x="301.5" y="410.3164"/><text fill="#000000" font-family="sans-serif" font-size="11" lengthAdjust="spacingAndGlyphs" textLength="105" x="313.5" y="415.6245">parents: List&lt;Node&gt;</text><line style="stroke: #A80036; stroke-width: 1.5;" x1="294.5" x2="723.5" y1="422.2188" y2="422.2188"/><ellipse cx="304.5" cy="434.1211" fill="#84BE84" rx="3" ry="3" style="stroke: #038048; stroke-width: 1.0;"/><text fill="#000000" font-family="sans-serif" font-size="11" lengthAdjust="spacingAndGlyphs" textLength="405" x="313.5" y="436.4292">TableNodeData(type: String, name: String, output: boolean, parents: List&lt;Node&gt;)</text><ellipse cx="304.5" cy="446.9258" fill="#84BE84" rx="3" ry="3" style="stroke: #038048; stroke-width: 1.0;"/><text fill="#000000" font-family="sans-serif" font-size="11" lengthAdjust="spacingAndGlyphs" textLength="89" x="313.5" y="449.2339">getName(): String</text><ellipse cx="304.5" cy="459.7305" fill="#84BE84" rx="3" ry="3" style="stroke: #038048; stroke-width: 1.0;"/><text fill="#000000" font-family="sans-serif" font-size="11" lengthAdjust="spacingAndGlyphs" textLength="83" x="313.5" y="462.0386">getType(): String</text><ellipse cx="304.5" cy="472.5352" fill="#84BE84" rx="3" ry="3" style="stroke: #038048; stroke-width: 1.0;"/><text fill="#000000" font-family="sans-serif" font-size="11" lengthAdjust="spacingAndGlyphs" textLength="93" x="313.5" y="474.8433">getOutput(): String</text><ellipse cx="304.5" cy="485.3398" fill="#84BE84" rx="3" ry="3" style="stroke: #038048; stroke-width: 1.0;"/><text fill="#000000" font-family="sans-serif" font-size="11" lengthAdjust="spacingAndGlyphs" textLength="96" x="313.5" y="487.6479">getParents(): String</text><!--class TableNodeDrawingVisitor--><rect fill="#FEFECE" filter="url(#fygthu3f6exel)" height="163.2422" id="TableNodeDrawingVisitor" style="stroke: #A80036; stroke-width: 1.5;" width="173" x="38.5" y="331"/><ellipse cx="53.5" cy="347" fill="#ADD1B2" rx="11" ry="11" style="stroke: #A80036; stroke-width: 1.0;"/><path d="M55.9688,353.1406 Q55.3906,353.4375 54.75,353.5781 Q54.1094,353.7344 53.4063,353.7344 Q50.9063,353.7344 49.5781,352.0938 Q48.2656,350.4375 48.2656,347.3125 Q48.2656,344.1875 49.5781,342.5313 Q50.9063,340.875 53.4063,340.875 Q54.1094,340.875 54.75,341.0313 Q55.4063,341.1875 55.9688,341.4844 L55.9688,344.2031 Q55.3438,343.625 54.75,343.3594 Q54.1563,343.0781 53.5313,343.0781 Q52.1875,343.0781 51.5,344.1563 Q50.8125,345.2188 50.8125,347.3125 Q50.8125,349.4063 51.5,350.4844 Q52.1875,351.5469 53.5313,351.5469 Q54.1563,351.5469 54.75,351.2813 Q55.3438,351 55.9688,350.4219 L55.9688,353.1406 Z "/><text fill="#000000" font-family="sans-serif" font-size="12" lengthAdjust="spacingAndGlyphs" textLength="141" x="67.5" y="351.1543">TableNodeDrawingVisitor</text><line style="stroke: #A80036; stroke-width: 1.5;" x1="39.5" x2="210.5" y1="363" y2="363"/><rect fill="none" height="6" style="stroke: #C82930; stroke-width: 1.0;" width="6" x="46.5" y="371.9023"/><text fill="#000000" font-family="sans-serif" font-size="11" lengthAdjust="spacingAndGlyphs" textLength="110" x="58.5" y="377.2104">value: TableNodeData</text><line style="stroke: #A80036; stroke-width: 1.5;" x1="39.5" x2="210.5" y1="383.8047" y2="383.8047"/><ellipse cx="49.5" cy="395.707" fill="#84BE84" rx="3" ry="3" style="stroke: #038048; stroke-width: 1.0;"/><text fill="#000000" font-family="sans-serif" font-size="11" lengthAdjust="spacingAndGlyphs" textLength="135" x="58.5" y="398.0151">getValue(): TableNodeData</text><ellipse cx="49.5" cy="408.5117" fill="#84BE84" rx="3" ry="3" style="stroke: #038048; stroke-width: 1.0;"/><text fill="#000000" font-family="sans-serif" font-size="11" lengthAdjust="spacingAndGlyphs" textLength="87" x="58.5" y="410.8198">visit(node: Probe)</text><ellipse cx="49.5" cy="421.3164" fill="#84BE84" rx="3" ry="3" style="stroke: #038048; stroke-width: 1.0;"/><text fill="#000000" font-family="sans-serif" font-size="11" lengthAdjust="spacingAndGlyphs" textLength="84" x="58.5" y="423.6245">visit(node: Input)</text><ellipse cx="49.5" cy="434.1211" fill="#84BE84" rx="3" ry="3" style="stroke: #038048; stroke-width: 1.0;"/><text fill="#000000" font-family="sans-serif" font-size="11" lengthAdjust="spacingAndGlyphs" textLength="102" x="58.5" y="436.4292">visit(node: AndGate)</text><ellipse cx="49.5" cy="446.9258" fill="#84BE84" rx="3" ry="3" style="stroke: #038048; stroke-width: 1.0;"/><text fill="#000000" font-family="sans-serif" font-size="11" lengthAdjust="spacingAndGlyphs" textLength="110" x="58.5" y="449.2339">visit(node: NAndGate)</text><ellipse cx="49.5" cy="459.7305" fill="#84BE84" rx="3" ry="3" style="stroke: #038048; stroke-width: 1.0;"/><text fill="#000000" font-family="sans-serif" font-size="11" lengthAdjust="spacingAndGlyphs" textLength="103" x="58.5" y="462.0386">visit(node: NOrGate)</text><ellipse cx="49.5" cy="472.5352" fill="#84BE84" rx="3" ry="3" style="stroke: #038048; stroke-width: 1.0;"/><text fill="#000000" font-family="sans-serif" font-size="11" lengthAdjust="spacingAndGlyphs" textLength="95" x="58.5" y="474.8433">visit(node: OrGate)</text><ellipse cx="49.5" cy="485.3398" fill="#84BE84" rx="3" ry="3" style="stroke: #038048; stroke-width: 1.0;"/><text fill="#000000" font-family="sans-serif" font-size="11" lengthAdjust="spacingAndGlyphs" textLength="102" x="58.5" y="487.6479">visit(node: XOrGate)</text><!--class INodeVisitor--><rect fill="#FEFECE" filter="url(#fygthu3f6exel)" height="48" id="INodeVisitor" style="stroke: #A80036; stroke-width: 1.5;" width="99" x="431.5" y="187"/><ellipse cx="446.5" cy="203" fill="#B4A7E5" rx="11" ry="11" style="stroke: #A80036; stroke-width: 1.0;"/><path d="M442.9219,198.7656 L442.9219,196.6094 L450.3125,196.6094 L450.3125,198.7656 L447.8438,198.7656 L447.8438,206.8438 L450.3125,206.8438 L450.3125,209 L442.9219,209 L442.9219,206.8438 L445.3906,206.8438 L445.3906,198.7656 L442.9219,198.7656 Z "/><text fill="#000000" font-family="sans-serif" font-size="12" font-style="italic" lengthAdjust="spacingAndGlyphs" textLength="67" x="460.5" y="207.1543">INodeVisitor</text><line style="stroke: #A80036; stroke-width: 1.5;" x1="432.5" x2="529.5" y1="219" y2="219"/><line style="stroke: #A80036; stroke-width: 1.5;" x1="432.5" x2="529.5" y1="227" y2="227"/><!--class TextSimulationView--><rect fill="#FEFECE" filter="url(#fygthu3f6exel)" height="86.4141" id="TextSimulationView" style="stroke: #A80036; stroke-width: 1.5;" width="358" x="38" y="168"/><ellipse cx="157.25" cy="184" fill="#ADD1B2" rx="11" ry="11" style="stroke: #A80036; stroke-width: 1.0;"/><path d="M159.7188,190.1406 Q159.1406,190.4375 158.5,190.5781 Q157.8594,190.7344 157.1563,190.7344 Q154.6563,190.7344 153.3281,189.0938 Q152.0156,187.4375 152.0156,184.3125 Q152.0156,181.1875 153.3281,179.5313 Q154.6563,177.875 157.1563,177.875 Q157.8594,177.875 158.5,178.0313 Q159.1563,178.1875 159.7188,178.4844 L159.7188,181.2031 Q159.0938,180.625 158.5,180.3594 Q157.9063,180.0781 157.2813,180.0781 Q155.9375,180.0781 155.25,181.1563 Q154.5625,182.2188 154.5625,184.3125 Q154.5625,186.4063 155.25,187.4844 Q155.9375,188.5469 157.2813,188.5469 Q157.9063,188.5469 158.5,188.2813 Q159.0938,188 159.7188,187.4219 L159.7188,190.1406 Z "/><text fill="#000000" font-family="sans-serif" font-size="12" lengthAdjust="spacingAndGlyphs" textLength="111" x="177.75" y="188.1543">TextSimulationView</text><line style="stroke: #A80036; stroke-width: 1.5;" x1="39" x2="395" y1="200" y2="200"/><line style="stroke: #A80036; stroke-width: 1.5;" x1="39" x2="395" y1="208" y2="208"/><ellipse cx="49" cy="219.9023" fill="#84BE84" rx="3" ry="3" style="stroke: #038048; stroke-width: 1.0;"/><text fill="#000000" font-family="sans-serif" font-size="11" lengthAdjust="spacingAndGlyphs" textLength="332" x="58" y="222.2104">TextSimulationView(controller: Controller, viewModel: ViewModel)</text><polygon fill="#FFFF44" points="49,227.707,53,231.707,49,235.707,45,231.707" style="stroke: #B38D22; stroke-width: 1.0;"/><text fill="#000000" font-family="sans-serif" font-size="11" lengthAdjust="spacingAndGlyphs" textLength="46" x="58" y="235.0151">setupUi()</text><polygon fill="#FFFF44" points="49,240.5117,53,244.5117,49,248.5117,45,244.5117" style="stroke: #B38D22; stroke-width: 1.0;"/><text fill="#000000" font-family="sans-serif" font-size="11" lengthAdjust="spacingAndGlyphs" textLength="104" x="58" y="247.8198">draw(circuit: Circuit)</text><!--class AbstractSimulationView--><rect fill="#FEFECE" filter="url(#fygthu3f6exel)" height="48" id="AbstractSimulationView" style="stroke: #A80036; stroke-width: 1.5;" width="164" x="135" y="59"/><ellipse cx="150" cy="75" fill="#ADD1B2" rx="11" ry="11" style="stroke: #A80036; stroke-width: 1.0;"/><path d="M152.4688,81.1406 Q151.8906,81.4375 151.25,81.5781 Q150.6094,81.7344 149.9063,81.7344 Q147.4063,81.7344 146.0781,80.0938 Q144.7656,78.4375 144.7656,75.3125 Q144.7656,72.1875 146.0781,70.5313 Q147.4063,68.875 149.9063,68.875 Q150.6094,68.875 151.25,69.0313 Q151.9063,69.1875 152.4688,69.4844 L152.4688,72.2031 Q151.8438,71.625 151.25,71.3594 Q150.6563,71.0781 150.0313,71.0781 Q148.6875,71.0781 148,72.1563 Q147.3125,73.2188 147.3125,75.3125 Q147.3125,77.4063 148,78.4844 Q148.6875,79.5469 150.0313,79.5469 Q150.6563,79.5469 151.25,79.2813 Q151.8438,79 152.4688,78.4219 L152.4688,81.1406 Z "/><text fill="#000000" font-family="sans-serif" font-size="12" lengthAdjust="spacingAndGlyphs" textLength="132" x="164" y="79.1543">AbstractSimulationView</text><line style="stroke: #A80036; stroke-width: 1.5;" x1="136" x2="298" y1="91" y2="91"/><line style="stroke: #A80036; stroke-width: 1.5;" x1="136" x2="298" y1="99" y2="99"/><!--link INodeVisitor to TableNodeDrawingVisitor--><path d="M427.65,245.85 C423.05,248.64 418.46,251.39 414,254 C376.7,275.83 282.6,326.84 211.83,364.93 " fill="none" id="INodeVisitor-TableNodeDrawingVisitor" style="stroke: #A80036; stroke-width: 1.0; stroke-dasharray: 7.0,7.0;"/><polygon fill="none" points="424.39,239.63,445.08,235.08,431.75,251.54,424.39,239.63" style="stroke: #A80036; stroke-width: 1.0;"/><!--link TableNodeDrawingVisitor to TableNodeData--><path d="M211.66,412.5 C234.98,412.5 261.31,412.5 288.41,412.5 " fill="none" id="TableNodeDrawingVisitor-TableNodeData" style="stroke: #A80036; stroke-width: 1.0;"/><polygon fill="#A80036" points="293.48,412.5,284.48,408.5,288.48,412.5,284.48,416.5,293.48,412.5" style="stroke: #A80036; stroke-width: 1.0;"/><rect fill="none" height="6" style="stroke: #C82930; stroke-width: 1.0;" width="6" x="232" y="398.5755"/><text fill="#000000" font-family="sans-serif" font-size="13" lengthAdjust="spacingAndGlyphs" textLength="33" x="242" y="405.5814">value</text><text fill="#000000" font-family="sans-serif" font-size="13" lengthAdjust="spacingAndGlyphs" textLength="8" x="277.591" y="409.3102">1</text><!--link AbstractSimulationView to TextSimulationView--><path d="M217,127.5 C217,140.59 217,154.93 217,167.92 " fill="none" id="AbstractSimulationView-TextSimulationView" style="stroke: #A80036; stroke-width: 1.0;"/><polygon fill="none" points="210,127.11,217,107.11,224,127.11,210,127.11" style="stroke: #A80036; stroke-width: 1.0;"/><!--link TextSimulationView to TableNodeDrawingVisitor--><path d="M197.49,254.31 C187.81,275.31 175.75,301.45 164.26,326.36 " fill="none" id="TextSimulationView-TableNodeDrawingVisitor" style="stroke: #A80036; stroke-width: 1.0;"/><polygon fill="#A80036" points="162.13,330.99,169.5372,324.499,164.228,326.4515,162.2756,321.1422,162.13,330.99" style="stroke: #A80036; stroke-width: 1.0;"/><rect fill="none" height="6" style="stroke: #C82930; stroke-width: 1.0;" width="6" x="184" y="290.0755"/><text fill="#000000" font-family="sans-serif" font-size="13" lengthAdjust="spacingAndGlyphs" textLength="36" x="194" y="297.0814">visitor</text><text fill="#000000" font-family="sans-serif" font-size="13" lengthAdjust="spacingAndGlyphs" textLength="8" x="157.1842" y="319.8616">1</text><!--
@startuml

package text {
    class TableNodeData {
        -name: String
        -type: String
        -output: boolean
        -parents: List<Node>

        +TableNodeData(type: String, name: String, output: boolean, parents: List<Node>)
        +getName(): String
        +getType(): String
        +getOutput(): String
        +getParents(): String
    }

    class TableNodeDrawingVisitor implements INodeVisitor {
        -value: TableNodeData

        +getValue(): TableNodeData
        +visit(node: Probe)
        +visit(node: Input)
        +visit(node: AndGate)
        +visit(node: NAndGate)
        +visit(node: NOrGate)
        +visit(node: OrGate)
        +visit(node: XOrGate)
    }
    TableNodeDrawingVisitor -> "1" TableNodeData: -value

    class TextSimulationView extends AbstractSimulationView {
        +TextSimulationView(controller: Controller, viewModel: ViewModel)
        #setupUi()
        #draw(circuit: Circuit)
    }
    TextSimulationView - -> "1" TableNodeDrawingVisitor : -visitor
}

@enduml

PlantUML version 1.2018.12(Sun Oct 21 12:15:15 CEST 2018)
(GPL source distribution)
Java Runtime: OpenJDK Runtime Environment
JVM: OpenJDK 64-Bit Server VM
Java Version: 11.0.6+8-b520.43
Operating System: Linux
OS Version: 5.4.43-1-MANJARO
Default Encoding: UTF-8
Language: en
Country: US
--></g></svg>