<?xml version="1.0" encoding="UTF-8" standalone="no"?>
<svg xmlns="http://www.w3.org/2000/svg"
     contentScriptType="application/ecmascript" contentStyleType="text/css" height="522px" preserveAspectRatio="none"
     style="width:569px;height:522px;" version="1.1" viewBox="0 0 569 522" width="569px" zoomAndPan="magnify">
    <defs>
        <filter height="300%" id="f1ctbvabn173lm" width="300%" x="-1" y="-1">
            <feGaussianBlur result="blurOut" stdDeviation="2.0"/>
            <feColorMatrix in="blurOut" result="blurOut2" type="matrix"
                           values="0 0 0 0 0 0 0 0 0 0 0 0 0 0 0 0 0 0 .4 0"/>
            <feOffset dx="4.0" dy="4.0" in="blurOut2" result="blurOut3"/>
            <feBlend in="SourceGraphic" in2="blurOut3" mode="normal"/>
        </filter>
    </defs>
    <g><!--cluster text-->
        <polygon fill="#FFFFFF" filter="url(#f1ctbvabn173lm)"
                 points="22,24,58,24,65,46.2969,547,46.2969,547,510,22,510,22,24"
                 style="stroke: #000000; stroke-width: 1.5;"/>
        <line style="stroke: #000000; stroke-width: 1.5;" x1="22" x2="65" y1="46.2969" y2="46.2969"/>
        <text fill="#000000" font-family="sans-serif" font-size="14" font-weight="bold" lengthAdjust="spacingAndGlyphs"
              textLength="30" x="26" y="38.9951">text
        </text><!--class TextNodeDrawingVisitor-->
        <rect fill="#FEFECE" filter="url(#f1ctbvabn173lm)" height="163.2422" id="TextNodeDrawingVisitor"
              style="stroke: #A80036; stroke-width: 1.5;" width="167" x="213.5" y="331"/>
        <ellipse cx="228.5" cy="347" fill="#ADD1B2" rx="11" ry="11" style="stroke: #A80036; stroke-width: 1.0;"/>
        <path d="M230.9688,353.1406 Q230.3906,353.4375 229.75,353.5781 Q229.1094,353.7344 228.4063,353.7344 Q225.9063,353.7344 224.5781,352.0938 Q223.2656,350.4375 223.2656,347.3125 Q223.2656,344.1875 224.5781,342.5313 Q225.9063,340.875 228.4063,340.875 Q229.1094,340.875 229.75,341.0313 Q230.4063,341.1875 230.9688,341.4844 L230.9688,344.2031 Q230.3438,343.625 229.75,343.3594 Q229.1563,343.0781 228.5313,343.0781 Q227.1875,343.0781 226.5,344.1563 Q225.8125,345.2188 225.8125,347.3125 Q225.8125,349.4063 226.5,350.4844 Q227.1875,351.5469 228.5313,351.5469 Q229.1563,351.5469 229.75,351.2813 Q230.3438,351 230.9688,350.4219 L230.9688,353.1406 Z "/>
        <text fill="#000000" font-family="sans-serif" font-size="12" lengthAdjust="spacingAndGlyphs" textLength="135"
              x="242.5" y="351.1543">TextNodeDrawingVisitor
        </text>
        <line style="stroke: #A80036; stroke-width: 1.5;" x1="214.5" x2="379.5" y1="363" y2="363"/>
        <rect fill="none" height="6" style="stroke: #C82930; stroke-width: 1.0;" width="6" x="221.5" y="371.9023"/>
        <text fill="#000000" font-family="sans-serif" font-size="11" lengthAdjust="spacingAndGlyphs" textLength="62"
              x="233.5" y="377.2104">value: String
        </text>
        <line style="stroke: #A80036; stroke-width: 1.5;" x1="214.5" x2="379.5" y1="383.8047" y2="383.8047"/>
        <ellipse cx="224.5" cy="395.707" fill="#84BE84" rx="3" ry="3" style="stroke: #038048; stroke-width: 1.0;"/>
        <text fill="#000000" font-family="sans-serif" font-size="11" lengthAdjust="spacingAndGlyphs" textLength="87"
              x="233.5" y="398.0151">getValue(): String
        </text>
        <ellipse cx="224.5" cy="408.5117" fill="#84BE84" rx="3" ry="3" style="stroke: #038048; stroke-width: 1.0;"/>
        <text fill="#000000" font-family="sans-serif" font-size="11" lengthAdjust="spacingAndGlyphs" textLength="87"
              x="233.5" y="410.8198">visit(node: Probe)
        </text>
        <ellipse cx="224.5" cy="421.3164" fill="#84BE84" rx="3" ry="3" style="stroke: #038048; stroke-width: 1.0;"/>
        <text fill="#000000" font-family="sans-serif" font-size="11" lengthAdjust="spacingAndGlyphs" textLength="84"
              x="233.5" y="423.6245">visit(node: Input)
        </text>
        <ellipse cx="224.5" cy="434.1211" fill="#84BE84" rx="3" ry="3" style="stroke: #038048; stroke-width: 1.0;"/>
        <text fill="#000000" font-family="sans-serif" font-size="11" lengthAdjust="spacingAndGlyphs" textLength="102"
              x="233.5" y="436.4292">visit(node: AndGate)
        </text>
        <ellipse cx="224.5" cy="446.9258" fill="#84BE84" rx="3" ry="3" style="stroke: #038048; stroke-width: 1.0;"/>
        <text fill="#000000" font-family="sans-serif" font-size="11" lengthAdjust="spacingAndGlyphs" textLength="110"
              x="233.5" y="449.2339">visit(node: NAndGate)
        </text>
        <ellipse cx="224.5" cy="459.7305" fill="#84BE84" rx="3" ry="3" style="stroke: #038048; stroke-width: 1.0;"/>
        <text fill="#000000" font-family="sans-serif" font-size="11" lengthAdjust="spacingAndGlyphs" textLength="103"
              x="233.5" y="462.0386">visit(node: NOrGate)
        </text>
        <ellipse cx="224.5" cy="472.5352" fill="#84BE84" rx="3" ry="3" style="stroke: #038048; stroke-width: 1.0;"/>
        <text fill="#000000" font-family="sans-serif" font-size="11" lengthAdjust="spacingAndGlyphs" textLength="95"
              x="233.5" y="474.8433">visit(node: OrGate)
        </text>
        <ellipse cx="224.5" cy="485.3398" fill="#84BE84" rx="3" ry="3" style="stroke: #038048; stroke-width: 1.0;"/>
        <text fill="#000000" font-family="sans-serif" font-size="11" lengthAdjust="spacingAndGlyphs" textLength="102"
              x="233.5" y="487.6479">visit(node: XOrGate)
        </text><!--class INodeVisitor-->
        <rect fill="#FEFECE" filter="url(#f1ctbvabn173lm)" height="48" id="INodeVisitor"
              style="stroke: #A80036; stroke-width: 1.5;" width="99" x="431.5" y="187"/>
        <ellipse cx="446.5" cy="203" fill="#B4A7E5" rx="11" ry="11" style="stroke: #A80036; stroke-width: 1.0;"/>
        <path d="M442.9219,198.7656 L442.9219,196.6094 L450.3125,196.6094 L450.3125,198.7656 L447.8438,198.7656 L447.8438,206.8438 L450.3125,206.8438 L450.3125,209 L442.9219,209 L442.9219,206.8438 L445.3906,206.8438 L445.3906,198.7656 L442.9219,198.7656 Z "/>
        <text fill="#000000" font-family="sans-serif" font-size="12" font-style="italic" lengthAdjust="spacingAndGlyphs"
              textLength="67" x="460.5" y="207.1543">INodeVisitor
        </text>
        <line style="stroke: #A80036; stroke-width: 1.5;" x1="432.5" x2="529.5" y1="219" y2="219"/>
        <line style="stroke: #A80036; stroke-width: 1.5;" x1="432.5" x2="529.5" y1="227"
              y2="227"/><!--class TextSimulationView-->
        <rect fill="#FEFECE" filter="url(#f1ctbvabn173lm)" height="86.4141" id="TextSimulationView"
              style="stroke: #A80036; stroke-width: 1.5;" width="358" x="38" y="168"/>
        <ellipse cx="157.25" cy="184" fill="#ADD1B2" rx="11" ry="11" style="stroke: #A80036; stroke-width: 1.0;"/>
        <path d="M159.7188,190.1406 Q159.1406,190.4375 158.5,190.5781 Q157.8594,190.7344 157.1563,190.7344 Q154.6563,190.7344 153.3281,189.0938 Q152.0156,187.4375 152.0156,184.3125 Q152.0156,181.1875 153.3281,179.5313 Q154.6563,177.875 157.1563,177.875 Q157.8594,177.875 158.5,178.0313 Q159.1563,178.1875 159.7188,178.4844 L159.7188,181.2031 Q159.0938,180.625 158.5,180.3594 Q157.9063,180.0781 157.2813,180.0781 Q155.9375,180.0781 155.25,181.1563 Q154.5625,182.2188 154.5625,184.3125 Q154.5625,186.4063 155.25,187.4844 Q155.9375,188.5469 157.2813,188.5469 Q157.9063,188.5469 158.5,188.2813 Q159.0938,188 159.7188,187.4219 L159.7188,190.1406 Z "/>
        <text fill="#000000" font-family="sans-serif" font-size="12" lengthAdjust="spacingAndGlyphs" textLength="111"
              x="177.75" y="188.1543">TextSimulationView
        </text>
        <line style="stroke: #A80036; stroke-width: 1.5;" x1="39" x2="395" y1="200" y2="200"/>
        <line style="stroke: #A80036; stroke-width: 1.5;" x1="39" x2="395" y1="208" y2="208"/>
        <ellipse cx="49" cy="219.9023" fill="#84BE84" rx="3" ry="3" style="stroke: #038048; stroke-width: 1.0;"/>
        <text fill="#000000" font-family="sans-serif" font-size="11" lengthAdjust="spacingAndGlyphs" textLength="332"
              x="58" y="222.2104">TextSimulationView(controller: Controller, viewModel: ViewModel)
        </text>
        <polygon fill="#FFFF44" points="49,227.707,53,231.707,49,235.707,45,231.707"
                 style="stroke: #B38D22; stroke-width: 1.0;"/>
        <text fill="#000000" font-family="sans-serif" font-size="11" lengthAdjust="spacingAndGlyphs" textLength="46"
              x="58" y="235.0151">setupUi()
        </text>
        <polygon fill="#FFFF44" points="49,240.5117,53,244.5117,49,248.5117,45,244.5117"
                 style="stroke: #B38D22; stroke-width: 1.0;"/>
        <text fill="#000000" font-family="sans-serif" font-size="11" lengthAdjust="spacingAndGlyphs" textLength="104"
              x="58" y="247.8198">draw(circuit: Circuit)
        </text><!--class AbstractSimulationView-->
        <rect fill="#FEFECE" filter="url(#f1ctbvabn173lm)" height="48" id="AbstractSimulationView"
              style="stroke: #A80036; stroke-width: 1.5;" width="164" x="135" y="59"/>
        <ellipse cx="150" cy="75" fill="#ADD1B2" rx="11" ry="11" style="stroke: #A80036; stroke-width: 1.0;"/>
        <path d="M152.4688,81.1406 Q151.8906,81.4375 151.25,81.5781 Q150.6094,81.7344 149.9063,81.7344 Q147.4063,81.7344 146.0781,80.0938 Q144.7656,78.4375 144.7656,75.3125 Q144.7656,72.1875 146.0781,70.5313 Q147.4063,68.875 149.9063,68.875 Q150.6094,68.875 151.25,69.0313 Q151.9063,69.1875 152.4688,69.4844 L152.4688,72.2031 Q151.8438,71.625 151.25,71.3594 Q150.6563,71.0781 150.0313,71.0781 Q148.6875,71.0781 148,72.1563 Q147.3125,73.2188 147.3125,75.3125 Q147.3125,77.4063 148,78.4844 Q148.6875,79.5469 150.0313,79.5469 Q150.6563,79.5469 151.25,79.2813 Q151.8438,79 152.4688,78.4219 L152.4688,81.1406 Z "/>
        <text fill="#000000" font-family="sans-serif" font-size="12" lengthAdjust="spacingAndGlyphs" textLength="132"
              x="164" y="79.1543">AbstractSimulationView
        </text>
        <line style="stroke: #A80036; stroke-width: 1.5;" x1="136" x2="298" y1="91" y2="91"/>
        <line style="stroke: #A80036; stroke-width: 1.5;" x1="136" x2="298" y1="99"
              y2="99"/><!--link INodeVisitor to TextNodeDrawingVisitor-->
        <path d="M445.81,250.16 C424.78,272.96 397.25,302.8 371.6,330.62 " fill="none"
              id="INodeVisitor-TextNodeDrawingVisitor"
              style="stroke: #A80036; stroke-width: 1.0; stroke-dasharray: 7.0,7.0;"/>
        <polygon fill="none" points="440.83,245.23,459.53,235.28,451.12,254.72,440.83,245.23"
                 style="stroke: #A80036; stroke-width: 1.0;"/><!--link AbstractSimulationView to TextSimulationView-->
        <path d="M217,127.5 C217,140.59 217,154.93 217,167.92 " fill="none"
              id="AbstractSimulationView-TextSimulationView" style="stroke: #A80036; stroke-width: 1.0;"/>
        <polygon fill="none" points="210,127.11,217,107.11,224,127.11,210,127.11"
                 style="stroke: #A80036; stroke-width: 1.0;"/><!--link TextSimulationView to TextNodeDrawingVisitor-->
        <path d="M233.97,254.31 C242.35,275.22 252.78,301.24 262.73,326.05 " fill="none"
              id="TextSimulationView-TextNodeDrawingVisitor" style="stroke: #A80036; stroke-width: 1.0;"/>
        <polygon fill="#A80036"
                 points="264.72,330.99,265.0914,321.1481,262.863,326.3476,257.6636,324.1193,264.72,330.99"
                 style="stroke: #A80036; stroke-width: 1.0;"/>
        <rect fill="none" height="6" style="stroke: #C82930; stroke-width: 1.0;" width="6" x="255" y="290.0755"/>
        <text fill="#000000" font-family="sans-serif" font-size="13" lengthAdjust="spacingAndGlyphs" textLength="36"
              x="265" y="297.0814">visitor
        </text>
        <text fill="#000000" font-family="sans-serif" font-size="13" lengthAdjust="spacingAndGlyphs" textLength="8"
              x="253.3754" y="319.8616">1
        </text><!--
@startuml

package text {
    class TextNodeDrawingVisitor implements INodeVisitor {
        -value: String

        +getValue(): String
        +visit(node: Probe)
        +visit(node: Input)
        +visit(node: AndGate)
        +visit(node: NAndGate)
        +visit(node: NOrGate)
        +visit(node: OrGate)
        +visit(node: XOrGate)
    }

    class TextSimulationView extends AbstractSimulationView {
        +TextSimulationView(controller: Controller, viewModel: ViewModel)
        #setupUi()
        #draw(circuit: Circuit)
    }
    TextSimulationView - -> "1" TextNodeDrawingVisitor : -visitor
}

@enduml

PlantUML version 1.2018.12(Sun Oct 21 12:15:15 CEST 2018)
(GPL source distribution)
Java Runtime: OpenJDK Runtime Environment
JVM: OpenJDK 64-Bit Server VM
Java Version: 11.0.6+8-b520.43
Operating System: Linux
OS Version: 5.4.43-1-MANJARO
Default Encoding: UTF-8
Language: en
Country: US
-->
    </g>
</svg>