<?xml version="1.0" encoding="UTF-8" standalone="no"?>
<svg xmlns="http://www.w3.org/2000/svg"
     contentScriptType="application/ecmascript" contentStyleType="text/css" height="525px" preserveAspectRatio="none"
     style="width:687px;height:525px;" version="1.1" viewBox="0 0 687 525" width="687px" zoomAndPan="magnify">
    <defs>
        <filter height="300%" id="f1h1v8w6ewp89g" width="300%" x="-1" y="-1">
            <feGaussianBlur result="blurOut" stdDeviation="2.0"/>
            <feColorMatrix in="blurOut" result="blurOut2" type="matrix"
                           values="0 0 0 0 0 0 0 0 0 0 0 0 0 0 0 0 0 0 .4 0"/>
            <feOffset dx="4.0" dy="4.0" in="blurOut2" result="blurOut3"/>
            <feBlend in="SourceGraphic" in2="blurOut3" mode="normal"/>
        </filter>
    </defs>
    <g><!--cluster graphstream-->
        <polygon fill="#FFFFFF" filter="url(#f1h1v8w6ewp89g)"
                 points="22,24,124,24,131,46.2969,665,46.2969,665,513,22,513,22,24"
                 style="stroke: #000000; stroke-width: 1.5;"/>
        <line style="stroke: #000000; stroke-width: 1.5;" x1="22" x2="131" y1="46.2969" y2="46.2969"/>
        <text fill="#000000" font-family="sans-serif" font-size="14" font-weight="bold" lengthAdjust="spacingAndGlyphs"
              textLength="96" x="26" y="38.9951">graphstream
        </text><!--class GraphNodeData-->
        <rect fill="#FEFECE" filter="url(#f1h1v8w6ewp89g)" height="86.4141" id="GraphNodeData"
              style="stroke: #A80036; stroke-width: 1.5;" width="240" x="38" y="411"/>
        <ellipse cx="108.75" cy="427" fill="#ADD1B2" rx="11" ry="11" style="stroke: #A80036; stroke-width: 1.0;"/>
        <path d="M111.2188,433.1406 Q110.6406,433.4375 110,433.5781 Q109.3594,433.7344 108.6563,433.7344 Q106.1563,433.7344 104.8281,432.0938 Q103.5156,430.4375 103.5156,427.3125 Q103.5156,424.1875 104.8281,422.5313 Q106.1563,420.875 108.6563,420.875 Q109.3594,420.875 110,421.0313 Q110.6563,421.1875 111.2188,421.4844 L111.2188,424.2031 Q110.5938,423.625 110,423.3594 Q109.4063,423.0781 108.7813,423.0781 Q107.4375,423.0781 106.75,424.1563 Q106.0625,425.2188 106.0625,427.3125 Q106.0625,429.4063 106.75,430.4844 Q107.4375,431.5469 108.7813,431.5469 Q109.4063,431.5469 110,431.2813 Q110.5938,431 111.2188,430.4219 L111.2188,433.1406 Z "/>
        <text fill="#000000" font-family="sans-serif" font-size="12" lengthAdjust="spacingAndGlyphs" textLength="90"
              x="129.25" y="431.1543">GraphNodeData
        </text>
        <line style="stroke: #A80036; stroke-width: 1.5;" x1="39" x2="277" y1="443" y2="443"/>
        <ellipse cx="49" cy="454.9023" fill="none" rx="3" ry="3" style="stroke: #038048; stroke-width: 1.0;"/>
        <text fill="#000000" font-family="sans-serif" font-size="11" lengthAdjust="spacingAndGlyphs" textLength="63"
              x="58" y="457.2104">name: String
        </text>
        <ellipse cx="49" cy="467.707" fill="none" rx="3" ry="3" style="stroke: #038048; stroke-width: 1.0;"/>
        <text fill="#000000" font-family="sans-serif" font-size="11" lengthAdjust="spacingAndGlyphs" textLength="57"
              x="58" y="470.0151">type: String
        </text>
        <line style="stroke: #A80036; stroke-width: 1.5;" x1="39" x2="277" y1="476.6094" y2="476.6094"/>
        <ellipse cx="49" cy="488.5117" fill="#84BE84" rx="3" ry="3" style="stroke: #038048; stroke-width: 1.0;"/>
        <text fill="#000000" font-family="sans-serif" font-size="11" lengthAdjust="spacingAndGlyphs" textLength="214"
              x="58" y="490.8198">GraphNodeData(name: String, type: String)
        </text><!--class GraphNodeDrawingVisitor-->
        <rect fill="#FEFECE" filter="url(#f1h1v8w6ewp89g)" height="150.4375" id="GraphNodeDrawingVisitor"
              style="stroke: #A80036; stroke-width: 1.5;" width="176" x="38" y="184"/>
        <ellipse cx="53" cy="200" fill="#ADD1B2" rx="11" ry="11" style="stroke: #A80036; stroke-width: 1.0;"/>
        <path d="M55.4688,206.1406 Q54.8906,206.4375 54.25,206.5781 Q53.6094,206.7344 52.9063,206.7344 Q50.4063,206.7344 49.0781,205.0938 Q47.7656,203.4375 47.7656,200.3125 Q47.7656,197.1875 49.0781,195.5313 Q50.4063,193.875 52.9063,193.875 Q53.6094,193.875 54.25,194.0313 Q54.9063,194.1875 55.4688,194.4844 L55.4688,197.2031 Q54.8438,196.625 54.25,196.3594 Q53.6563,196.0781 53.0313,196.0781 Q51.6875,196.0781 51,197.1563 Q50.3125,198.2188 50.3125,200.3125 Q50.3125,202.4063 51,203.4844 Q51.6875,204.5469 53.0313,204.5469 Q53.6563,204.5469 54.25,204.2813 Q54.8438,204 55.4688,203.4219 L55.4688,206.1406 Z "/>
        <text fill="#000000" font-family="sans-serif" font-size="12" lengthAdjust="spacingAndGlyphs" textLength="144"
              x="67" y="204.1543">GraphNodeDrawingVisitor
        </text>
        <line style="stroke: #A80036; stroke-width: 1.5;" x1="39" x2="213" y1="216" y2="216"/>
        <line style="stroke: #A80036; stroke-width: 1.5;" x1="39" x2="213" y1="224" y2="224"/>
        <ellipse cx="49" cy="235.9023" fill="#84BE84" rx="3" ry="3" style="stroke: #038048; stroke-width: 1.0;"/>
        <text fill="#000000" font-family="sans-serif" font-size="11" lengthAdjust="spacingAndGlyphs" textLength="138"
              x="58" y="238.2104">getValue(): GraphNodeData
        </text>
        <ellipse cx="49" cy="248.707" fill="#84BE84" rx="3" ry="3" style="stroke: #038048; stroke-width: 1.0;"/>
        <text fill="#000000" font-family="sans-serif" font-size="11" lengthAdjust="spacingAndGlyphs" textLength="87"
              x="58" y="251.0151">visit(node: Probe)
        </text>
        <ellipse cx="49" cy="261.5117" fill="#84BE84" rx="3" ry="3" style="stroke: #038048; stroke-width: 1.0;"/>
        <text fill="#000000" font-family="sans-serif" font-size="11" lengthAdjust="spacingAndGlyphs" textLength="84"
              x="58" y="263.8198">visit(node: Input)
        </text>
        <ellipse cx="49" cy="274.3164" fill="#84BE84" rx="3" ry="3" style="stroke: #038048; stroke-width: 1.0;"/>
        <text fill="#000000" font-family="sans-serif" font-size="11" lengthAdjust="spacingAndGlyphs" textLength="102"
              x="58" y="276.6245">visit(node: AndGate)
        </text>
        <ellipse cx="49" cy="287.1211" fill="#84BE84" rx="3" ry="3" style="stroke: #038048; stroke-width: 1.0;"/>
        <text fill="#000000" font-family="sans-serif" font-size="11" lengthAdjust="spacingAndGlyphs" textLength="110"
              x="58" y="289.4292">visit(node: NAndGate)
        </text>
        <ellipse cx="49" cy="299.9258" fill="#84BE84" rx="3" ry="3" style="stroke: #038048; stroke-width: 1.0;"/>
        <text fill="#000000" font-family="sans-serif" font-size="11" lengthAdjust="spacingAndGlyphs" textLength="103"
              x="58" y="302.2339">visit(node: NOrGate)
        </text>
        <ellipse cx="49" cy="312.7305" fill="#84BE84" rx="3" ry="3" style="stroke: #038048; stroke-width: 1.0;"/>
        <text fill="#000000" font-family="sans-serif" font-size="11" lengthAdjust="spacingAndGlyphs" textLength="95"
              x="58" y="315.0386">visit(node: OrGate)
        </text>
        <ellipse cx="49" cy="325.5352" fill="#84BE84" rx="3" ry="3" style="stroke: #038048; stroke-width: 1.0;"/>
        <text fill="#000000" font-family="sans-serif" font-size="11" lengthAdjust="spacingAndGlyphs" textLength="102"
              x="58" y="327.8433">visit(node: XOrGate)
        </text><!--class INodeVisitor-->
        <rect fill="#FEFECE" filter="url(#f1h1v8w6ewp89g)" height="48" id="INodeVisitor"
              style="stroke: #A80036; stroke-width: 1.5;" width="99" x="254.5" y="59"/>
        <ellipse cx="269.5" cy="75" fill="#B4A7E5" rx="11" ry="11" style="stroke: #A80036; stroke-width: 1.0;"/>
        <path d="M265.9219,70.7656 L265.9219,68.6094 L273.3125,68.6094 L273.3125,70.7656 L270.8438,70.7656 L270.8438,78.8438 L273.3125,78.8438 L273.3125,81 L265.9219,81 L265.9219,78.8438 L268.3906,78.8438 L268.3906,70.7656 L265.9219,70.7656 Z "/>
        <text fill="#000000" font-family="sans-serif" font-size="12" font-style="italic" lengthAdjust="spacingAndGlyphs"
              textLength="67" x="283.5" y="79.1543">INodeVisitor
        </text>
        <line style="stroke: #A80036; stroke-width: 1.5;" x1="255.5" x2="352.5" y1="91" y2="91"/>
        <line style="stroke: #A80036; stroke-width: 1.5;" x1="255.5" x2="352.5" y1="99"
              y2="99"/><!--class GraphstreamSimulationView-->
        <rect fill="#FEFECE" filter="url(#f1h1v8w6ewp89g)" height="137.6328" id="GraphstreamSimulationView"
              style="stroke: #A80036; stroke-width: 1.5;" width="401" x="248.5" y="190"/>
        <ellipse cx="365.25" cy="206" fill="#ADD1B2" rx="11" ry="11" style="stroke: #A80036; stroke-width: 1.0;"/>
        <path d="M367.7188,212.1406 Q367.1406,212.4375 366.5,212.5781 Q365.8594,212.7344 365.1563,212.7344 Q362.6563,212.7344 361.3281,211.0938 Q360.0156,209.4375 360.0156,206.3125 Q360.0156,203.1875 361.3281,201.5313 Q362.6563,199.875 365.1563,199.875 Q365.8594,199.875 366.5,200.0313 Q367.1563,200.1875 367.7188,200.4844 L367.7188,203.2031 Q367.0938,202.625 366.5,202.3594 Q365.9063,202.0781 365.2813,202.0781 Q363.9375,202.0781 363.25,203.1563 Q362.5625,204.2188 362.5625,206.3125 Q362.5625,208.4063 363.25,209.4844 Q363.9375,210.5469 365.2813,210.5469 Q365.9063,210.5469 366.5,210.2813 Q367.0938,210 367.7188,209.4219 L367.7188,212.1406 Z "/>
        <text fill="#000000" font-family="sans-serif" font-size="12" lengthAdjust="spacingAndGlyphs" textLength="159"
              x="385.75" y="210.1543">GraphstreamSimulationView
        </text>
        <line style="stroke: #A80036; stroke-width: 1.5;" x1="249.5" x2="648.5" y1="222" y2="222"/>
        <rect fill="none" height="6" style="stroke: #C82930; stroke-width: 1.0;" width="6" x="256.5" y="230.9023"/>
        <text fill="#000000" font-family="sans-serif" font-size="11" lengthAdjust="spacingAndGlyphs" textLength="89"
              x="268.5" y="236.2104">graph: MultiGraph
        </text>
        <line style="stroke: #A80036; stroke-width: 1.5;" x1="249.5" x2="648.5" y1="242.8047" y2="242.8047"/>
        <ellipse cx="259.5" cy="254.707" fill="#84BE84" rx="3" ry="3" style="stroke: #038048; stroke-width: 1.0;"/>
        <text fill="#000000" font-family="sans-serif" font-size="11" lengthAdjust="spacingAndGlyphs" textLength="375"
              x="268.5" y="257.0151">GraphstreamSimulationView(controller: Controller, viewModel: ViewModel)
        </text>
        <polygon fill="#FFFF44" points="259.5,262.5117,263.5,266.5117,259.5,270.5117,255.5,266.5117"
                 style="stroke: #B38D22; stroke-width: 1.0;"/>
        <text fill="#000000" font-family="sans-serif" font-size="11" lengthAdjust="spacingAndGlyphs" textLength="46"
              x="268.5" y="269.8198">setupUi()
        </text>
        <polygon fill="#FFFF44" points="259.5,275.3164,263.5,279.3164,259.5,283.3164,255.5,279.3164"
                 style="stroke: #B38D22; stroke-width: 1.0;"/>
        <text fill="#000000" font-family="sans-serif" font-size="11" lengthAdjust="spacingAndGlyphs" textLength="104"
              x="268.5" y="282.6245">draw(circuit: Circuit)
        </text>
        <rect fill="#F24D5C" height="6" style="stroke: #C82930; stroke-width: 1.0;" width="6" x="256.5" y="290.1211"/>
        <text fill="#000000" font-family="sans-serif" font-size="11" lengthAdjust="spacingAndGlyphs" textLength="135"
              x="268.5" y="295.4292">drawNodes(circuit: Circuit)
        </text>
        <rect fill="#F24D5C" height="6" style="stroke: #C82930; stroke-width: 1.0;" width="6" x="256.5" y="302.9258"/>
        <text fill="#000000" font-family="sans-serif" font-size="11" lengthAdjust="spacingAndGlyphs" textLength="133"
              x="268.5" y="308.2339">drawEdges(circuit: Circuit)
        </text>
        <rect fill="#F24D5C" height="6" style="stroke: #C82930; stroke-width: 1.0;" width="6" x="256.5" y="315.7305"/>
        <text fill="#000000" font-family="sans-serif" font-size="11" lengthAdjust="spacingAndGlyphs" textLength="112"
              x="268.5" y="321.0386">getStyleSheet(): String
        </text><!--class AbstractSimulationView-->
        <rect fill="#FEFECE" filter="url(#f1h1v8w6ewp89g)" height="48" id="AbstractSimulationView"
              style="stroke: #A80036; stroke-width: 1.5;" width="164" x="389" y="59"/>
        <ellipse cx="404" cy="75" fill="#ADD1B2" rx="11" ry="11" style="stroke: #A80036; stroke-width: 1.0;"/>
        <path d="M406.4688,81.1406 Q405.8906,81.4375 405.25,81.5781 Q404.6094,81.7344 403.9063,81.7344 Q401.4063,81.7344 400.0781,80.0938 Q398.7656,78.4375 398.7656,75.3125 Q398.7656,72.1875 400.0781,70.5313 Q401.4063,68.875 403.9063,68.875 Q404.6094,68.875 405.25,69.0313 Q405.9063,69.1875 406.4688,69.4844 L406.4688,72.2031 Q405.8438,71.625 405.25,71.3594 Q404.6563,71.0781 404.0313,71.0781 Q402.6875,71.0781 402,72.1563 Q401.3125,73.2188 401.3125,75.3125 Q401.3125,77.4063 402,78.4844 Q402.6875,79.5469 404.0313,79.5469 Q404.6563,79.5469 405.25,79.2813 Q405.8438,79 406.4688,78.4219 L406.4688,81.1406 Z "/>
        <text fill="#000000" font-family="sans-serif" font-size="12" lengthAdjust="spacingAndGlyphs" textLength="132"
              x="418" y="79.1543">AbstractSimulationView
        </text>
        <line style="stroke: #A80036; stroke-width: 1.5;" x1="390" x2="552" y1="91" y2="91"/>
        <line style="stroke: #A80036; stroke-width: 1.5;" x1="390" x2="552" y1="99"
              y2="99"/><!--class GraphNodeSimulationView-->
        <rect fill="#FEFECE" filter="url(#f1h1v8w6ewp89g)" height="48" id="GraphNodeSimulationView"
              style="stroke: #A80036; stroke-width: 1.5;" width="181" x="38.5" y="59"/>
        <ellipse cx="53.5" cy="75" fill="#ADD1B2" rx="11" ry="11" style="stroke: #A80036; stroke-width: 1.0;"/>
        <path d="M55.9688,81.1406 Q55.3906,81.4375 54.75,81.5781 Q54.1094,81.7344 53.4063,81.7344 Q50.9063,81.7344 49.5781,80.0938 Q48.2656,78.4375 48.2656,75.3125 Q48.2656,72.1875 49.5781,70.5313 Q50.9063,68.875 53.4063,68.875 Q54.1094,68.875 54.75,69.0313 Q55.4063,69.1875 55.9688,69.4844 L55.9688,72.2031 Q55.3438,71.625 54.75,71.3594 Q54.1563,71.0781 53.5313,71.0781 Q52.1875,71.0781 51.5,72.1563 Q50.8125,73.2188 50.8125,75.3125 Q50.8125,77.4063 51.5,78.4844 Q52.1875,79.5469 53.5313,79.5469 Q54.1563,79.5469 54.75,79.2813 Q55.3438,79 55.9688,78.4219 L55.9688,81.1406 Z "/>
        <text fill="#000000" font-family="sans-serif" font-size="12" lengthAdjust="spacingAndGlyphs" textLength="149"
              x="67.5" y="79.1543">GraphNodeSimulationView
        </text>
        <line style="stroke: #A80036; stroke-width: 1.5;" x1="39.5" x2="218.5" y1="91" y2="91"/>
        <line style="stroke: #A80036; stroke-width: 1.5;" x1="39.5" x2="218.5" y1="99"
              y2="99"/><!--link INodeVisitor to GraphNodeDrawingVisitor-->
        <path d="M265.84,121.3 C247.14,139.58 223.93,162.27 201.84,183.87 " fill="none"
              id="INodeVisitor-GraphNodeDrawingVisitor"
              style="stroke: #A80036; stroke-width: 1.0; stroke-dasharray: 7.0,7.0;"/>
        <polygon fill="none" points="261.17,116.08,280.36,107.11,270.95,126.09,261.17,116.08"
                 style="stroke: #A80036; stroke-width: 1.0;"/><!--link GraphNodeDrawingVisitor to GraphNodeData-->
        <path d="M138.28,334.07 C142.28,358.18 146.6,384.27 150.18,405.85 " fill="none"
              id="GraphNodeDrawingVisitor-GraphNodeData" style="stroke: #A80036; stroke-width: 1.0;"/>
        <polygon fill="#A80036"
                 points="151.03,410.95,153.5139,401.4195,150.2173,406.0165,145.6203,402.7199,151.03,410.95"
                 style="stroke: #A80036; stroke-width: 1.0;"/>
        <rect fill="none" height="6" style="stroke: #C82930; stroke-width: 1.0;" width="6" x="148" y="370.0755"/>
        <text fill="#000000" font-family="sans-serif" font-size="13" lengthAdjust="spacingAndGlyphs" textLength="33"
              x="158" y="377.0814">value
        </text>
        <text fill="#000000" font-family="sans-serif" font-size="13" lengthAdjust="spacingAndGlyphs" textLength="8"
              x="141.2817" y="399.954">1
        </text><!--link AbstractSimulationView to GraphstreamSimulationView-->
        <path d="M465.54,127.22 C463.15,146.08 460.3,168.64 457.64,189.68 " fill="none"
              id="AbstractSimulationView-GraphstreamSimulationView" style="stroke: #A80036; stroke-width: 1.0;"/>
        <polygon fill="none" points="458.63,126.07,468.08,107.11,472.51,127.83,458.63,126.07"
                 style="stroke: #A80036; stroke-width: 1.0;"/><!--link GraphNodeSimulationView to GraphNodeDrawingVisitor-->
        <path d="M128.6,107.11 C128.28,125.57 127.82,152.58 127.37,178.67 " fill="none"
              id="GraphNodeSimulationView-GraphNodeDrawingVisitor" style="stroke: #A80036; stroke-width: 1.0;"/>
        <polygon fill="#A80036"
                 points="127.28,183.87,131.4337,174.9399,127.3657,178.8707,123.4349,174.8028,127.28,183.87"
                 style="stroke: #A80036; stroke-width: 1.0;"/>
        <rect fill="none" height="6" style="stroke: #C82930; stroke-width: 1.0;" width="6" x="131" y="143.0755"/>
        <text fill="#000000" font-family="sans-serif" font-size="13" lengthAdjust="spacingAndGlyphs" textLength="36"
              x="141" y="150.0814">visitor
        </text>
        <text fill="#000000" font-family="sans-serif" font-size="13" lengthAdjust="spacingAndGlyphs" textLength="8"
              x="119.0123" y="172.8034">1
        </text><!--
@startuml

package graphstream {
    class GraphNodeData {
        +name: String
        +type: String

        +GraphNodeData(name: String, type: String)
    }

    class GraphNodeDrawingVisitor implements INodeVisitor {
        +getValue(): GraphNodeData
        +visit(node: Probe)
        +visit(node: Input)
        +visit(node: AndGate)
        +visit(node: NAndGate)
        +visit(node: NOrGate)
        +visit(node: OrGate)
        +visit(node: XOrGate)
    }
    GraphNodeDrawingVisitor - -> "1" GraphNodeData : -value

    class GraphstreamSimulationView extends AbstractSimulationView {
        -graph: MultiGraph

        +GraphstreamSimulationView(controller: Controller, viewModel: ViewModel)
        #setupUi()
        #draw(circuit: Circuit)
        -drawNodes(circuit: Circuit)
        -drawEdges(circuit: Circuit)
        -getStyleSheet(): String
    }
    GraphNodeSimulationView - -> "1" GraphNodeDrawingVisitor : -visitor
}

@enduml

PlantUML version 1.2018.12(Sun Oct 21 12:15:15 CEST 2018)
(GPL source distribution)
Java Runtime: OpenJDK Runtime Environment
JVM: OpenJDK 64-Bit Server VM
Java Version: 11.0.6+8-b520.43
Operating System: Linux
OS Version: 5.4.43-1-MANJARO
Default Encoding: UTF-8
Language: en
Country: US
-->
    </g>
</svg>